<?xml version="1.0" encoding="UTF-8" standalone="no"?>
<!-- Created with Inkscape (http://www.inkscape.org/) -->

<svg
   xmlns:dc="http://purl.org/dc/elements/1.1/"
   xmlns:cc="http://creativecommons.org/ns#"
   xmlns:rdf="http://www.w3.org/1999/02/22-rdf-syntax-ns#"
   xmlns:svg="http://www.w3.org/2000/svg"
   xmlns="http://www.w3.org/2000/svg"
   xmlns:sodipodi="http://sodipodi.sourceforge.net/DTD/sodipodi-0.dtd"
   xmlns:inkscape="http://www.inkscape.org/namespaces/inkscape"
   width="44.100243mm"
   height="202.47308mm"
   viewBox="0 0 156.2607 717.42431"
   id="svg2"
   version="1.1"
   inkscape:version="0.91 r13725"
   sodipodi:docname="DouglasFir.svg">
  <defs
     id="defs4" />
  <sodipodi:namedview
     id="base"
     pagecolor="#ffffff"
     bordercolor="#666666"
     borderopacity="1.0"
     inkscape:pageopacity="0.0"
     inkscape:pageshadow="2"
     inkscape:zoom="0.86"
     inkscape:cx="176.00036"
     inkscape:cy="351.28866"
     inkscape:document-units="px"
     inkscape:current-layer="layer1"
     showgrid="false"
     inkscape:window-width="1440"
     inkscape:window-height="838"
     inkscape:window-x="-8"
     inkscape:window-y="-8"
     inkscape:window-maximized="1"
     fit-margin-top="0"
     fit-margin-left="0"
     fit-margin-right="0"
     fit-margin-bottom="0" />
  <metadata
     id="metadata7">
    <rdf:RDF>
      <cc:Work
         rdf:about="">
        <dc:format>image/svg+xml</dc:format>
        <dc:type
           rdf:resource="http://purl.org/dc/dcmitype/StillImage" />
        <dc:title></dc:title>
      </cc:Work>
    </rdf:RDF>
  </metadata>
  <g
     inkscape:label="Layer 1"
     inkscape:groupmode="layer"
     id="layer1"
     transform="translate(-196.04688,-175.8379)">
    <path
       style="fill:#000000"
       d="m 266.46875,175.83984 c -3.126,0.0488 -6.21007,1.01746 -8.87695,3.11524 -2.88964,2.273 -7.69196,4.74476 -10.66992,5.49219 -7.74683,1.94433 -11.47699,6.86024 -7.56446,9.96875 1.65569,1.31544 4.12621,4.37449 5.48828,6.79882 2.04329,3.63684 1.91338,4.62429 -0.74023,5.64258 -2.42614,0.93099 -2.89696,2.93718 -1.91602,8.16602 1.03171,5.49951 0.54724,7.21483 -2.34765,8.30273 -13.38078,5.02852 -16.79332,11.32061 -8.53516,15.74024 3.28019,1.75552 5.68477,1.74892 9.5918,-0.0312 5.6251,-2.56296 8.58103,-0.40433 8.64453,6.31445 0.0319,3.37332 -8.83352,5.8592 -21.07031,5.9082 -4.15783,0.0166 -5.66211,1.04797 -5.66211,3.88672 0,4.96501 3.67194,7.94386 10.87304,8.82031 7.77216,0.94594 8.04738,4.52842 0.44922,5.83594 -4.42682,0.76179 -6.36158,2.37418 -6.83398,5.69141 -0.66633,4.67906 0.2287,5.32752 10.4375,7.56445 3.11378,0.68228 5.66211,2.10657 5.66211,3.16406 0,2.56826 -13.54729,6.20836 -23.16016,6.22266 -6.42584,0.01 -7.7207,0.7239 -7.7207,4.26367 0,9.02751 3.41908,11.91772 12.63476,10.68164 6.87165,-0.92168 9.14074,-0.38075 11.4043,2.71485 2.41026,3.29622 3.44326,3.47879 7.02148,1.24414 4.8947,-3.05679 12.17188,-1.37843 12.17188,2.80664 0,2.31779 -3.95457,2.8014 -19.86328,2.43359 -22.78063,-0.52668 -27.67447,2.51987 -13.19141,8.20899 10.23231,4.01936 10.66686,9.53196 0.82813,10.49023 -3.55207,0.34597 -8.12224,2.46728 -10.15625,4.71484 -3.49666,3.86376 -3.50811,4.40917 -0.20899,9.99414 4.16451,7.04994 3.02882,11.05825 -4.04492,14.28125 -3.56742,1.62543 -4.83116,3.43891 -3.9668,5.69141 0.69768,1.81811 0.16188,6.36694 -1.1914,10.10937 -1.95722,5.41261 -1.91326,7.46509 0.21484,10.0293 4.29776,5.17849 11.45202,3.97098 14.46289,-2.43945 4.0412,-8.60412 5.03342,-2.20377 2.27149,14.64844 -1.32401,8.07857 -2.69608,19.32101 -3.05078,24.98242 -0.3547,5.66141 -1.33466,11.90986 -2.17774,13.88672 -1.35723,3.1825 -0.97325,10.0853 1.28711,23.08203 0.47744,2.74521 -1.10427,4.91352 -4.96094,6.80273 -3.11378,1.52528 -5.66015,3.99952 -5.66015,5.49805 0,1.49854 -2.05129,4.08714 -4.5586,5.75195 -4.45893,2.96061 -4.47817,3.15022 -0.87304,8.65235 2.02721,3.09391 3.21883,6.8417 2.64843,8.32812 -0.57039,1.4864 1.24369,4.84413 4.03125,7.46289 3.83294,3.60085 4.77326,6.09998 3.86133,10.25195 -0.85305,3.8839 -0.2633,5.85085 2.01367,6.72461 4.69089,1.80006 12.91549,-2.58101 14.36914,-7.65429 1.18975,-4.15225 1.56932,-4.01778 7.24414,2.58203 4.05373,4.71447 7.0849,6.54269 9.38477,5.66015 4.38565,-1.68292 3.04102,2.76013 -1.74219,5.75782 -2.65406,1.66332 -5.06894,1.32022 -9.82226,-1.39649 -8.35865,-4.77733 -10.08789,-4.55002 -10.08789,1.32422 0,2.70957 -1.38947,5.45956 -3.08789,6.11133 -1.69843,0.65174 -3.08789,3.06708 -3.08789,5.36719 0,3.50654 -1.32965,4.18164 -8.23438,4.18164 -6.74297,0 -8.23437,0.71429 -8.23437,3.94531 0,2.17019 0.90507,4.25537 2.01171,4.63281 1.10665,0.37742 2.60742,3.67803 3.33594,7.33399 1.16443,5.84344 0.67268,6.89399 -4.07031,8.69726 -2.96745,1.12823 -5.39648,2.92449 -5.39648,3.99219 -10e-6,3.74881 2.52162,8.45508 4.52929,8.45508 4.05853,0 11.01229,7.29795 10.30469,10.81445 -0.93303,4.63688 3.10135,6.08551 10.90039,3.91602 4.51508,-1.25597 6.13317,-2.91416 6.01367,-6.16602 -0.20185,-5.49252 6.30749,-6.04458 11.87305,-1.00781 3.58113,3.24088 4.15367,3.10059 9.91992,-2.42383 3.36553,-3.22438 6.39144,-5.46601 6.72461,-4.98242 4.61595,6.69994 5.4409,19.86358 4.63477,73.96484 -0.48082,32.26907 -0.95057,84.61054 -1.04297,116.31446 -0.0924,31.70391 -1.24092,68.29711 -2.55469,81.31836 -3.94038,39.05461 -4.87433,35.82674 10.75195,37.21484 7.35984,0.65378 13.90041,1.34949 14.53321,1.54492 0.6328,0.19543 2.76775,-0.82827 4.74414,-2.27344 3.0723,-2.24653 3.29727,-3.96166 1.55859,-11.83593 -1.95426,-8.85057 -3.03467,-51.49325 -5.51367,-217.6543 -0.92982,-62.32362 -0.639,-76.68877 1.54687,-76.70117 2.75043,-0.0164 7.83594,-8.95868 7.83594,-13.77735 0,-1.47269 -1.85263,-2.67773 -4.11719,-2.67773 -5.23171,0 -5.23171,-2.24704 0,-6.72656 5.55042,-4.75241 5.18087,-7.37997 -1.38672,-9.87696 -5.21429,-1.98246 -5.31455,-2.27794 -1.93164,-5.61132 3.3691,-3.31973 3.73605,-3.29236 6.53125,0.47851 1.62922,2.1979 2.96289,5.52774 2.96289,7.40039 0,4.28485 6.79242,10.58839 10.55079,9.79102 1.88815,-0.40054 3.05103,1.79788 3.49218,6.60351 0.79689,8.6811 3.5076,12.09593 6.90625,8.69727 1.85614,-1.85606 3.10934,-1.85008 5.36914,0.0254 2.30979,1.91696 3.45716,1.79094 5.29883,-0.58008 1.29283,-1.66444 4.31718,-2.73841 6.7207,-2.38672 5.37228,0.78607 8.06397,-4.99817 4.41602,-9.49023 -2.22554,-2.74049 -2.04462,-2.99979 1.23828,-1.76758 3.23411,1.21389 3.69522,0.63504 2.88086,-3.625 -0.80907,-4.23239 -0.0866,-5.17021 4.38477,-5.68945 4.71078,-0.54704 5.43339,-1.6768 5.99023,-9.37305 0.55109,-7.61672 0.0935,-8.74805 -3.5293,-8.74805 -2.50028,0 -6.24603,-3.06741 -9.38281,-7.68359 -5.45943,-8.03428 -6.6526,-12.9043 -3.16211,-12.9043 4.73463,0 1.57353,-6.55919 -4.11718,-8.54297 -3.39685,-1.18416 -6.17579,-2.81504 -6.17579,-3.62304 0,-3.40047 8.99543,-10.73464 14.52149,-11.83985 3.28484,-0.65697 7.02424,-2.46027 8.30859,-4.00781 2.91528,-3.51269 0.98335,-9.04297 -3.1582,-9.04297 -2.47882,0 -2.6983,-1.06097 -1.09375,-5.28125 2.79677,-7.35607 2.54018,-9.0652 -1.59375,-10.57422 -6.48474,-2.36715 -15.39226,-10.95018 -19.2832,-18.58203 -4.42436,-8.67812 -3.92721,-10.0675 2.38476,-6.68945 5.79137,3.09945 8.62538,-0.44619 7.44336,-9.31055 -0.45296,-3.39684 -0.0275,-8.29187 0.94531,-10.87695 1.14798,-3.05041 0.87457,-6.16347 -0.77929,-8.87109 -2.24073,-3.66846 -1.72802,-4.911 4.25,-10.29297 6.40843,-5.76947 6.69774,-6.61887 5.04882,-14.80274 -1.61725,-8.02664 -2.20839,-8.64386 -7.82812,-8.16406 -3.34325,0.28542 -7.4676,-0.42667 -9.16602,-1.58203 -2.68558,-1.82689 -2.60302,-2.38565 0.63868,-4.29297 2.25363,-1.32598 3.48473,-4.04626 3.11328,-6.88086 -0.33791,-2.57862 0.37926,-5.97606 1.59375,-7.54883 2.97662,-3.85472 7.61401,-25.94466 5.99609,-28.5625 -0.71035,-1.14937 -3.55253,-2.08984 -6.31641,-2.08984 -4.49547,0 -5.02539,-0.87293 -5.02539,-8.28516 0,-7.1284 -0.79148,-8.59615 -5.66211,-10.50586 -5.62926,-2.20714 -5.63505,-2.22976 -1.02929,-4 5.05877,-1.94435 6.13358,-5.63154 2.05859,-7.0625 -13.57334,-4.76636 -14.50594,-5.35733 -12.17187,-7.6914 3.8692,-3.8692 2.7542,-9.21486 -2.23829,-10.73243 -2.80623,-0.85301 -3.61761,-1.82709 -2.05859,-2.4707 3.56219,-1.47056 3.21525,-4.8312 -0.97461,-9.46094 -3.40694,-3.76464 -3.34516,-3.87155 1.54492,-2.71484 6.16468,1.45821 11.26022,-1.43678 9.69727,-5.50977 -0.62716,-1.63435 -4.357,-4.4974 -8.28906,-6.36328 -3.93206,-1.86589 -7.62138,-5.19429 -8.19727,-7.39648 -0.75747,-2.89654 -2.24931,-3.69112 -5.39258,-2.86914 -6.39831,1.6732 -5.28419,-0.81112 2.06836,-4.61328 4.61036,-2.38411 7.04043,-2.68808 8.64649,-1.08203 2.95217,2.95218 12.31688,2.85694 15.33007,-0.15625 1.81514,-1.81514 1.58519,-3.75377 -0.95312,-8.05079 -3.27275,-5.54032 -4.83166,-6.16816 -24.28906,-9.78125 l -8.00196,-1.48632 c -0.0386,-0.036 -0.0659,-0.0715 -0.10156,-0.10743 l 6.04492,-2.98242 c 3.39685,-1.67649 6.17578,-4.41779 6.17578,-6.08984 0,-1.76347 -2.59319,-3.49738 -6.17578,-4.12891 -5.24912,-0.92529 -6.17578,-2.01455 -6.17578,-7.26758 0,-10.75718 -9.75482,-18.8904 -19.13281,-18.74414 z m -41.47852,176.31641 c 1.06546,0 1.9375,0.92631 1.9375,2.05859 0,1.13229 -1.44373,2.0586 -3.20898,2.0586 -1.76526,0 -2.63729,-0.92631 -1.9375,-2.0586 0.69979,-1.13228 2.14352,-2.05859 3.20898,-2.05859 z"
       id="path4161"
       inkscape:connector-curvature="0" />
  </g>
</svg>
