<?xml version="1.0" encoding="UTF-8" standalone="no"?>
<!-- Created with Inkscape (http://www.inkscape.org/) -->

<svg
   xmlns:dc="http://purl.org/dc/elements/1.1/"
   xmlns:cc="http://creativecommons.org/ns#"
   xmlns:rdf="http://www.w3.org/1999/02/22-rdf-syntax-ns#"
   xmlns:svg="http://www.w3.org/2000/svg"
   xmlns="http://www.w3.org/2000/svg"
   xmlns:sodipodi="http://sodipodi.sourceforge.net/DTD/sodipodi-0.dtd"
   xmlns:inkscape="http://www.inkscape.org/namespaces/inkscape"
   width="102.30224mm"
   height="121.8524mm"
   viewBox="0 0 362.48825 431.76048"
   id="svg2"
   version="1.1"
   inkscape:version="0.91 r13725"
   sodipodi:docname="Liquidambar.svg">
  <defs
     id="defs4" />
  <sodipodi:namedview
     id="base"
     pagecolor="#ffffff"
     bordercolor="#666666"
     borderopacity="1.0"
     inkscape:pageopacity="0.0"
     inkscape:pageshadow="2"
     inkscape:zoom="1.1257456"
     inkscape:cx="230.87822"
     inkscape:cy="207.41533"
     inkscape:document-units="px"
     inkscape:current-layer="layer1"
     showgrid="false"
     inkscape:window-width="1440"
     inkscape:window-height="838"
     inkscape:window-x="-8"
     inkscape:window-y="-8"
     inkscape:window-maximized="1"
     fit-margin-top="0"
     fit-margin-left="0"
     fit-margin-right="0"
     fit-margin-bottom="0" />
  <metadata
     id="metadata7">
    <rdf:RDF>
      <cc:Work
         rdf:about="">
        <dc:format>image/svg+xml</dc:format>
        <dc:type
           rdf:resource="http://purl.org/dc/dcmitype/StillImage" />
        <dc:title></dc:title>
      </cc:Work>
    </rdf:RDF>
  </metadata>
  <g
     inkscape:label="Layer 1"
     inkscape:groupmode="layer"
     id="layer1"
     transform="translate(-79.130871,-146.6106)">
    <path
       style="fill:#000000"
       d="m 257.6543,146.61523 c -0.1899,-0.0236 -0.46076,0.0437 -0.83789,0.19141 -0.28619,-0.009 -0.55544,0.0652 -0.8125,0.22656 -0.769,0.48277 -2.18594,0.63154 -3.14844,0.33203 -1.35365,-0.42122 -1.75,0.0375 -1.75,2.02344 0,1.41207 -0.45,2.56641 -1,2.56641 -0.55,0 -1,-0.68853 -1,-1.53125 0,-2.1654 -4.20209,-3.66022 -5.54102,-1.97071 -0.69622,0.87852 -1.57981,1.01499 -2.66406,0.40821 -2.47811,-1.38682 -4.60577,-0.0705 -5.9668,3.69336 -0.92283,2.55203 -1.6721,3.26806 -2.98437,2.85156 -0.9638,-0.30589 -2.94051,0.22307 -4.39453,1.17578 -2.12211,1.39046 -3.01742,1.49937 -4.53321,0.55274 -2.58093,-1.61181 -4.86172,-1.48045 -5.55273,0.32031 -0.31659,0.825 -1.20259,1.5 -1.96875,1.5 -1.60474,0 -1.56557,-0.32646 -1.39844,11.5 0.11678,8.26269 0.34308,9.22529 2.75391,11.75 3.75131,3.92852 0.49854,3.65847 -3.64649,-0.30274 -3.43067,-3.27856 -6.36321,-3.30965 -8.9082,-0.0957 -1.58458,2.00109 -0.72274,8.14367 1.36914,9.75977 2.32148,1.79349 1.65736,2.68342 -1.52539,2.04687 -3.76866,-0.75374 -6.03906,1.37957 -6.03906,5.67383 0,2.10502 -0.67942,3.61278 -2,4.4375 -2.74001,1.71116 -2.50657,3.687 0.73437,6.23633 l 2.73243,2.15039 -2.1211,3.67187 c -1.66652,2.88447 -2.8337,3.74376 -5.43945,4.00196 -4.19581,0.41575 -8.90625,3.71429 -8.90625,6.23828 0,1.06255 0.45,1.93164 1,1.93164 2.6782,0 0.47658,1.80508 -3.75,3.07422 -4.15005,1.24615 -4.79052,1.80469 -5.07617,4.42578 -0.42464,3.89643 -1.68208,5.15299 -3.58203,3.57617 -2.04024,-1.69325 -5.47219,-0.42956 -6.81055,2.50781 -0.8857,1.9439 -0.76208,2.77835 0.63867,4.32617 0.95483,1.05507 1.58823,2.7889 1.4082,3.85157 -0.18003,1.06267 0.32514,2.71826 1.12305,3.67968 1.31158,1.58035 1.0154,2.14733 -3.09766,5.9043 -2.5022,2.28557 -5.39416,4.64702 -6.42578,5.24805 -1.45541,0.84795 -1.8316,2.11295 -1.67773,5.64844 0.13036,2.99532 -0.30641,4.9751 -1.27539,5.77929 -2.45004,2.03335 -1.84371,4.97852 1.02539,4.97852 1.375,0 2.5,0.45 2.5,1 0,0.55 -1.48383,1 -3.29883,1 -1.815,0 -3.84,0.54117 -4.5,1.20117 -1.56748,1.56749 -1.53972,4.51066 0.0488,5.08594 0.99452,0.36017 0.98829,0.89547 -0.0332,2.62304 -1.73267,2.93034 -0.6021,4.37386 3.00976,3.84375 2.56462,-0.37641 3.12966,-0.0317 3.98633,2.42579 0.54904,1.57498 1.85043,3.31921 2.89258,3.87695 2.51182,1.34429 2.64829,5.48865 0.14453,4.38867 -3.09937,-1.36165 -8.67415,-1.62525 -11.5,-0.54492 -3.00246,1.14785 -3.76862,4.4964 -1.25,5.46289 0.97217,0.37306 1.5,1.92306 1.5,4.40625 0,2.10726 0.54117,4.37125 1.20117,5.03125 1.87224,1.87224 -0.43017,3.68255 -2.96094,2.32812 -1.40799,-0.75351 -1.83916,-1.77268 -1.5,-3.54687 0.57372,-3.00125 -1.79545,-3.87194 -9.24414,-3.39453 l -4.87304,0.3125 -1.89844,7.83594 c -2.073,8.55768 -1.71524,12.66406 1.10351,12.66406 0.9844,0 2.66481,0.64186 3.73243,1.42578 1.86593,1.37008 1.82324,1.47021 -1.06055,2.59766 -1.65,0.64509 -4.53051,1.32618 -6.40235,1.51367 -1.87184,0.18748 -4.12183,1.06641 -5,1.95117 -1.46289,1.47389 -1.41871,1.75086 0.53907,3.31055 3.47224,2.7662 5.31297,7.22178 4.08984,9.90625 -1.36383,2.99328 -3.12193,2.91375 -4.54297,-0.20508 -0.62649,-1.375 -1.96429,-2.5 -2.97265,-2.5 -2.2143,0 -6.58123,5.59265 -5.85157,7.49414 0.28618,0.74575 -0.57617,2.0759 -1.91796,2.95508 -3.06214,2.00638 -3.07975,3.60247 -0.0703,6.42968 1.80776,1.6983 3.02269,2.06183 5.12891,1.53321 2.11325,-0.5304 2.65488,-0.36758 2.30469,0.69726 -0.66335,2.01708 -5.19659,2.25714 -8.67383,0.45899 -2.73144,-1.4125 -3.14787,-1.40682 -4.62305,0.0684 -0.89184,0.89183 -1.36305,2.29518 -1.04687,3.11914 0.31618,0.82397 -0.18155,2.05097 -1.10547,2.72656 -1.18135,0.86382 -1.43369,1.79068 -0.84961,3.12305 0.4568,1.04204 0.71615,3.99864 0.57617,6.57031 l -0.25391,4.67578 4.54102,0.68164 c 5.85806,0.87847 8.66843,2.79641 6.81445,4.65039 -1.08976,1.08976 -1.566,0.98134 -2.75586,-0.63086 -1.27304,-1.72489 -1.81953,-1.81108 -4.7539,-0.75 -1.82345,0.65937 -4.07069,1.19727 -4.99414,1.19727 -1.01918,0 -1.67969,0.79634 -1.67969,2.02539 0,1.2396 -0.96944,2.39269 -2.500001,2.97461 -3.331846,1.26677 -3.150556,2.81079 0.707031,6.03125 3.20427,2.67504 3.20502,2.67928 1,3.85937 -1.50855,0.80735 -2.207031,2.11204 -2.207031,4.125 0,2.45946 -0.700088,3.29988 -4.25,5.09961 -4.792616,2.42975 -5.80671,3.57009 -5.013672,5.63672 0.363902,0.94831 1.547764,1.28653 3.5,1 2.801562,-0.41118 2.920563,-0.2825 2.357422,2.5332 -0.326202,1.63101 -0.59375,3.54772 -0.59375,4.25977 0,0.71205 -2.291287,2.05745 -5.09375,2.98828 -3.882312,1.2895 -5.387823,2.38261 -6.31836,4.5957 -0.671712,1.59753 -1.563843,2.56116 -1.984375,2.14063 -0.420531,-0.42053 -0.467785,0.42362 -0.103515,1.875 0.383854,1.52939 0.208559,2.91943 -0.417969,3.30664 -1.741115,1.07607 -1.24462,2.54883 0.859375,2.54883 2.7405,0 3.367978,1.48622 3.765625,8.92187 0.421276,7.87751 1.42468,9.24465 4.595703,6.26563 2.656388,-2.49555 4.951259,-2.79183 6.566406,-0.8457 1.293047,1.55801 0.516138,2.6582 -1.878906,2.6582 -2.551203,0 -6.990234,4.285 -6.990234,6.74804 0,1.85663 0.728236,2.28067 4.855469,2.82813 4.795598,0.63616 4.853086,0.6858 4.75,4.17969 -0.12733,4.31548 1.924063,5.37304 3.541012,1.82422 1.58949,-3.48856 3.16533,-3.27218 2.375,0.32617 -0.81745,3.72183 1.19889,5.16003 3.40821,2.43164 1.86626,-2.30474 5.79771,-3.58902 6.66992,-2.17774 0.33063,0.53497 -0.18825,1.55089 -1.15235,2.25586 -3.01618,2.20548 -0.79381,3.75969 4.28516,2.99805 l 4.55273,-0.68359 -0.77539,2.88476 c -1.47024,5.4683 -1.47576,13.16809 -0.01,14.38477 1.08406,0.89969 1.84565,0.61896 3.50976,-1.29492 1.77164,-2.03757 3.06372,-2.45174 7.78321,-2.49414 4.50589,-0.0405 6.00645,-0.47915 7.36133,-2.15235 1.96573,-2.42757 3.07932,-1.35163 2.8125,2.71485 -0.2857,4.35415 -0.10691,4.90604 2.62304,8.15039 1.83269,2.17803 3.4657,3.07617 5.5918,3.07617 1.65186,0 4.14845,0.9 5.54687,2 1.39842,1.1 3.18531,2 3.97071,2 0.80301,0 1.30056,0.76592 1.13867,1.75 -0.15835,0.9625 0.0649,2.3125 0.49609,3 1.18105,1.8829 6.40707,1.53668 7.54688,-0.5 0.86652,-1.54834 1.10311,-1.42415 2.05078,1.06836 0.8032,2.11254 1.5379,2.66749 2.93945,2.22265 1.47547,-0.4683 1.99683,0.0447 2.47461,2.4336 0.55436,2.77184 0.94694,3.02539 4.66602,3.02539 2.2331,0 5.18378,-0.73591 6.55859,-1.63672 2.45169,-1.6064 2.52284,-1.57754 3.69922,1.53906 1.22734,3.25159 4.35214,4.84214 7.29492,3.71289 1.18362,-0.4542 1.41932,-0.13865 0.9668,1.28711 -0.7835,2.46858 1.58219,4.75721 6.2539,6.05469 4.78131,1.32794 6.21485,1.30874 6.21485,-0.082 0,-0.7167 1.09047,-0.90574 3.00195,-0.52344 4.39486,0.87897 7.99805,-0.78983 7.99805,-3.70312 0,-2.94092 2.16064,-4.90739 4.43359,-4.03516 1.16194,0.44588 1.84525,0.0395 2.19727,-1.30664 0.4447,-1.70054 1.89588,-2.08188 11.1914,-2.94531 5.87369,-0.54555 11.01524,-0.82334 11.42774,-0.61719 0.55965,0.60757 1.0222,1.21961 1.43359,1.83203 0.0819,1.28584 0.13613,2.822 0.15039,4.54492 -0.0276,1.146 -0.0663,2.34617 -0.14843,3.87891 l 0.11328,0.0117 c -0.004,0.18322 -9.7e-4,0.34893 -0.006,0.5332 l 1.04687,0.15039 c -0.24346,8.87074 -1.36064,19.42042 -2.83203,22.1875 -1.65086,2.75649 -4.02289,4.91224 -4.63281,6.70508 -0.11449,-0.018 -0.23,-0.0414 -0.3457,-0.0781 -1.14909,-0.34138 -4.03344,0.68944 -1.58789,1.49024 0.85745,0 2.49418,0.93559 3.63671,2.07812 1.14252,1.14252 2.74626,1.81983 3.56446,1.50586 0.21567,-0.0828 0.82087,-0.18001 1.66211,-0.2832 1.77624,0.3811 3.93947,0.75067 6.57812,1.11523 8.28137,-0.73602 12.7138,-1.11343 14.42578,-2.76367 3.91292,-0.60424 4.22071,-1.45429 1.37696,-2.75 -0.21136,-0.0963 -0.41371,-0.20866 -0.60938,-0.33008 -0.34724,-2.23282 -1.84899,-5.49923 -4.10156,-10.42187 -0.81177,-2.78223 -1.72556,-9.79021 -2.20313,-15.48438 l 0.47461,0.0996 c -0.0197,-0.35326 -0.0199,-0.52539 -0.0371,-0.85156 l 0.59571,0.0859 c -0.0191,-0.46967 -0.0173,-0.67706 -0.0332,-1.08985 l 0.22852,0.0254 c 0,-2.02508 0.0249,-3.41403 0.10937,-4.43359 0.77746,-0.50442 1.45698,-0.94331 2.31446,-1.50195 2.28127,0 7.30079,4.76146 8.01367,7.60156 0.59789,2.38219 0.97414,2.55265 4.35937,1.97852 6.50742,-1.10346 11.86546,-1.36057 14.56641,-0.77735 0.62542,0.71774 1.5713,1.25033 2.74023,1.53711 1.63369,0.83008 4.15529,0.85471 5.17579,-0.0918 1.42565,-0.18589 2.26171,0.0142 2.26171,0.62696 0,1.03928 0.8032,1.3105 3.20313,0.82812 0.60501,0.22985 1.00359,0.14079 1.34766,-0.30468 0.50374,-0.12527 1.05595,-0.27252 1.66406,-0.44141 1.54414,-0.42886 2.80853,-0.97372 3.81836,-1.58984 1.0521,0.38552 2.32226,0.56765 3.58789,0.48242 1.87829,-0.1265 3.98814,0.12515 4.68945,0.55859 0.74435,0.46003 2.0028,0.13069 3.02344,-0.79297 1.47212,-1.33225 2.2598,-1.39096 4.98242,-0.36328 2.65781,1.00321 3.38805,0.97239 4.09766,-0.17578 1.26377,-2.04482 -0.28088,-5.35802 -3.29688,-7.07422 -2.22802,-1.26781 -2.96326,-1.29088 -4.7832,-0.1543 -1.26309,0.78882 -2.4408,1.00438 -3.4375,0.74805 0.77456,-0.67995 1.41657,-1.5875 1.83398,-2.69336 1.17638,-3.1166 1.24753,-3.14546 3.69922,-1.53906 1.37481,0.90081 4.3255,1.63672 6.5586,1.63672 3.71908,0 4.11165,-0.25355 4.66601,-3.02539 0.25941,-1.29703 0.53597,-2.02709 0.9668,-2.36133 2.53211,0.74203 6.67197,0.40461 12.16211,-1.02539 8.80437,-2.29324 12.21252,-4.71892 10.67187,-7.59766 -0.25364,-0.47392 -0.3629,-1.36735 -0.33789,-2.45703 0.95215,-0.32765 1.92116,-0.5332 2.70117,-0.5332 2.1261,0 3.75911,-0.89814 5.5918,-3.07617 2.72995,-3.24435 2.90875,-3.79624 2.62305,-8.15039 -0.26682,-4.06648 0.84677,-5.14242 2.8125,-2.71485 1.35488,1.6732 2.85544,2.11185 7.36133,2.15235 4.71949,0.0424 6.01156,0.45657 7.7832,2.49414 1.66411,1.91388 2.4257,2.19461 3.50976,1.29492 1.46576,-1.21668 1.45853,-8.91647 -0.0117,-14.38477 l -0.77539,-2.88476 4.55273,0.68359 c 5.07897,0.76164 7.30134,-0.79257 4.28516,-2.99805 -0.9641,-0.70497 -1.48298,-1.72089 -1.15235,-2.25586 0.87221,-1.41128 4.80366,-0.127 6.66992,2.17774 2.20932,2.72839 4.22566,1.29019 3.40821,-2.43164 -0.79033,-3.59835 0.78551,-3.81473 2.375,-0.32617 1.61695,3.54882 3.66834,2.49126 3.54101,-1.82422 -0.10308,-3.49389 -0.0456,-3.54353 4.75,-4.17969 4.12724,-0.54746 4.85547,-0.9715 4.85547,-2.82813 0,-2.46305 -4.43903,-6.74804 -6.99023,-6.74804 -2.39505,0 -3.17195,-1.10019 -1.87891,-2.6582 1.61515,-1.94613 3.91002,-1.64985 6.56641,0.8457 3.17102,2.97902 4.17443,1.61188 4.5957,-6.26563 0.39765,-7.43565 1.02513,-8.92187 3.76562,-8.92187 2.104,0 2.6005,-1.47276 0.85938,-2.54883 -0.62653,-0.38721 -0.80182,-1.77725 -0.41797,-3.30664 0.36427,-1.45138 0.31702,-2.29553 -0.10351,-1.875 -0.42053,0.42053 -1.31267,-0.5431 -1.98438,-2.14063 -0.93053,-2.21309 -2.43605,-3.3062 -6.31836,-4.5957 -2.80246,-0.93083 -5.09375,-2.27623 -5.09375,-2.98828 0,-0.71205 -0.26755,-2.62876 -0.59375,-4.25977 -0.56314,-2.8157 -0.44414,-2.94438 2.35742,-2.5332 1.95224,0.28653 3.1361,-0.0517 3.5,-1 0.79304,-2.06663 -0.22105,-3.20697 -5.01367,-5.63672 -3.54991,-1.79973 -4.25,-2.64015 -4.25,-5.09961 0,-2.01296 -0.69848,-3.31765 -2.20703,-4.125 -2.20502,-1.18009 -2.20427,-1.18433 1,-3.85937 3.85759,-3.22046 4.03888,-4.76448 0.70703,-6.03125 -1.53056,-0.58192 -2.5,-1.73501 -2.5,-2.97461 0,-1.22905 -0.66051,-2.02539 -1.67969,-2.02539 -0.73486,0 -2.30317,-0.34695 -3.83398,-0.81836 1.19731,-0.68225 1.21612,-2.14153 -0.27148,-3.88672 l 2.95703,-0.44336 -0.25391,-4.67578 c -0.13998,-2.57167 0.11937,-5.52827 0.57617,-6.57031 0.58408,-1.33237 0.33174,-2.25923 -0.84961,-3.12305 -0.92392,-0.67559 -1.42165,-1.90259 -1.10547,-2.72656 0.31618,-0.82396 -0.15503,-2.22731 -1.04687,-3.11914 -1.47518,-1.47522 -1.89161,-1.48086 -4.62305,-0.0684 -1.20659,0.62395 -2.53593,0.98682 -3.79101,1.13086 -0.0448,-0.84316 -0.097,-1.6289 -0.18164,-2.16016 0.8975,-0.19331 1.7236,-0.71242 2.73242,-1.66016 3.00945,-2.82721 2.99182,-4.4233 -0.0703,-6.42968 -1.3418,-0.87918 -2.20414,-2.20933 -1.91796,-2.95508 0.10445,-0.27222 0.0949,-0.62521 0.0117,-1.02149 4.90069,-0.1971 6.98681,-2.03887 6.61132,-5.88671 -0.24694,-2.5305 -0.70725,-3.04304 -2.55273,-2.84766 -2.77796,0.29411 -2.8461,-0.42232 -0.24805,-2.57813 1.10049,-0.91316 2.16843,-3.01015 2.37305,-4.66015 0.20462,-1.65 1.11458,-4.69597 2.02148,-6.76953 1.62008,-3.70424 1.60472,-3.81809 -0.87304,-6.49024 -1.387,-1.49582 -2.52344,-3.26859 -2.52344,-3.93945 0,-0.67086 -1.22963,-2.35848 -2.73242,-3.75195 l -2.73047,-2.53516 2.23047,-1.5625 c 1.22779,-0.85998 2.23242,-2.16746 2.23242,-2.9043 0,-1.94567 -6.72296,-7.54687 -9.05859,-7.54687 -1.20248,0 -2.36704,-0.98931 -2.94141,-2.5 -0.52277,-1.375 -1.66534,-2.5 -2.54102,-2.5 -1.15221,0 -1.41234,-0.56867 -0.93945,-2.0586 0.78984,-2.48857 -1.86236,-8.4746 -4.14258,-9.3496 -1.26956,-0.48718 -1.51456,-1.5157 -1.09961,-4.60938 0.60008,-4.47389 0.12654,-5.00561 -5.76758,-6.48242 -2.78914,-0.69884 -4.08383,-1.60232 -4.30078,-3 -0.17074,-1.1 -0.81175,-3.00744 -1.42383,-4.24024 -0.83521,-1.68225 -0.80048,-2.92864 0.14063,-4.99414 1.16241,-2.55122 1.02643,-2.94107 -1.86328,-5.35351 -1.91193,-1.59614 -2.89456,-3.18145 -2.54297,-4.09766 0.93703,-2.44187 -1.89766,-3.84277 -8.26758,-4.08594 -4.28313,-0.16351 -5.85775,-0.58168 -5.51953,-1.46679 0.26027,-0.68111 -0.0741,-3.52328 -0.74414,-6.31641 -0.60542,-2.52371 -1.44395,-4.40748 -2.78516,-6.16406 -0.0934,-0.3554 -0.23903,-0.74454 -0.44531,-1.19727 -0.76726,-1.68396 -2.22225,-2.81422 -3.70898,-3.15625 -3.05256,-3.36214 -3.84677,-6.39752 -4.42774,-14.41211 -0.39826,-5.49411 -1.00394,-7.82172 -2.27344,-8.75 -2.26942,-1.65943 -3.30663,-1.59744 -3.8789,0.23438 -1.58352,5.06871 -1.63213,5.13587 -2.34766,3.22461 -0.36556,-0.97646 -1.96422,-2.44931 -3.55273,-3.27344 -2.6923,-1.39678 -3.04721,-1.34829 -5.22461,0.69727 -2.77334,2.60542 -3.50538,2.11362 -3.93164,-2.63672 -0.23113,-2.57575 -0.50458,-3.96074 -1.29297,-4.70118 1.89481,-1.98507 1.71407,-3.60829 -0.58008,-5.04101 -1.32058,-0.82472 -2,-2.33248 -2,-4.4375 0,-0.10829 -0.007,-0.20892 -0.01,-0.31445 1.18726,-2.25566 1.57075,-4.62633 0.70312,-6.01563 -0.60799,-0.9735 -0.86252,-2.69774 -0.56641,-3.83008 0.3577,-1.36785 -0.30396,-2.89966 -1.9707,-4.5664 -1.47414,-1.47415 -2.48057,-2.06473 -3.98828,-2.10938 -0.10388,-0.24091 -0.22065,-0.46441 -0.36328,-0.64453 -1.7188,-2.17059 -3.61431,-2.85485 -5.7207,-2.06445 -0.0113,-0.0598 -0.0216,-0.10209 -0.0332,-0.16407 -0.39522,-2.10671 -1.52017,-4.05009 -2.71484,-4.68945 -0.81076,-0.43391 -1.25928,-0.72554 -1.41016,-1.04492 0.007,-0.20067 0.0176,-0.35877 0.0234,-0.57227 0.13935,-0.31041 0.44282,-0.68662 0.92969,-1.2246 2.09025,-2.3097 1.99564,-3.67819 -0.41797,-6.0918 -0.1335,-0.1335 -0.26662,-0.23565 -0.40039,-0.35547 0.0598,-6.46948 -0.13735,-6.64453 -1.45508,-6.64453 -0.76616,0 -1.65216,-0.675 -1.96875,-1.5 -0.69101,-1.80076 -2.9718,-1.93212 -5.55273,-0.32031 -1.51579,0.94663 -2.4111,0.83772 -4.53321,-0.55274 -1.45402,-0.95271 -3.43073,-1.48167 -4.39453,-1.17578 -1.31227,0.4165 -2.06154,-0.29953 -2.98437,-2.85156 -1.17629,-3.25295 -2.92565,-4.67387 -4.97852,-4.10547 -0.37892,-0.53123 -1.28356,-0.42532 -3.42578,-0.0234 -0.0648,0.0122 -0.13689,0.0383 -0.20313,0.0527 -0.008,-0.009 -0.0159,-0.0159 -0.0234,-0.0254 -1.33893,-1.6895 -5.54102,-0.19469 -5.54102,1.97071 0,0.40195 -0.10667,0.76329 -0.27344,1.03711 -0.21231,0.15499 -0.42512,0.31584 -0.63867,0.48047 -0.0294,0.004 -0.0578,0.0137 -0.0879,0.0137 -0.55,0 -1,-1.15434 -1,-2.56641 0,-1.98594 -0.39635,-2.44466 -1.75,-2.02344 -0.9625,0.29951 -2.37944,0.15074 -3.14844,-0.33203 -0.25706,-0.16136 -0.52631,-0.23556 -0.8125,-0.22656 -0.37608,-0.1473 -0.64611,-0.21444 -0.83593,-0.19141 l -0.002,0 c -0.28166,0.0361 -0.38892,0.27225 -0.42773,0.70899 -0.29809,0.21389 -0.6236,0.51503 -0.9668,0.86523 -0.32069,-1.07219 -0.90015,-1.99515 -1.85742,-3.13281 -0.66625,-0.79178 -1.2425,-1.36125 -1.75977,-1.73242 -0.0389,-0.43778 -0.1465,-0.67374 -0.42968,-0.70899 z m 83.01172,84.33985 c 0.24254,0 0.43945,0.45 0.43945,1 0,0.55 -0.47614,1 -1.05859,1 -0.58248,0 -0.78133,-0.45 -0.44141,-1 0.33992,-0.55 0.81801,-1 1.06055,-1 z M 197.1582,252.08984 c 0.85074,0.10809 1.94727,1.0409 1.94727,1.92578 0,0.51754 -0.42191,0.93946 -0.93945,0.93946 -1.17986,0 -2.44288,-1.9497 -1.72657,-2.66602 0.17908,-0.17908 0.43518,-0.23525 0.71875,-0.19922 z m 193.65821,60.17383 c 0.22143,0.0557 0.28906,0.40591 0.28906,1.07031 0,0.89234 -0.675,1.6211 -1.5,1.6211 -0.825,0 -1.5,-0.1693 -1.5,-0.37696 0,-0.20765 0.675,-0.93835 1.5,-1.62304 0.61425,-0.50979 0.9895,-0.74714 1.21094,-0.69141 z m 7.56445,33.85938 c 0.25739,0.009 0.82363,0.15322 1.72461,0.39257 1.375,0.3653 2.92867,1.06456 3.45117,1.55274 1.6866,1.57583 -1.96415,0.97125 -4.00976,-0.66406 -1.16594,-0.93208 -1.59501,-1.29588 -1.16602,-1.28125 z m -4.53125,9.30664 c 0.23754,0.51193 0.21198,1.73269 0.0645,3.76758 -0.1053,1.45239 -0.29274,2.49136 -0.58789,3.21875 -0.13833,-0.2317 -0.27656,-0.46695 -0.4082,-0.75586 -0.76071,-1.66957 -0.3333,-4.02324 0.93164,-6.23047 z m -271.18359,29.52539 c 0.24254,0 0.43945,0.45 0.43945,1 0,0.55 -0.47614,1 -1.05859,1 -0.58246,0 -0.78133,-0.45 -0.44141,-1 0.33992,-0.55 0.81801,-1 1.06055,-1 z m 15,9 c 0.85748,0 1.27937,0.45 0.93945,1 -0.33992,0.55 -1.04106,1 -1.55859,1 -0.51755,0 -0.94141,-0.45 -0.94141,-1 0,-0.55 0.70309,-1 1.56055,-1 z m 270.82812,9.19726 c 5.9e-4,0 10e-4,1e-5 0.002,0 -0.0917,0.11464 -0.1802,0.22121 -0.27929,0.35547 -0.29022,0.39323 -0.53716,0.69337 -0.76172,0.91211 -0.21702,-0.16863 -0.34961,-0.36496 -0.34961,-0.57617 0,-0.45578 0.47184,-0.68766 1.38867,-0.69141 z m -300.06055,11.99805 c 0.8836,-0.0534 1.63141,0.39702 2.35938,1.39258 0.76915,1.05186 1.82914,1.91211 2.35547,1.91211 0.52632,0 0.98076,0.45 1.00976,1 0.10225,1.93584 -2.58552,1.4946 -5.55273,-0.91211 -2.74699,-2.2281 -2.84029,-2.49476 -1.10547,-3.17188 0.32875,-0.12831 0.63906,-0.2029 0.93359,-0.2207 z m 0.70899,16.51953 c 0.18543,0.005 0.3229,0.0599 0.39453,0.17578 0.30324,0.49065 -0.55338,1.61483 -1.9043,2.5 -2.7162,1.77972 -3.54319,1.98282 -3.49609,0.85938 0.0483,-1.15343 3.70787,-3.56983 5.00586,-3.53516 z m 302.46484,4 c 1.29799,-0.0347 4.95756,2.38173 5.00586,3.53516 0.0471,1.12344 -0.77989,0.92034 -3.49609,-0.85938 -1.35092,-0.88517 -2.20754,-2.00935 -1.9043,-2.5 0.0716,-0.11588 0.2091,-0.17078 0.39453,-0.17578 z m -278.42383,3.32617 c 0.52019,0.0586 0.92188,0.51624 0.92188,1.33789 0,2.45179 -2.30006,3.32032 -5.70117,2.15235 -4.6785,-1.60664 -5.37022,-2.81524 -1.16211,-2.0293 2.25883,0.42188 3.89011,0.26502 4.30859,-0.41211 0.47477,-0.76819 1.11263,-1.1074 1.63281,-1.04883 z m -27.01757,28.95899 c 0.58246,0 0.77937,0.45 0.43945,1 -0.33992,0.55 -0.81605,1 -1.05859,1 -0.24255,0 -0.44141,-0.45 -0.44141,-1 0,-0.55 0.47809,-1 1.06055,-1 z m 308.41796,4 c 0.58246,0 1.06055,0.45 1.06055,1 0,0.55 -0.19886,1 -0.44141,1 -0.24253,0 -0.71867,-0.45 -1.05859,-1 -0.33992,-0.55 -0.14301,-1 0.43945,-1 z m -211.15429,13.55859 c 0.38473,-0.006 0.73229,0.0975 0.94922,0.31445 0.43388,0.43388 0.42905,1.75907 -0.01,2.94532 l -0.79687,2.15625 -1.32618,-2.1211 c -1.10096,-1.76289 -1.09867,-2.26026 0.01,-2.94531 0.3668,-0.22669 0.7891,-0.34317 1.17383,-0.34961 z m 74.36523,23.31445 c 1.23556,0.0824 2.31055,0.95259 2.31055,2.25 0,0.48267 -1.35,0.87696 -3,0.87696 -3.41661,0 -3.76739,-0.71731 -1.25195,-2.55664 0.43889,-0.32093 0.9233,-0.49947 1.40429,-0.55664 0.18038,-0.0214 0.3606,-0.0254 0.53711,-0.0137 z m -46.6289,4.12696 c 0.58246,0 0.77937,0.45 0.43945,1 -0.33992,0.55 -0.81606,1 -1.05859,1 -0.24255,0 -0.44141,-0.45 -0.44141,-1 0,-0.55 0.47809,-1 1.06055,-1 z"
       id="path4161"
       inkscape:connector-curvature="0" />
  </g>
</svg>
