<?xml version="1.0" encoding="UTF-8" standalone="no"?>
<!-- Created with Inkscape (http://www.inkscape.org/) -->

<svg
   xmlns:dc="http://purl.org/dc/elements/1.1/"
   xmlns:cc="http://creativecommons.org/ns#"
   xmlns:rdf="http://www.w3.org/1999/02/22-rdf-syntax-ns#"
   xmlns:svg="http://www.w3.org/2000/svg"
   xmlns="http://www.w3.org/2000/svg"
   xmlns:sodipodi="http://sodipodi.sourceforge.net/DTD/sodipodi-0.dtd"
   xmlns:inkscape="http://www.inkscape.org/namespaces/inkscape"
   width="45.702919mm"
   height="165.76031mm"
   viewBox="0 0 161.93948 587.3397"
   id="svg2"
   version="1.1"
   inkscape:version="0.91 r13725"
   sodipodi:docname="Redwood.svg">
  <defs
     id="defs4" />
  <sodipodi:namedview
     id="base"
     pagecolor="#ffffff"
     bordercolor="#666666"
     borderopacity="1.0"
     inkscape:pageopacity="0.0"
     inkscape:pageshadow="2"
     inkscape:zoom="1.0913616"
     inkscape:cx="80.96974"
     inkscape:cy="293.66986"
     inkscape:document-units="px"
     inkscape:current-layer="layer1"
     showgrid="false"
     inkscape:window-width="1440"
     inkscape:window-height="838"
     inkscape:window-x="-8"
     inkscape:window-y="-8"
     inkscape:window-maximized="1"
     fit-margin-top="0"
     fit-margin-left="0"
     fit-margin-right="0"
     fit-margin-bottom="0" />
  <metadata
     id="metadata7">
    <rdf:RDF>
      <cc:Work
         rdf:about="">
        <dc:format>image/svg+xml</dc:format>
        <dc:type
           rdf:resource="http://purl.org/dc/dcmitype/StillImage" />
        <dc:title></dc:title>
      </cc:Work>
    </rdf:RDF>
  </metadata>
  <g
     inkscape:label="Layer 1"
     inkscape:groupmode="layer"
     id="layer1"
     transform="translate(-278.07028,-149.64648)">
    <path
       style="fill:#000000"
       d="m 350.17773,149.64648 -0.26367,0.3086 c -2.81798,0.0887 -6.26409,4.763 -5.6582,7.72656 0.33966,1.66139 0.12974,2.57813 -0.58789,2.57813 -0.71973,0 -0.90557,0.829 -0.52539,2.34375 0.33921,1.35154 0.18373,2.34375 -0.36719,2.34375 -0.52545,0 -0.95508,0.87345 -0.95508,1.93945 0,1.40657 -0.44999,1.80293 -1.64062,1.44922 -6.23095,-1.85113 -6.50596,-1.79637 -7.14649,1.40625 -0.33627,1.68138 -0.25981,3.40816 0.16992,3.83789 0.42974,0.42972 3.58652,1.04306 7.01563,1.36328 3.6694,0.34265 6.00351,0.95753 5.67187,1.49414 -0.33152,0.53644 -2.76465,0.66251 -5.91015,0.30664 l -5.3457,-0.60352 -1.15235,3.84571 c -0.88983,2.96984 -0.89911,4.15356 -0.041,5.1875 0.91412,1.10145 0.3698,1.66619 -3.06055,3.18359 -4.03467,1.78473 -7.04216,5.68582 -5.85938,7.59961 0.29549,0.47811 2.21678,0.60168 4.26954,0.27344 3.01159,-0.48158 3.98568,-0.25561 5.04296,1.16992 1.11472,1.50298 1.59846,1.58967 3.24219,0.58594 1.06266,-0.6489 1.93164,-0.78497 1.93164,-0.30274 0,0.48223 -1.33483,1.5433 -2.96679,2.35743 -2.70768,1.35081 -3.11255,1.34957 -4.6211,-0.0156 -2.18092,-1.9737 -5.37835,-0.92768 -6.54492,2.14063 -0.70231,1.84727 -1.40145,2.27323 -3.16797,1.93554 -3.27449,-0.62596 -3.99752,0.15871 -4.74414,5.14258 -0.72732,4.85498 0.36779,5.7121 4.22266,3.30469 1.53818,-0.9606 2.04611,-0.86478 3.10547,0.58398 0.88976,1.21682 1.87303,1.54032 3.30468,1.08594 1.12087,-0.35575 2.03711,-1.021 2.03711,-1.47852 0,-1.21629 6.54669,-2.24627 7.59766,-1.19531 0.56748,0.56749 0.18674,1.79126 -1.03906,3.34961 -1.35181,1.71857 -1.75019,3.17379 -1.33008,4.84766 0.71179,2.83599 0.55646,2.86073 -5.29297,0.7832 -4.5193,-1.60512 -4.54471,-1.60421 -6.92383,0.63086 -1.31312,1.23361 -2.38672,2.75067 -2.38672,3.37109 0,0.62042 -0.62773,1.64877 -1.39453,2.28516 -0.8815,0.73158 -1.10908,1.66511 -0.62109,2.53711 0.53473,0.9555 -0.16996,2.34708 -2.29297,4.5332 -2.82704,2.91107 -2.98051,3.3785 -1.98438,6.01758 1.25645,3.32869 3.40132,3.66216 5.88477,0.91797 1.3823,-1.52743 2.42816,-1.81328 4.91016,-1.34766 2.06864,0.38809 3.87323,0.11897 5.24414,-0.77929 2.01276,-1.31881 2.07413,-1.26788 1.6914,1.33984 -0.47247,3.21909 1.84833,4.60268 4.71485,2.8125 1.51946,-0.94891 2.15448,-0.86391 3.64648,0.48633 0.99407,0.89959 1.48093,1.95874 1.08203,2.35351 -0.59523,0.58908 -11.10594,2.67002 -13.61523,2.69532 -0.38671,0.004 -0.70313,0.84961 -0.70313,1.88086 0,1.25 -0.625,1.875 -1.875,1.875 -1.18056,0 -1.875,0.625 -1.875,1.6875 0,0.92813 -0.46915,2.15663 -1.04297,2.73046 -1.64534,1.64533 -0.27179,2.78441 4.0586,3.36524 2.58761,0.34708 4.49839,0.11572 5.41406,-0.65625 2.03104,-1.71234 7.46149,-3.73383 8.1582,-3.03711 0.32504,0.32504 0.10982,1.64627 -0.47851,2.9375 -0.77153,1.69332 -1.80197,2.34766 -3.69922,2.34766 -1.93988,0 -3.07477,0.75399 -4.32422,2.86914 -1.42134,2.40612 -2.10713,2.7762 -4.25391,2.30468 -2.11693,-0.46495 -2.75039,-0.14201 -3.66406,1.86329 -0.98805,2.16852 -1.46275,2.35555 -4.51367,1.7832 l -3.41016,-0.63867 0.67383,3.64257 c 0.37154,2.00422 1.11068,3.80117 1.64063,3.99219 0.52995,0.191 1.83551,1.35117 2.90234,2.57813 2.38641,2.74461 3.46109,2.78149 6.69922,0.23437 1.8842,-1.4821 2.8079,-1.72335 3.59375,-0.9375 0.78581,0.78585 0.76909,1.34809 -0.0664,2.1836 -1.76003,1.76002 -1.32346,2.81362 0.87696,2.11523 1.78224,-0.56566 1.93533,-0.36556 1.38867,1.8125 -0.45208,1.80122 -0.2515,2.44727 0.75586,2.44727 0.75283,0 1.62859,-0.42188 1.94726,-0.9375 0.31867,-0.51563 1.26086,-0.9375 2.09375,-0.9375 1.21079,0 1.07298,0.46981 -0.6875,2.34375 -2.71243,2.88726 -7.42039,3.14581 -9.78125,0.5371 -2.81759,-3.1134 -8.09194,-3.35562 -13.48828,-0.62109 -7.17969,3.63822 -7.86051,8.70295 -1.04687,7.78906 2.69092,-0.36093 3.70447,-0.11624 4.13281,1 0.59705,1.55588 -2.98513,5.17859 -6.65039,6.72461 -2.17852,0.9189 -3.78062,5.42642 -2.41406,6.79297 0.88098,0.88098 12.05157,-2.38574 13.73242,-4.01562 0.48985,-0.47499 2.62031,-0.86328 4.73437,-0.86328 2.11406,0 4.30516,-0.46141 4.86914,-1.02539 0.56398,-0.56395 1.80852,-0.83965 2.76563,-0.61329 1.64167,0.38828 1.63406,0.45447 -0.13477,1.16797 -1.03125,0.41599 -2.50781,1.28503 -3.28125,1.93164 -0.77344,0.64661 -4.57031,2.22944 -8.4375,3.51758 -4.93641,1.6443 -7.13473,2.85714 -7.3789,4.07031 -0.19129,0.95041 -1.35144,2.65808 -2.57813,3.79493 -1.22668,1.13685 -2.23047,2.71176 -2.23047,3.5 0,0.78823 -1.14813,1.72217 -2.55078,2.07421 -3.56271,0.89419 -8.69922,4.05259 -8.69922,5.34961 0,0.59527 -1.16015,2.17051 -2.57812,3.5 -2.10396,1.97269 -3.0747,2.28258 -5.2793,1.68555 -2.89819,-0.78486 -8.08008,-0.11254 -8.08008,1.04883 0,0.38803 0.63281,1.23115 1.40625,1.87305 0.77344,0.6419 1.40625,1.73848 1.40625,2.43554 0,0.69707 1.34436,1.96239 2.98828,2.8125 2.30711,1.19305 3.37452,1.30485 4.67579,0.49219 0.92718,-0.57905 2.88482,-1.05273 4.35156,-1.05273 1.86974,0 3.03368,-0.68447 3.89453,-2.29297 0.71609,-1.33804 2.23361,-2.41255 3.63867,-2.57813 1.67853,-0.19782 2.57433,-0.99287 2.95508,-2.62109 0.47445,-2.02891 0.98701,-2.2995 3.89648,-2.04883 2.45972,0.21191 3.51349,-0.13201 3.95899,-1.29297 0.44795,-1.16732 1.30508,-1.44173 3.26953,-1.04883 1.63389,0.32677 3.43733,-0.0122 4.67187,-0.87695 1.78883,-1.25294 2.01172,-1.25252 2.01172,0 0,0.77455 -1.16015,1.9622 -2.57812,2.63867 -1.69255,0.80748 -2.67678,2.08944 -2.86719,3.73242 -0.15951,1.37642 -0.8978,3.00655 -1.64062,3.62305 -0.74284,0.61649 -1.35157,1.85809 -1.35157,2.75977 0,1.25797 -1.08309,1.78366 -4.65625,2.25781 -2.56118,0.33976 -4.98697,1.17672 -5.39062,1.85937 -0.40366,0.68265 -1.68876,1.74098 -2.85547,2.35352 -1.7936,0.94168 -1.96012,1.4167 -1.07617,3.06836 0.93654,1.74996 1.59673,1.88883 6.33984,1.34375 3.24646,-0.37308 5.74176,-1.2042 6.45117,-2.15039 1.0739,-1.43229 1.2795,-1.43318 2.86524,0.002 1.50752,1.36428 1.93817,1.38736 3.64843,0.18945 1.73596,-1.21591 2.11289,-1.16442 3.61914,0.5 1.30159,1.43822 2.38669,1.72706 4.80469,1.27344 3.52509,-0.66132 4.0968,0.43751 1.17578,2.26172 -1.53385,0.95787 -2.23985,0.97487 -3.32031,0.0781 -1.0396,-0.86277 -1.63501,-0.8748 -2.45703,-0.0527 -0.5969,0.5969 -2.9,1.08399 -5.11719,1.08399 -2.21719,0 -4.03125,0.32148 -4.03125,0.71484 0,0.39336 -0.94921,1.13163 -2.10937,1.64062 -1.3273,0.58231 -2.22266,1.91047 -2.41406,3.58204 -0.29972,2.61729 -0.37264,2.64797 -4.92774,2.02148 -4.62114,-0.63557 -4.62267,-0.63471 -5.21875,2.3457 -0.71,3.54996 -2.46138,4.42675 -6.10156,3.05274 -2.26025,-0.85315 -2.82553,-0.74974 -3.58008,0.66015 -0.49263,0.92049 -0.60865,1.96167 -0.25781,2.3125 0.35084,0.35084 0.65417,1.95784 0.67187,3.57227 l 0.0312,2.93555 6.83985,0.24609 c 1.89162,0.0682 3.22451,0.0967 4.24414,0.0625 0.71443,0.10987 1.17852,0.0744 1.49804,-0.14453 1.15924,-0.2375 1.517,-0.76907 1.92188,-1.83399 0.45222,-1.18943 1.52184,-2.42967 2.37695,-2.75781 4.52678,-1.73709 7.36002,0.77501 4.15039,3.67969 -0.99648,0.9018 -1.8125,2.43546 -1.8125,3.41016 0,1.49867 -0.47994,1.68237 -3.10742,1.18945 -4.84839,-0.90956 -5.87283,1.16408 -2.74609,5.55859 2.50155,3.51583 2.55546,3.5377 7.46875,2.92383 3.93537,-0.49169 4.94726,-0.34752 4.94726,0.70898 0,3.43588 -7.90512,7.00348 -12.20117,5.50586 -3.36528,-1.17314 -4.04722,-0.28185 -3.56836,4.66407 0.25997,2.68516 0.72724,3.18846 3.4668,3.74414 3.52105,0.71421 8.18397,4.77843 7.23828,6.30859 -0.41357,0.66916 -1.84153,0.55034 -4.45313,-0.37109 -5.03118,-1.7751 -5.48242,-1.72337 -5.48242,0.62695 0,1.09159 1.56957,3.42058 3.49219,5.18164 3.15848,2.89306 3.86919,3.14155 7.41797,2.60938 3.39486,-0.50909 4.07029,-0.31377 5.01172,1.44531 0.93086,1.73935 0.74573,2.35179 -1.2793,4.22851 -1.99649,1.85029 -2.53841,1.98696 -3.46289,0.87305 -1.7656,-2.12743 -2.57229,-1.5952 -5.08594,3.36524 -1.84626,3.64343 -2.87204,4.6875 -4.60351,4.6875 -2.15072,0 -3.36524,1.54475 -3.36524,4.27734 0,0.72079 1.7103,2.18351 3.80078,3.25 l 3.80079,1.9375 3.10742,-1.91992 c 3.9723,-2.45501 4.45025,-2.41332 3.76367,0.32226 -0.89815,3.5785 1.29303,3.86496 5.05664,0.66016 3.79626,-3.2326 11.30505,-7.10329 15.64258,-8.0625 2.55945,-0.56601 2.31774,-0.17592 -2.82813,4.57812 -3.09375,2.85816 -6.52212,5.21418 -7.61914,5.23438 -1.09702,0.0201 -2.48198,0.62194 -3.07617,1.33789 -0.59419,0.71596 -3.49199,1.58376 -6.44141,1.92969 -7.74108,0.90794 -8.44745,1.2426 -9.11914,4.30078 -0.33332,1.51759 -0.99669,2.99881 -1.47265,3.29297 -0.47595,0.29416 -0.86524,1.35465 -0.86524,2.35547 0,2.21285 2.50795,2.39726 5.36719,0.39453 3.01509,-2.11185 12.5473,-0.24066 10.28711,2.01953 -0.25923,0.25924 -1.30129,-0.045 -2.31445,-0.67774 -2.29777,-1.43499 -4.92429,-0.50523 -5.57227,1.97266 -0.27047,1.03429 -1.47925,2.12888 -2.68555,2.43164 -1.2063,0.30276 -2.68329,1.14044 -3.2832,1.86328 -0.59991,0.72285 -2.02782,1.31446 -3.17383,1.31446 -1.14601,0 -2.72942,0.73827 -3.51758,1.64062 -1.90619,2.18233 -3.85098,8.39591 -3.17773,10.15039 0.47495,1.23776 0.86079,1.23285 3.32031,-0.0391 3.5656,-1.84383 3.62653,-1.83432 3.98242,0.66016 0.40228,2.81965 3.03082,3.15745 6.05665,0.77734 1.89359,-1.4895 2.77627,-1.69875 3.75,-0.89063 1.68297,1.39675 1.56427,2.74658 -0.45118,5.15821 -2.71213,3.24526 -5.39701,3.59523 -8.13476,1.05664 -2.04216,-1.8936 -3.21012,-2.1996 -10.73047,-2.33399 -0.56222,-0.22884 -1.00893,-0.23862 -1.42578,-0.0254 -0.0865,-0.001 -0.14834,-0.003 -0.23633,-0.004 -8.57285,-0.11758 -10.43004,0.1347 -13.08789,1.77734 -1.70358,1.05286 -3.09766,2.46994 -3.09766,3.15039 0,1.8535 6.53557,5.34603 9.79883,5.23633 1.57192,-0.0528 4.43611,-0.16264 6.36524,-0.24414 1.92912,-0.0815 3.73143,0.0752 4.00585,0.34961 1.05537,1.05537 -0.73794,3.45919 -3.40625,4.56445 -1.53415,0.63546 -3.41341,2.36169 -4.17578,3.83594 -1.0536,2.03745 -2.05431,2.67969 -4.17382,2.67969 -2.52959,0 -2.78907,0.28718 -2.78907,3.09375 0,1.70156 0.50625,3.6 1.125,4.21875 1.61961,1.61962 4.26172,1.38404 5.30078,-0.47266 0.74106,-1.32421 1.2923,-1.41698 3.21485,-0.54102 2.06853,0.94249 2.65596,0.70943 5.42968,-2.15234 1.71076,-1.76505 3.82029,-3.20898 4.6875,-3.20898 0.86722,0 2.20356,-0.94421 2.97071,-2.09961 1.23369,-1.85803 1.65393,-1.96597 3.63086,-0.92383 1.22933,0.64804 3.91754,1.27781 5.97461,1.39844 3.0908,0.18127 3.90284,-0.14747 4.67578,-1.89063 1.23764,-2.7912 2.36523,-2.67943 2.36523,0.23438 0,0.0863 0.007,0.15921 0.01,0.24023 -1.2e-4,0.006 -0.004,0.0177 -0.004,0.0234 -1.8e-4,0.0383 0.008,0.0722 0.01,0.10937 0.0756,1.40266 0.59198,1.97071 1.78125,1.97071 2.62705,0 10.09938,-3.38781 10.68359,-4.84375 0.41571,-1.03606 0.65445,-1.03126 1.39258,0.0215 1.39159,1.98469 -0.78408,6.48593 -3.72266,7.70312 -1.42377,0.58975 -3.07601,1.65899 -3.67187,2.37696 -0.59585,0.71795 -2.71939,1.30469 -4.71875,1.30469 -1.99937,0 -3.63477,0.40659 -3.63477,0.90234 0,0.49575 -1.66196,1.34951 -3.69336,1.89648 -2.35787,0.6349 -3.91318,1.68869 -4.30273,2.91602 -0.57795,1.82096 -0.70421,1.83802 -2.37695,0.32422 -1.63547,-1.48 -1.93855,-1.48519 -4.08594,-0.0781 -1.41998,0.93041 -2.53977,1.15952 -2.89063,0.5918 -0.31513,-0.50988 -1.36306,-0.92773 -2.32812,-0.92773 -0.18202,0 -0.40074,0.0356 -0.63281,0.0859 -0.40946,-0.0104 -0.79709,0.12575 -1.18946,0.39063 -2.6535,1.04649 -6.4753,3.63336 -7.0625,5.04687 -0.97424,2.34518 0.45541,4.66619 3.06055,4.9668 2.33377,0.26929 2.50764,0.57879 2.21094,3.93359 -0.26985,3.05112 -0.26438,3.52878 1.36328,3.20899 0.32743,0.0568 0.70552,-0.0119 1.11133,-0.25 6.93815,-1.69369 7.50684,-1.66576 8.57812,0.33594 0.85794,1.60309 0.78691,1.96875 -0.38476,1.96875 -0.79157,0 -2.25115,0.81365 -3.24415,1.80664 -1.11594,1.11595 -2.54336,1.61131 -3.73828,1.29882 -1.22376,-0.32002 -2.13554,0.0199 -2.48242,0.92383 -0.30139,0.7854 -1.52582,1.67276 -2.7207,1.97266 -4.06644,1.02061 -3.69308,5.44303 0.43359,5.13672 2.8968,-0.21504 3.67719,0.15034 3.16602,1.48242 -0.28926,0.75382 -1.29254,1.61309 -2.22852,1.91016 -0.93598,0.29707 -1.94243,1.16768 -2.23633,1.93359 -0.67294,1.75365 4.1094,11.66016 5.62891,11.66016 1.18756,0 5.98242,-5.22801 5.98242,-6.52344 0,-1.44207 5.12204,-1.81148 5.90625,-0.42578 0.36353,0.64235 1.28374,1.18208 2.16016,1.30078 l 0.38672,0.49219 0.51953,-0.56641 c 2.06169,-0.61604 5.08984,-4.27946 5.08984,-6.40234 0,-1.64646 1.71736,-3.8125 3.02344,-3.8125 0.42527,0 1.17138,1.04768 1.6582,2.32812 0.77813,2.04668 1.34179,2.28484 4.66407,1.96484 3.60499,-0.34724 3.78578,-0.23853 3.91992,2.35938 0.0774,1.49789 0.18277,3.22905 0.23437,3.84766 0.0516,0.61862 -2.5951,2.0887 -5.88281,3.26562 -3.28771,1.17693 -6.46729,2.54542 -7.06445,3.04102 -0.59716,0.4956 -3.66543,1.31647 -6.81836,1.82421 -8.47641,1.3651 -12.72306,3.8616 -14.83789,8.72266 -0.97004,2.22968 -2.52485,5.17237 -3.45508,6.54102 -0.93022,1.36866 -1.69141,2.73974 -1.69141,3.04687 0,1.11417 2.61173,0.52388 3.75,-0.84765 1.6305,-1.96463 2.63177,-1.75216 2.98242,0.63086 0.16477,1.11976 0.82618,2.2096 1.47071,2.42187 1.38687,0.45673 1.58761,-2.73075 0.25586,-4.0625 -0.59645,-0.59645 -0.51468,-2.5328 0.23437,-5.55273 1.06218,-4.28234 1.47414,-4.76238 5.36914,-6.25196 2.32031,-0.88737 5.64336,-1.63801 7.38477,-1.66601 1.74142,-0.028 5.82463,-1.35922 9.07422,-2.95899 6.25843,-3.08101 7.91601,-2.98517 7.91601,0.45703 0,0.76639 0.47421,1.87883 1.17188,2.90821 l -0.33399,11.34179 c -1.15728,1.2335 -1.84917,4.40406 -1.51562,7.75586 0.23827,2.39428 -0.002,10.99195 -0.53516,19.10743 -0.59422,9.05209 -0.76152,12.6472 -0.3418,14.95703 L 330.75,636.08984 c -0.1556,0.0607 -0.32638,0.15353 -0.52734,0.32032 -1.26506,1.0499 -0.6645,8.7289 -0.7466,13.3159 -0.0447,2.49721 -0.38647,8.90288 0.89699,13.73292 l 0.0625,1.94727 -0.88086,7.7793 c -0.28005,0.0683 -0.5778,0.34765 -0.89649,0.85156 -0.90933,1.43786 -1.02623,2.42153 -1.40234,11.69141 -0.12552,3.09375 -0.53291,8.203 -0.9043,11.35351 -0.18118,1.53705 -0.26055,2.88183 -0.24804,4.03711 l -4.36524,20.1875 -1.16211,3.09766 c -1.46021,2.94403 -3.10847,5.12321 -4.73828,6.13672 -1.82219,1.13315 -1.45029,3.07041 0.9043,4.71289 l 0,-0.002 c 1.16016,0.80928 3.31876,1.49449 4.79687,1.52149 2.23584,0.0409 2.6052,-0.26625 2.19727,-1.82617 -0.26968,-1.03125 -0.14198,-1.875 0.2832,-1.875 1.8429,0 3.73828,1.2387 3.73828,2.44335 0,1.81283 5.3128,1.69852 6.33985,-0.13671 0.82652,-1.47691 3.97265,-0.99775 3.97265,0.60547 0,1.38445 4.37068,0.943 5.625,-0.56836 0.6419,-0.77344 1.95963,-1.40625 2.92774,-1.40625 0.96812,0 1.75976,0.63281 1.75976,1.40625 0,2.19867 4.36945,1.78523 4.95899,-0.46875 0.26968,-1.03125 0.95172,-1.875 1.51562,-1.875 0.5639,0 1.86914,0.84375 2.90039,1.875 4.29726,4.29726 5.97584,1.17945 2.97657,-3.5918 l 2.50976,-0.0957 c 1.6589,2.92681 7.23488,5.15813 10.01563,3.66992 1.79063,-0.95823 2.77489,-0.95537 5.11914,0.0156 2.19676,0.90993 3.46081,0.94816 5.20312,0.1543 1.68929,-0.7697 2.90758,-0.77144 4.58399,-0.008 1.25618,0.57236 2.96246,0.78083 3.79101,0.46289 2.42673,-0.93123 0.1264,-4.01305 -4.5332,-6.07422 -4.28754,-1.89658 -7.07751,-5.14693 -10.50781,-12.24024 -3.3527,-6.93284 -6.57454,-18.61408 -7.4004,-26.82421 -1.35381,-13.45867 -2.45913,-32.25201 -2.24804,-38.23047 0.13146,-3.72272 -0.036,-10.06644 -0.37305,-14.09766 -0.46127,-5.51741 -0.33433,-7.23952 0.51563,-6.96289 1.70313,0.55429 3.79618,5.34382 4.36914,9.99805 0.2899,2.35486 1.07795,4.33246 1.82617,4.58007 1.05779,0.35006 1.1991,-0.41975 0.7207,-3.91015 -0.32752,-2.38946 -0.85997,-5.39808 -1.18359,-6.6875 -0.32362,-1.28942 -0.22582,-2.34399 0.2168,-2.34375 0.44261,2.5e-4 3.96874,2.95167 7.83593,6.56055 3.86719,3.60888 7.13673,6.56225 7.26563,6.5625 0.12891,2.4e-4 0.23437,-0.62451 0.23437,-1.38868 0,-2.27605 -16.94455,-18.29882 -19.35156,-18.29882 -3.85845,0 -4.39105,-2.60722 -3.02344,-14.78907 0.70694,-6.2971 0.59357,-8.57371 -0.60351,-12.09961 -1.5447,-4.54964 -0.75956,-7.13804 1.38281,-4.55664 1.99919,2.40889 2.9667,1.64084 2.31445,-1.83593 -0.60664,-3.23375 -0.56716,-3.28125 2.61328,-3.28125 2.43506,0 3.51736,-0.54521 4.41407,-2.22071 1.70611,-3.18792 0.94973,-5.69747 -1.81641,-6.02344 -3.11956,-0.36761 -4.99997,-4.15629 -3.03711,-6.11914 1.74073,-1.74072 0.77921,-3.44921 -1.94141,-3.44921 -1.81999,0 -5.41885,-2.66869 -6.71093,-4.6543 -0.14342,-0.66509 -0.2663,-1.40348 -0.3711,-2.2168 0.10617,-0.69628 0.28031,-1.55214 0.48243,-2.30664 0.54509,-2.03484 0.66582,-2.06276 2.33007,-0.55664 0.96572,0.87397 1.75586,2.57796 1.75586,3.78711 0,1.55117 0.53641,2.19727 1.82031,2.19727 1.00082,0 2.07976,-0.42187 2.39844,-0.9375 0.31867,-0.51562 1.5843,-0.9375 2.8125,-0.9375 1.2282,0 2.49382,0.42188 2.8125,0.9375 0.78277,1.26658 5.82441,1.19527 6.6211,-0.0937 0.35131,-0.56844 1.78795,-0.80179 3.19922,-0.51954 1.40913,0.28183 3.00443,0.0698 3.54492,-0.4707 0.68527,-0.68527 2.07053,-0.24428 4.57422,1.45703 4.85261,3.29743 6.23844,3.10462 7.53906,-1.05078 1.18951,-3.80041 0.92093,-4.94726 -1.1582,-4.94726 -0.74303,0 -1.35157,-0.60199 -1.35157,-1.33789 0,-0.7359 -1.57197,-2.63433 -3.49414,-4.21876 l -3.25586,-2.68359 c 0.43499,-0.13105 1.09927,-0.19531 2.00196,-0.19531 0.0122,0 0.0249,-0.002 0.0371,-0.002 l 1.27734,0 c 3.75066,0 7.18359,-1.34575 7.18359,-2.81641 0,-0.48159 -2.42577,-1.98954 -5.39062,-3.35156 -2.96484,-1.36202 -6.12223,-2.85199 -7.01758,-3.31055 -0.89535,-0.45856 -2.52947,-0.83398 -3.63086,-0.83398 -1.63632,0 -1.79803,-0.24684 -0.88281,-1.34961 0.4452,-0.53644 0.7539,-1.62285 0.83203,-2.73047 0.18398,-0.6469 0.16038,-1.2124 -0.0723,-1.67969 -0.27813,-2.04679 -0.74632,-2.18903 -4.46289,-2.04688 -2.32031,0.0888 -5.16796,0.45439 -6.32812,0.8125 -1.30627,0.40323 -2.10938,0.25768 -2.10938,-0.38281 0,-0.56884 -1.56827,-1.68964 -3.48437,-2.49023 -3.34048,-1.39575 -3.54709,-1.37064 -5.02735,0.5918 -2.60979,3.45987 -3.76845,1.35681 -2.0039,-3.63672 1.99585,-5.64815 1.78756,-5.43275 3.71289,-3.82422 0.9055,0.75651 2.89596,1.90906 4.42187,2.5625 2.38225,1.02018 2.93284,0.97145 3.89453,-0.34375 0.6938,-0.94883 1.34662,-1.16344 1.7168,-0.56446 0.77945,1.26116 8.72879,4.76954 10.80664,4.76954 0.88648,0 2.92804,-0.65531 4.53516,-1.45704 2.18253,-1.08879 3.38931,-1.20742 4.76953,-0.46875 2.02327,1.08282 5.16784,1.26042 7.99023,0.69141 0.0944,-0.019 0.18962,-0.034 0.28321,-0.0547 0.1294,-0.0266 0.2566,-0.0593 0.3789,-0.0957 1.55918,-0.38792 2.98152,-1.00508 4,-1.83789 1.61642,-1.32174 2.50147,-2.7736 2.1875,-3.5918 -0.66889,-1.7431 -5.29594,-2.66549 -7.48828,-1.49219 -2.17547,1.16427 -4.34865,-0.0533 -2.2207,-1.24414 0.83965,-0.46989 1.52734,-1.72874 1.52734,-2.79882 0,-1.645 -0.4179,-1.86212 -2.70703,-1.4043 -1.95131,0.39026 -3.15331,0.0494 -4.30273,-1.2207 -0.87714,-0.96924 -3.22013,-2.03737 -5.20703,-2.37305 -4.62337,-0.78111 -6.12654,-2.45218 -4.51954,-5.02539 0.99838,-1.59866 0.9102,-2.19907 -0.56054,-3.82422 -0.95938,-1.06009 -2.71721,-1.92773 -3.90821,-1.92773 -1.29154,0 -2.61482,-0.85131 -3.27734,-2.10938 -0.61096,-1.16016 -1.57524,-2.45751 -2.14258,-2.88281 -0.56735,-0.4253 0.6122,-0.4999 2.6211,-0.16602 2.44187,0.40585 3.8874,0.22851 4.35937,-0.53515 1.16714,-1.88846 3.70517,-0.17144 4.32422,2.92382 0.64963,3.24813 4.20329,6.09256 6.50586,5.20899 0.83139,-0.31903 3.1163,-0.0995 5.07812,0.48828 4.91817,1.47353 8.63584,0.45566 8.25,-2.25781 -0.18808,-1.3227 -1.06047,-2.18415 -2.40429,-2.375 -1.16015,-0.16476 -2.10938,-0.68436 -2.10938,-1.1543 0,-1.11678 4.23931,-2.16416 6.43555,-1.58984 0.94454,0.24701 2.73017,-0.10517 3.96875,-0.78321 1.33318,-0.72985 3.63887,-1.01956 5.65039,-0.71093 4.06628,0.62392 5.30887,-0.76829 3.57617,-4.00586 -1.10657,-2.06765 -0.94912,-2.54683 1.76367,-5.34571 3.16914,-3.26973 3.81584,-5.33007 1.67383,-5.33007 -0.71827,0 -1.54695,-0.63281 -1.84375,-1.40625 -0.78816,-2.05394 -1.98736,-1.72466 -3.41211,0.9375 -0.68989,1.28906 -1.75823,2.34375 -2.375,2.34375 -0.61677,0 -2.18895,0.84051 -3.49414,1.86718 -2.10748,1.65774 -2.43829,1.69787 -2.95117,0.36133 -0.39173,-1.0209 -1.33588,-1.36012 -2.93359,-1.05469 -2.55273,0.48798 -2.5542,0.41302 -0.17188,-6.54101 1.32202,-3.85896 0.42846,-4.70217 -3.34375,-3.1582 -8.29205,3.39391 -9.87907,3.48488 -14.55859,0.83789 -3.50153,-1.98066 -4.44959,-3.05389 -4.67969,-5.29688 -0.15872,-1.54705 -0.89701,-3.3184 -1.64062,-3.93555 -0.74363,-0.61717 -1.35157,-2.34967 -1.35157,-3.85156 0,-2.40828 0.21487,-2.61674 1.8125,-1.76172 0.99633,0.53322 2.0728,1.79326 2.39258,2.80078 0.51622,1.62648 5.19401,4.73243 7.12695,4.73243 0.40166,0 0.99679,-0.84334 1.32422,-1.875 0.53097,-1.67292 1.13824,-1.8118 5.61914,-1.28516 l 5.02539,0.58984 1.19922,-4.10547 c 0.6598,-2.25796 1.21774,-4.52734 1.24024,-5.04296 0.063,-1.44271 -8.03627,-1.27701 -8.59375,0.17578 -0.31197,0.81297 -0.82761,1.20054 -1.4043,1.2207 -0.005,1.5e-4 -0.0102,0.002 -0.0156,0.002 -0.002,5e-5 -0.004,-3e-5 -0.006,0 -0.97061,0.0183 -2.10801,-1.00228 -2.73633,-2.80468 -0.9732,-2.79173 -1.62598,-3.18228 -4.78125,-2.86133 -0.9541,0.0971 -1.64063,-0.46527 -1.64063,-1.34571 0,-0.83929 -1.25333,-1.95256 -2.8125,-2.49609 -1.81724,-0.63349 -2.8125,-1.62173 -2.8125,-2.79297 0,-2.79088 -5.5641,-4.05235 -9.84375,-2.23242 -0.78455,0.33364 -1.20963,0.49988 -1.33203,0.44922 -0.005,-0.0591 8.6e-4,-0.12712 0.006,-0.19336 0.1353,-0.23113 0.50153,-0.65801 1.0918,-1.33203 1.69966,-1.94082 2.16223,-3.99759 0.9375,-4.16797 -0.38671,-0.0538 -2.26522,-0.19626 -4.17383,-0.31641 -3.70352,-0.23312 -6.37305,-1.84752 -6.37305,-3.85547 0,-1.60197 5.63246,-1.48082 7.26953,0.15625 0.76172,0.76171 3.29287,1.15404 6.8086,1.05664 l 5.06054,-0.14062 c 0.31953,0.1249 0.63381,0.27203 0.94727,0.43164 l 4.10352,4.44141 c 4.74892,5.13861 5.66556,5.59615 7.50781,3.7539 0.88658,-0.88659 1.4368,-0.69955 2.52734,0.85743 1.20257,1.71692 1.75974,1.85304 4.05078,0.98828 2.24147,-0.84606 3.09878,-0.67586 5.48438,1.08789 3.52973,2.60965 9.92609,3.57225 12.95508,1.95117 1.30992,-0.70108 3.45573,-0.95066 5.18164,-0.60547 3.3218,0.66436 6.54101,-0.65855 6.54101,-2.6875 0,-0.74341 1.01986,-2.01968 2.26563,-2.83594 5.24762,-3.43837 3.54519,-7.42127 -2.76758,-6.47461 -4.66388,0.69939 -5.31894,0.0167 -5.47852,-5.71093 -0.13761,-4.93907 -3.34913,-8.875 -7.24218,-8.875 -2.46804,0 -2.54399,-0.13442 -1.71094,-3.03907 1.24405,-4.33775 1.21282,-4.41395 -2.41016,-5.92773 -1.80469,-0.75404 -3.28125,-1.7355 -3.28125,-2.18164 0,-2.40624 -11.82511,-4.04712 -17.09961,-2.37305 -1.02582,0.32557 -2.4806,-0.0642 -3.42187,-0.91601 -1.00826,-0.91247 -2.99064,-1.39498 -5.1543,-1.25586 -3.32025,0.21349 -3.58648,0.02 -4.81445,-3.48829 -0.715,-2.04275 -1.12555,-3.89007 -0.91211,-4.10351 0.21344,-0.21344 3.90101,1.35317 8.19531,3.48047 4.29431,2.12729 8.24896,3.86719 8.78711,3.86719 0.53815,0 1.54253,-1.05469 2.23242,-2.34375 0.79455,-1.48462 2.06583,-2.34375 3.46875,-2.34375 1.21812,0 2.47553,-0.67669 2.79297,-1.50391 0.45036,-1.17361 1.37578,-1.37555 4.21289,-0.92188 4.78666,0.76542 5.76338,-1.33513 2.30274,-4.94726 -1.35605,-1.4154 -2.46485,-3.46376 -2.46485,-4.55274 0,-2.40731 -1.69815,-3.15436 -4.21484,-1.85351 -2.38406,1.23229 -11.72266,1.67891 -11.72266,0.56055 0,-0.46383 0.97031,-0.84375 2.15625,-0.84375 2.54636,0 4.40625,-1.61843 4.40625,-3.83594 0,-2.11939 1.78455,-2.68507 6.48438,-2.05469 3.11921,0.41837 4.31847,0.13462 5.97461,-1.41406 1.12636,-1.05326 3.4603,-1.97943 5.49414,-2.20508 0.0878,-0.0107 0.17707,-0.0212 0.26172,-0.0332 10e-4,-1.9e-4 0.003,1.9e-4 0.004,0 3.18469,-0.25918 3.78798,-0.67623 4.41992,-3.05664 0.4025,-1.5161 1.3801,-3.11939 2.17188,-3.5625 0.79179,-0.4431 1.43945,-1.6272 1.43945,-2.63282 0,-2.25045 -4.08911,-2.496 -8.80078,-0.52734 -5.23859,2.18883 -11.7385,-0.35969 -9.08203,-3.56055 0.86886,-1.0469 0.5721,-1.8439 -1.43359,-3.84961 -2.03781,-2.0371 -3.12881,-2.43151 -5.60743,-2.02929 l -3.07617,0.5 2.90625,-2.59766 c 3.63512,-3.24799 3.04506,-5.21132 -2.02539,-6.73047 -3.28354,-0.98376 -3.71076,-1.41626 -3.24023,-3.29101 0.43268,-1.72393 -0.0834,-2.53965 -2.5586,-4.04493 -2.01269,-1.224 -3.90612,-1.68363 -5.40039,-1.30859 -1.99885,0.50169 -2.19662,0.3436 -1.50195,-1.20312 0.43992,-0.97953 0.75015,-3.15234 0.68945,-4.82813 -0.0877,-2.42257 0.25944,-3.04687 1.69727,-3.04687 1.17572,0 1.80859,-0.64776 1.80859,-1.85157 0,-1.52885 0.45873,-1.7587 2.63086,-1.32422 3.5845,0.71689 5.48341,-1.46808 3.75195,-4.31836 -2.07727,-3.4196 -9.33821,-7.8276 -12.77343,-7.7539 -2.89111,0.062 -3.0065,-0.0474 -1.64063,-1.55664 0.80806,-0.89289 1.46875,-2.11678 1.46875,-2.7207 0,-1.74291 1.36983,-1.28944 3.75,1.24414 2.66628,2.83812 4.35841,2.98563 5.16407,0.44726 0.57648,-1.81634 0.75553,-1.77603 4.18164,0.9375 2.13173,1.68836 4.68529,2.83399 6.3125,2.83399 1.50303,0 3.55184,0.61991 4.55273,1.37695 2.12271,1.60553 6.03906,1.88943 6.03906,0.4375 0,-0.54953 -0.43256,-1.80764 -0.96093,-2.79492 -0.82475,-1.54106 -0.46086,-2.02966 2.5664,-3.45508 4.03897,-1.90181 4.98826,-4.35303 2.25391,-5.81641 -1.35341,-0.72439 -2.53844,-0.70382 -4.2461,0.0742 -1.8287,0.83321 -2.69372,0.80912 -3.79101,-0.10156 -0.80862,-0.67104 -2.4146,-0.92986 -3.72266,-0.60156 -1.6315,0.40948 -2.65649,0.0748 -3.52734,-1.15235 -1.52385,-2.14734 -4.73892,-3.90429 -7.14649,-3.90429 -1.00202,0 -2.34269,-0.62804 -2.98047,-1.39649 -0.73376,-0.88418 -1.98122,-1.19115 -3.39648,-0.83594 -1.70161,0.42708 -2.23633,0.18032 -2.23633,-1.03515 0,-0.87864 -0.90692,-2.87267 -2.01562,-4.42969 -1.84937,-2.59721 -2.34843,-2.78516 -6.03907,-2.2793 -3.45055,0.47295 -4.10587,0.28758 -4.60937,-1.29882 -0.32545,-1.02545 -1.41987,-1.84961 -2.45508,-1.84961 -1.02694,0 -1.61525,-0.40617 -1.30859,-0.90235 0.34971,-0.56584 1.41661,-0.50876 2.86328,0.15039 1.87281,0.85331 2.63807,0.75142 4.06836,-0.54297 0.9688,-0.87676 2.13077,-1.52791 2.58203,-1.44531 2.7849,0.50959 3.39178,-0.17902 2.88867,-3.2793 -0.36988,-2.2793 -0.13436,-3.35661 0.81446,-3.7207 0.73448,-0.28185 1.33593,-1.37053 1.33593,-2.41797 0,-1.46818 0.61077,-1.90429 2.66797,-1.90429 2.94334,0 8.58203,-2.47616 8.58203,-3.76954 0,-1.57001 -6.55203,-5.82568 -8.27539,-5.375 -0.94409,0.24688 -2.50272,-0.12602 -3.46289,-0.82812 -0.96018,-0.70211 -3.35244,-1.27734 -5.31641,-1.27734 -3.75709,0 -4.8941,-1.70452 -1.69531,-2.54102 2.15461,-0.56345 2.44647,-2.37894 0.625,-3.89063 -0.68759,-0.57064 -3.49977,-1.36202 -6.25,-1.75781 -7.88391,-1.13461 -6.77336,-3.7668 1.875,-4.44336 4.21465,-0.32972 8.44238,-1.07633 8.70313,-1.53711 2.42018,-4.27685 3.48437,-6.40415 3.48437,-6.96093 0,-0.67651 -6.29937,-0.0652 -10.6914,1.03711 -1.70803,0.4287 -2.39655,0.12431 -2.83399,-1.25391 -0.31777,-1.00122 -1.5172,-2.25814 -2.66601,-2.79297 -2.0283,-0.94427 -2.03559,-0.98997 -0.21485,-1.58594 8.36443,-2.73789 11.18461,-6.82231 5.625,-8.14648 -5.69675,-1.35682 -10.16362,-3.44059 -11.67578,-5.44531 -1.18496,-1.57093 -2.12886,-1.91347 -3.98633,-1.44727 -1.51249,0.37961 -3.44566,0.0476 -5.10547,-0.87695 l -2.55859,-1.42578 c 0.003,-0.0114 0.004,-0.024 0.008,-0.0352 l 2.47071,0.54883 c 1.45019,0.32271 3.16425,0.10021 3.89453,-0.50586 1.7186,-1.42632 6.1644,-0.28281 8.07617,2.07812 1.14717,1.41668 2.13695,1.69214 4.3457,1.20704 6.64525,-1.45957 10.90898,-10.7631 4.62305,-10.0879 -3.27307,0.35158 -4.50335,-1.23144 -3.74805,-4.82226 0.7215,-3.43012 -2.66049,-7.40326 -5.66015,-6.65039 -1.09652,0.27521 -3.23264,-0.14254 -4.7461,-0.92774 -2.16501,-1.12321 -2.79627,-2.13387 -2.96289,-4.73828 -0.20399,-3.18874 -0.0939,-3.31054 3.01563,-3.31054 2.62909,0 3.22851,-0.35685 3.22851,-1.92188 0,-1.05685 -0.66387,-3.20367 -1.47461,-4.77148 -1.63466,-3.16109 -1.21963,-5.49414 0.97657,-5.49414 2.08619,0 5.18554,-3.42746 5.18554,-5.73438 0,-0.054 -0.005,-0.0954 -0.006,-0.14648 7.7e-4,-0.0196 0.006,-0.0414 0.006,-0.0605 0,-0.0126 -0.008,-0.023 -0.01,-0.0352 -0.0498,-1.30892 -0.50952,-1.60564 -1.87696,-1.24804 -1.26663,0.33123 -2.21796,-0.12203 -2.89062,-1.37891 -0.76133,-1.42255 -1.57613,-1.72787 -3.39453,-1.27148 -2.27665,0.57141 -2.36441,0.45097 -1.78711,-2.43555 0.33387,-1.66932 1.28538,-3.7842 2.11523,-4.70117 1.77473,-1.96107 0.99243,-4.99918 -1.08203,-4.20313 -2.24407,0.86113 -6.24646,-1.36854 -5.55078,-3.0918 0.3272,-0.81048 0.79653,-1.96439 1.04297,-2.56445 0.48516,-1.18128 -4.7272,-5.02234 -7.5332,-5.79492 z m -9.77343,34.44922 c 0.29535,-0.024 0.74441,0.12398 1.30859,0.47266 0.80599,0.49813 0.90332,0.98181 0.27344,1.37109 -0.53505,0.33068 -1.25648,0.14428 -1.60156,-0.41406 -0.53816,-0.87076 -0.47269,-1.38974 0.0195,-1.42969 z m 27.19726,24.77344 c 0.48984,0 1.04182,0.45351 1.22656,1.00781 0.18478,0.55429 -0.36718,1.00782 -1.22656,1.00782 -0.85938,0 -1.41133,-0.45353 -1.22656,-1.00782 0.18476,-0.5543 0.73672,-1.00781 1.22656,-1.00781 z m -25.78125,0.14063 c 0.51562,0 0.9375,0.42187 0.9375,0.9375 0,0.51562 -0.42188,0.9375 -0.9375,0.9375 -0.51563,0 -0.9375,-0.42188 -0.9375,-0.9375 0,-0.51563 0.42187,-0.9375 0.9375,-0.9375 z m 1.00781,18.76367 c 0.52788,0.0198 0.86719,0.32383 0.86719,0.95312 0,0.53181 -0.61728,1.20488 -1.37109,1.49414 -0.75381,0.28926 -1.62531,1.33084 -1.9375,2.31446 -0.31219,0.98361 -1.40862,1.78711 -2.43555,1.78711 -2.05734,0 -1.75294,-0.99593 1.35938,-4.45313 1.23355,-1.37024 2.63779,-2.12867 3.51757,-2.0957 z m -15.3496,158.81836 c 0.37706,0.013 -0.0912,0.99964 -1.19532,3.21289 -1.68607,3.37981 -1.69151,3.38172 -3.07812,1.71093 -0.79352,-0.95612 -0.38623,-1.72199 1.75976,-3.30859 1.41563,-1.04661 2.2204,-1.62536 2.51368,-1.61523 z m -5.88477,22.21289 c 0.38452,0.033 0.53906,0.36133 0.36328,0.88867 -0.22559,0.67676 -0.96386,1.41503 -1.64062,1.64062 -0.70312,0.23437 -1.05469,-0.11719 -0.82032,-0.82031 0.22559,-0.67677 0.96387,-1.41503 1.64063,-1.64062 0.17578,-0.0586 0.32886,-0.0793 0.45703,-0.0684 z m 84.22461,78.84179 c 1.86987,-0.0367 1.88241,0.77773 0.22656,2.60743 -2.22423,2.45774 -6.09961,2.52892 -6.09961,0.11132 0,-1.29092 0.91487,-1.9424 3.37696,-2.40429 1.04334,-0.19573 1.8728,-0.30224 2.49609,-0.31446 z m -44.26563,1.72266 c 0.41961,0.0179 0.89823,0.49021 1.27149,1.46289 0.44428,1.15776 1.32271,1.36906 3.7793,0.9082 2.85523,-0.53564 3.46232,-0.25815 5.61523,2.56446 1.32761,1.74059 2.41406,3.65218 2.41406,4.24804 0,1.32979 -6.2198,1.4575 -7.03125,0.14454 -0.31867,-0.51562 -1.37412,-0.9375 -2.3457,-0.9375 -2.15736,0 -4.68555,-3.39887 -4.68555,-6.30079 0,-1.384 0.44293,-2.11286 0.98242,-2.08984 z"
       id="path4159"
       inkscape:connector-curvature="0"
       sodipodi:nodetypes="ccssssssscsccccssssssscssssssssssssssssssssssscscssssssssssssccccsscsssssssssssssssccsssssssssssssssssssssscssscscssssccscscccssscssssccccccsssssssssssssssssssssscccsssscsssssscssssssccssssscccsscscsssssssssssssscccscssssssscscsccsssccssssssscssssscccsssscssssssssscssssssccsccccscccssscccscccsssssssscssccccscssssssssssscscsssssssssssccssssssccssssssccssssssssccccssssssscssscccsssssssssssssssssssssccsssssssscsssssssssssccccscccscssssccsssssccccsssscsssssssssccssssssssssssssssscccscsssccccssssscsscsssssssssssscscssscsssscsssscssssscssssssssccsssssccccsscsssssssssscscssssssscccsssscssscsscsssccssssccccsccssscccsssccscsssssccc" />
  </g>
</svg>
