<?xml version="1.0" encoding="UTF-8" standalone="no"?>
<!-- Created with Inkscape (http://www.inkscape.org/) -->

<svg
   xmlns:dc="http://purl.org/dc/elements/1.1/"
   xmlns:cc="http://creativecommons.org/ns#"
   xmlns:rdf="http://www.w3.org/1999/02/22-rdf-syntax-ns#"
   xmlns:svg="http://www.w3.org/2000/svg"
   xmlns="http://www.w3.org/2000/svg"
   xmlns:sodipodi="http://sodipodi.sourceforge.net/DTD/sodipodi-0.dtd"
   xmlns:inkscape="http://www.inkscape.org/namespaces/inkscape"
   width="117.00378mm"
   height="112.66453mm"
   viewBox="0 0 414.58031 399.20502"
   id="svg2"
   version="1.1"
   inkscape:version="0.91 r13725"
   sodipodi:docname="Sycamore.svg">
  <defs
     id="defs4" />
  <sodipodi:namedview
     id="base"
     pagecolor="#ffffff"
     bordercolor="#666666"
     borderopacity="1.0"
     inkscape:pageopacity="0.0"
     inkscape:pageshadow="2"
     inkscape:zoom="1.6056912"
     inkscape:cx="207.29016"
     inkscape:cy="199.60251"
     inkscape:document-units="px"
     inkscape:current-layer="layer1"
     showgrid="false"
     inkscape:window-width="1440"
     inkscape:window-height="838"
     inkscape:window-x="-8"
     inkscape:window-y="-8"
     inkscape:window-maximized="1"
     fit-margin-top="0"
     fit-margin-left="0"
     fit-margin-right="0"
     fit-margin-bottom="0" />
  <metadata
     id="metadata7">
    <rdf:RDF>
      <cc:Work
         rdf:about="">
        <dc:format>image/svg+xml</dc:format>
        <dc:type
           rdf:resource="http://purl.org/dc/dcmitype/StillImage" />
        <dc:title></dc:title>
      </cc:Work>
    </rdf:RDF>
  </metadata>
  <g
     inkscape:label="Layer 1"
     inkscape:groupmode="layer"
     id="layer1"
     transform="translate(-238.58957,-163.96875)">
    <path
       style="fill:#000000"
       d="m 377.58398,163.96875 0.58985,2.75 c 0.68231,3.18704 0.34877,3.31792 -2.94141,1.16211 -2.21162,-1.4491 -2.61861,-1.4491 -4.6875,0 -1.24603,0.87276 -3.06534,1.58789 -4.04297,1.58789 -0.97762,0 -1.77734,0.41871 -1.77734,0.93164 0,0.51294 -1.0125,1.22049 -2.25,1.57031 -5.99932,1.69594 -8.59249,3.86463 -9.80664,8.20118 -0.95675,3.41716 -1.94767,4.6795 -4.69336,5.98242 -2.85135,1.35305 -3.84136,1.42623 -5.47461,0.40625 -1.62231,-1.01314 -1.90498,-0.99735 -1.51953,0.082 0.26053,0.72954 0.0601,2.12948 -0.44531,3.11133 -0.72519,1.40887 -1.64595,1.64845 -4.36328,1.13867 -3.43552,-0.6445 -3.43996,-0.63732 -2.79688,2.57812 0.62803,3.14013 0.56893,3.20433 -2.29102,2.57618 -2.47173,-0.54288 -3.28135,-0.17658 -5.12304,2.31445 -1.34803,1.8233 -1.7609,3.09988 -1.07617,3.32812 0.79613,0.26537 0.81082,0.92339 0.0488,2.32422 -0.58479,1.07503 -1.30758,2.74258 -1.60547,3.70508 -0.29787,0.9625 -1.40837,1.75 -2.46679,1.75 -1.05841,0 -2.18341,0.675 -2.5,1.5 -0.31658,0.825 -1.21213,1.5 -1.99024,1.5 -1.49956,0 -2.9282,3.73567 -2.00195,5.23437 0.30189,0.48849 1.6296,1.30028 2.95117,1.80274 3.01754,1.14727 3.08553,3.48102 0.1543,5.35937 -3.03827,1.94694 -6.64347,2.27676 -10.25391,0.94141 -1.64839,-0.60968 -5.92109,-1.55774 -9.49609,-2.10742 -5.99884,-0.92236 -6.62607,-0.84203 -8.12305,1.04101 -0.99886,1.25645 -2.2475,1.80071 -3.25,1.41602 -1.31112,-0.50313 -1.62695,0.0502 -1.62695,2.84375 0,2.21499 -0.77673,4.24548 -2.14844,5.61719 -1.75097,1.75097 -1.93584,2.48783 -1,3.98633 1.65603,2.65174 1.42593,4.875 -0.96289,9.33203 l -2.10937,3.93554 2.19336,1.77735 c 1.74008,1.40904 2.05754,2.40266 1.53125,4.79883 -0.6902,3.14244 0.23091,3.63522 5.74609,3.07421 0.9625,-0.0979 1.75,0.3002 1.75,0.88477 0,0.58457 -0.48167,1.0625 -1.06836,1.0625 -0.5867,0 -2.5158,1.10603 -4.28711,2.45703 -3.52785,2.69082 -8.15126,2.96164 -9.63281,0.56445 -0.76027,-1.23014 -1.33569,-1.0681 -3.54492,1.00391 l -2.63672,2.47461 -1.82617,-2.25 c -2.38802,-2.94359 -3.81749,-2.84454 -4.61133,0.31836 -0.58274,2.3219 -1.06015,2.54222 -4.98633,2.30078 -4.97442,-0.3059 -6.10976,0.30365 -3.93164,2.11133 1.2171,1.01014 1.82759,1.01361 3.02539,0.0195 1.21995,-1.01247 1.5,-0.96409 1.5,0.25586 0,2.12302 -2.67736,4.0817 -4.58008,3.35156 -1.07699,-0.41328 -1.77729,0.0441 -2.12891,1.38867 -0.35901,1.37285 -1.3645,2.00391 -3.18945,2.00391 -2.08702,0 -2.93029,0.70383 -3.89062,3.24805 -0.79023,2.09354 -0.86765,3.36573 -0.21875,3.58203 2.17259,0.7242 0.84597,2.16992 -1.99219,2.16992 -4.89677,0 -3.78132,2.76124 1.43164,3.54297 2.52809,0.37911 4.67946,1.3084 5.00781,2.16406 0.32636,0.85054 1.23592,1.24745 2.09961,0.91602 1.00828,-0.38691 1.84259,0.25467 2.4668,1.89648 1.03468,2.72142 3.80778,3.23825 6.92578,1.29102 2.14186,-1.33761 5.06836,0.28626 5.06836,2.8125 0,0.80273 1.04321,1.37695 2.5,1.37695 1.375,0 2.5,0.45 2.5,1 0,0.55 1.36399,1 3.03125,1 1.98508,0 3.244,0.60403 3.64844,1.75 0.33969,0.9625 1.45877,2.68644 2.48632,3.83203 1.28523,1.43282 1.9968,4.08561 2.2793,8.5 0.49982,7.81007 1.12317,9.57283 3.62305,10.22656 2.54602,0.6658 2.43967,1.66282 -0.66797,6.24219 -2.46122,3.6268 -2.50392,3.90098 -0.80859,5.14063 0.98475,0.72007 2.37777,1.30859 3.09765,1.30859 0.78016,0 1.31055,1.18049 1.31055,2.92383 0,2.13673 -1.14515,4.02096 -4.25,6.99023 -2.3375,2.23543 -5.01137,4.06822 -5.94141,4.07422 -0.93004,0.006 -1.96867,0.46172 -2.30859,1.01172 -0.33992,0.55 0.13769,1 1.0625,1 1.35041,0 1.44651,0.28447 0.48633,1.44141 -0.65756,0.79231 -1.83826,1.19372 -2.62305,0.89257 -0.97658,-0.37475 -1.42578,0.16541 -1.42578,1.71289 0,1.4006 -1.52222,3.56467 -4,5.68555 -4.9157,4.20765 -5.2056,6.77724 -0.85938,7.64649 l 3.14258,0.62695 -2.69336,2.49805 c -1.48161,1.3731 -3.57091,2.49609 -4.64257,2.49609 -1.07167,0 -1.94727,0.65256 -1.94727,1.44922 0,0.79666 -1.16144,2.69965 -2.58008,4.23047 -2.03061,2.19107 -2.44956,3.42674 -1.96875,5.80273 1.27142,6.28275 1.14397,6.94291 -1.45117,7.49024 -3.6916,0.77857 -8,4.0068 -8,5.99414 0,0.95517 -1.38437,3.18477 -3.07617,4.95507 -2.76998,2.89852 -3.00876,3.63468 -2.38867,7.39844 1.02362,6.21302 1.79565,7.03719 7.63085,8.15625 5.01807,0.96236 5.335,1.20065 5.3711,4.02344 0.0351,2.74751 1.02257,5.55815 3.33789,9.5 0.48459,0.825 1.60925,3.19844 2.49805,5.27344 0.93194,2.17569 2.6508,4.16519 4.06054,4.70117 1.34449,0.51118 2.91596,1.81 3.49219,2.88672 0.69855,1.30525 1.71835,1.78264 3.06055,1.43164 1.8177,-0.47534 2.01367,-0.0445 2.01367,4.43555 0,3.69165 -0.51192,5.42479 -2,6.77148 -2.65693,2.40449 -2.52315,4.83229 0.44336,8.0332 1.75282,1.89133 3.02503,2.45252 4.5,1.98438 5.04853,-1.60234 -0.0165,6.98477 -5.19336,8.80469 -0.9625,0.33837 -1.75,1.53827 -1.75,2.66601 0,1.68779 -0.44216,1.93837 -2.5,1.42188 -2.47708,-0.6217 -3.52381,0.8398 -1.49805,2.09179 0.66364,0.41016 0.64121,1.2972 -0.0684,2.62305 -0.76537,1.43001 -0.76204,2.37784 0.0137,3.3125 1.51545,1.82601 0.26726,4.46959 -2.42969,5.14648 -2.409,0.60462 -5.33419,4.9334 -4.14063,6.12696 0.3925,0.39251 1.52038,0.2092 2.50586,-0.40625 1.36912,-0.85502 2.53904,-0.75594 4.96289,0.41797 3.03528,1.47003 3.34304,1.4179 7.10547,-1.18946 2.47429,-1.71468 4.16657,-3.79671 4.56641,-5.61718 0.86286,-3.92861 1.78645,-4.26701 5.66406,-2.07618 3.40663,1.92473 3.76611,3.21267 2.34961,8.41016 -0.59043,2.16641 -0.40885,2.75 0.85156,2.75 0.87995,0 2.1607,-0.9 2.84766,-2 1.30806,-2.09454 5.20863,-2.71659 6.26953,-1 1.13315,1.83348 2.36359,1.03111 2.68359,-1.75 0.26367,-2.29145 0.85833,-2.80139 3.56641,-3.0625 2.27112,-0.21897 3.25,-0.8261 3.25,-2.01563 0,-2.44719 12.54074,-10.45144 15.10156,-9.63867 1.40495,0.44592 1.80497,1.18607 1.37305,2.54688 -0.42377,1.3352 -0.13332,1.91992 0.95703,1.91992 2.15783,0 1.96505,1.48146 -0.4082,3.12891 -2.5746,1.78721 -4.02885,9.87109 -1.77539,9.87109 0.82795,0 2.06726,-0.675 2.75195,-1.5 0.99599,-1.2001 0.98142,-1.81556 -0.0664,-3.07813 -1.12008,-1.34961 -0.8469,-1.93899 1.87891,-4.07226 3.69872,-2.89468 3.96195,-3.96903 1.1875,-4.84961 -1.1,-0.34913 -2,-1.01465 -2,-1.47852 0,-1.42381 8.61737,-5.10538 10.37305,-4.43164 0.90843,0.3486 2.27179,0.11891 3.02929,-0.50976 1.05937,-0.87921 2.21074,-0.65131 4.98633,0.98633 3.90962,2.30671 3.9296,3.93359 0.0508,3.93359 -2.84119,0 -3.28,2.50801 -0.97265,5.55859 2.21317,2.92608 1.86806,3.91083 -2.02149,5.76563 -3.25912,1.55417 -4.15945,4.27085 -1.01562,3.06445 0.75176,-0.28847 1.66424,-0.0445 2.02734,0.54297 0.36309,0.58749 1.98402,1.06836 3.60156,1.06836 3.35,0 3.88825,2.16061 1.36914,5.49414 -1.29333,1.71147 -1.6423,1.78256 -2.45312,0.5 -0.51986,-0.82232 -0.95294,-1.83164 -0.96094,-2.24414 -0.008,-0.4125 -0.54717,-0.75 -1.19922,-0.75 -0.65205,0 -2.25209,-1.00089 -3.55468,-2.22461 -2.18567,-2.05333 -2.57022,-2.11118 -4.98438,-0.75 -2.74714,1.54891 -4.84269,6.05783 -3.92578,8.44727 0.41753,1.08808 2.23935,1.3127 8.05469,0.99609 4.13283,-0.22501 7.76597,-7e-4 8.07421,0.49805 1.19138,1.92769 6.8027,4.0437 8.02735,3.02734 0.66385,-0.55096 2.69653,-0.70405 4.51758,-0.33984 2.90675,0.58135 3.22729,0.44303 2.62109,-1.13672 -0.37976,-0.98969 -0.42449,-2.63655 -0.0996,-3.66016 0.45761,-1.4418 1.19374,-1.71755 3.27149,-1.22461 1.47509,0.34996 3.35859,1.19174 4.18359,1.8711 1.98105,1.63134 4,0.8138 4,-1.61914 0,-1.07143 0.78751,-2.24237 1.75,-2.60352 3.17057,-1.18968 4.18316,-3.45469 2.61523,-5.84766 -1.23156,-1.87961 -1.20722,-2.32004 0.19336,-3.48242 1.207,-1.00172 2.0415,-1.05739 3.375,-0.22461 0.9745,0.60859 3.86213,1.41947 6.41797,1.80274 4.28332,0.64233 4.64844,0.53213 4.64844,-1.41602 0,-3.08402 2.23092,-2.57089 4.25,0.97656 1.98868,3.49406 4.08855,3.41694 4.58398,-0.16797 0.18407,-1.33192 0.74657,-2.84859 1.25,-3.37109 1.67107,-1.73438 0.95092,-3.48137 -2.08398,-5.05078 -1.64999,-0.85325 -3.0562,-1.31451 -3.125,-1.02539 -0.0687,0.28912 -0.1812,1.08789 -0.25,1.77539 -0.14623,1.4623 -4.50653,2.30445 -5.61133,1.08398 -0.41555,-0.45906 -1.04783,-2.07148 -1.4043,-3.58398 -0.59537,-2.526 -0.40679,-2.75 2.3086,-2.75 2.77885,0 2.92332,-0.19576 2.42578,-3.26172 -0.40282,-2.48229 -0.0298,-3.71332 1.5625,-5.1543 1.15069,-1.04136 2.09375,-2.69418 2.09375,-3.67187 0,-2.10647 3.74463,-3.56787 5.25977,-2.05274 0.59719,0.59715 2.84019,0.82172 5.14843,0.51368 2.25002,-0.30028 5.3293,-0.0686 6.8418,0.51562 l 2.75,1.0625 0,15.96485 -0.33789,20.65039 c 0.3305,0.86127 0.0959,7.39615 -0.52149,14.52343 -0.82818,9.55917 -0.82836,14.93132 -0.004,20.47461 0.61471,4.13305 0.8353,11.79556 0.49023,12.14063 8.84752,-0.0373 13.69486,-0.1035 22.54245,-0.0896 l -0.21628,-11.20932 c 0,0 -2.28316,-19.49203 0.48633,-34.48047 1.80176,-9.75119 3.40606,-15.25464 5.95117,-20.4043 4.16086,-8.41895 9.13795,-15.52148 10.87696,-15.52148 0.69114,0 1.7182,-1.0125 2.28125,-2.25 0.56305,-1.2375 1.63396,-2.11647 2.3789,-1.95313 1.98131,0.43449 8.09555,-2.69392 8.78711,-4.49609 0.34225,-0.89187 -0.10745,-1.94124 -1.06054,-2.47461 -2.06393,-1.15503 -2.1551,-2.82617 -0.1543,-2.82617 0.82501,0 1.49975,0.39695 1.5,0.88281 0,0.48589 1.2375,1.13167 2.75,1.4336 2.04227,0.40769 3.17382,0.003 4.39648,-1.57227 0.90549,-1.16639 1.42154,-2.70704 1.14649,-3.42383 -0.85454,-2.22688 2.84184,-2.8542 4.38476,-0.74414 1.20393,1.64647 1.1718,2.06034 -0.24414,3.0957 -0.89896,0.65739 -1.34818,1.65808 -0.99804,2.22461 0.862,1.39477 -2.9843,5.10352 -5.29297,5.10352 0,0 1.08658,1.94851 3.34742,0.008 1.21846,-1.01124 1.94452,-0.80619 3.98243,1.12696 3.04434,2.88784 3.2281,4.86523 0.45312,4.86523 -1.44588,0 -1.96346,0.5296 -1.71094,1.75 0.26855,1.29781 1.19082,1.68432 3.57227,1.49609 2.66227,-0.21042 3.21289,0.10063 3.21289,1.81641 l 3.64648,1 c 1.29412,-1.01795 2.35352,-2.37482 2.35352,-3.01563 0,-0.64079 0.49984,-0.85643 1.11133,-0.47851 0.6115,0.37792 1.49702,0.0685 1.96875,-0.68945 0.71827,-1.15409 1.20665,-1.16245 3.00586,-0.0469 1.54093,0.95545 2.45433,1.02614 3.23047,0.25 1.58189,-1.58188 2.38363,-1.33443 2.97265,0.91797 0.4162,1.59158 1.36326,2 4.64063,2 3.47279,0 4.26881,-0.39189 5.07031,-2.5 0.58192,-1.53056 1.73501,-2.5 2.97461,-2.5 2.12958,0 2.72452,-1.44988 1.02539,-2.5 -0.54999,-0.33992 -1,-1.49105 -1,-2.55859 0,-2.32809 2.75924,-2.57732 5.55859,-0.50196 1.65173,1.22454 1.75505,1.74423 0.69141,3.48633 -1.49832,2.45405 -1.64732,6.07422 -0.25,6.07422 0.55,0 1,-0.51034 1,-1.13477 0,-1.69499 4.71105,-5.73859 6.73437,-5.77929 0.9704,-0.0195 2.84474,-0.15897 4.16407,-0.31055 3.35229,-0.38516 3.79807,1.95076 0.64648,3.38672 -1.59118,0.72499 -2.50061,1.86039 -2.32812,2.90625 0.15571,0.94412 -0.54704,2.63439 -1.56055,3.75586 -1.80614,1.99852 -1.77634,2.09905 1.5,5.07812 4.00635,3.64286 5.57215,3.86017 6.0957,0.84766 0.37617,-2.16455 0.43496,-2.14556 1.54492,0.5 0.89767,2.13959 1.82438,2.75 4.17774,2.75 1.83387,0 3.02539,-0.51862 3.02539,-1.31641 0,-2.23767 7.11896,-5.52119 10.75,-4.95898 3.78234,0.58563 4.50207,-1.31507 1,-2.64063 -3.81043,-1.44228 6.66701,-2.57545 11.21484,-1.21289 4.57957,1.37207 8.30863,1.44809 9.58399,0.19532 0.5225,-0.51325 2.75117,-1.07575 4.95117,-1.25 3.21289,-0.25448 4.05988,-0.74095 4.30664,-2.47266 0.18232,-1.27945 1.25463,-2.39286 2.63867,-2.74023 2.95465,-0.74157 4.43915,-5.52868 2.11719,-6.82813 -0.85964,-0.48107 -1.5625,-1.69779 -1.5625,-2.70312 0,-2.83959 -2.45768,-4.4306 -3.99023,-2.58399 -1.95107,2.35089 -2.80539,1.85239 -4.96876,-2.89648 -2.0936,-4.59573 -7.13624,-8.5918 -10.84179,-8.5918 -1.9767,0 -6.19922,-4.67006 -6.19922,-6.85547 0,-0.57527 -0.7875,-1.49012 -1.75,-2.0332 -1.39175,-0.78528 -1.49724,-1.24299 -0.51367,-2.23633 0.98748,-0.99728 1.72189,-0.79267 3.64258,1.01172 1.4311,1.34445 2.55525,1.80499 2.77734,1.13867 0.58078,-1.74231 7.51857,1.5518 9.4375,4.48047 0.89906,1.37213 2.59724,2.5095 3.77148,2.5293 1.17424,0.0198 3.46382,1.12421 5.08985,2.45312 3.11093,2.54247 3.20441,2.35679 -2.01953,4.00391 -2.34341,0.73888 -0.80015,2.34861 2.92187,3.04687 1.9493,0.36569 5.50093,2.62051 8.7168,5.53516 2.98428,2.70474 6.10078,4.93342 6.92578,4.95312 0.82501,0.0197 2.37182,0.69641 3.43945,1.50391 1.06762,0.80751 2.80816,1.46875 3.86719,1.46875 1.54888,0 1.78131,-0.4401 1.1875,-2.25 -0.40601,-1.2375 -0.95677,-4.20775 -1.22461,-6.59961 l -0.48828,-4.34766 5.35937,0.56641 c 11.52658,1.22057 12.07165,1.1941 13.23438,-0.67187 0.89803,-1.44117 0.77349,-2.00462 -0.625,-2.80079 -4.71824,-2.68611 0.96593,-3.67521 8,-1.39257 2.96531,0.96228 3.01855,-1.52412 0.13281,-6.19336 -1.3173,-2.13143 -2.09654,-5.00938 -2.06054,-7.61719 0.0566,-4.09942 -2.67395,-8.69336 -5.16797,-8.69336 -0.54832,0 -1.82797,-0.75047 -2.8418,-1.66797 -1.01384,-0.91751 -2.62366,-1.74098 -3.57813,-1.83008 -5.36406,-0.50049 -8.2854,-1.83518 -9.47851,-4.32812 -1.02607,-2.14392 -2.02483,-2.70358 -5.03711,-2.82422 -5.08352,-0.20359 -6.71875,-0.95264 -6.71875,-3.07813 0,-0.98539 -1.125,-3.00541 -2.5,-4.48828 -3.10868,-3.35258 -3.25826,-5.15754 -0.34961,-4.23437 1.81594,0.57636 2.02939,0.39104 1.37109,-1.1836 -0.42894,-1.02597 -0.99131,-2.8367 -1.25,-4.02343 -0.25868,-1.18673 -1.77549,-3.40883 -3.37109,-4.9375 -3.40355,-3.26082 -3.84523,-6.4043 -0.90039,-6.4043 1.10001,0 2,0.41871 2,0.93164 0,1.8214 4.10843,2.27991 5.90039,0.6582 0.9664,-0.87457 2.62104,-1.59747 3.67773,-1.60547 1.05669,-0.008 2.53905,-0.40597 3.29493,-0.88476 1.05122,-0.66588 0.69858,-1.19666 -1.5,-2.25195 -2.59127,-1.2438 -2.87305,-1.86402 -2.87305,-6.31446 0,-4.13309 -0.3352,-5.02757 -2.05273,-5.48633 -3.11061,-0.83082 -9.59519,-8.4969 -8.84376,-10.45507 0.48451,-1.26259 1.40384,-1.49315 4.01172,-1.00391 2.97722,0.55854 3.38477,0.38096 3.38477,-1.47656 0,-3.04368 1.44373,-2.60905 4.7793,1.4375 2.02595,2.45782 2.78,4.29682 2.45703,5.98633 -0.3123,1.63366 0.0673,2.64372 1.14844,3.05859 2.58521,0.99204 1.86189,2.17525 -0.9961,1.62891 -2.36773,-0.45262 -2.54152,-0.27657 -1.86133,1.88867 0.41256,1.3133 1.86158,3.42599 3.22071,4.69336 2.94785,2.74883 12.68495,4.91005 14.67578,3.25781 1.94465,-1.61392 10.81263,-0.1119 12.38281,2.09766 1.72209,2.42331 4.85379,2.34284 6.19336,-0.16016 0.5887,-1.1 1.70142,-2 2.47461,-2 2.6921,0 2.61782,-2.00815 -0.16992,-4.5957 -1.54346,-1.43262 -2.8066,-3.31856 -2.8086,-4.19141 -0.002,-0.93154 -1.27655,-1.91642 -3.08398,-2.38476 -1.86126,-0.4823 -3.54054,-1.81283 -4.2461,-3.36133 -2.05419,-4.50849 -1.55376,-5.36317 3.00977,-5.15625 l 4.17383,0.18945 0.13086,-4.31836 c 0.0933,-3.08648 -0.52762,-5.21136 -2.17578,-7.44531 -1.26834,-1.71915 -2.30469,-4.20575 -2.30469,-5.52539 0,-1.5605 -0.70156,-2.5808 -2.00586,-2.92188 -1.12373,-0.29386 -2.81131,-2.3429 -3.83789,-4.6582 -2.18631,-4.93092 -4.10382,-6.66817 -8.30469,-7.52734 -2.21796,-0.45362 -3.67999,-1.66029 -5,-4.12305 -1.1738,-2.18994 -2.65794,-3.52606 -3.99805,-3.60156 -1.17164,-0.066 -2.53932,-0.85353 -3.04101,-1.75 -0.5017,-0.89647 -1.50991,-1.62891 -2.24023,-1.62891 -0.73033,0 -1.88758,-0.675 -2.57227,-1.5 -1.75298,-2.11221 -3.25146,-1.86552 -2.52734,0.41602 0.7042,2.21873 -0.86167,3.53361 -3.15821,2.65234 -1.44251,-0.55355 -1.43724,-0.77568 0.0508,-2.41992 1.81429,-2.00477 1.2572,-3.14844 -1.5332,-3.14844 -1.00833,0 -1.83203,-0.61929 -1.83203,-1.37695 0,-2.52995 -3.00053,-3.94089 -8.00781,-3.76368 -4.23798,0.15001 -5.15128,-0.1698 -6.54883,-2.30273 -0.89306,-1.36299 -2.45475,-2.74199 -3.4707,-3.06445 -1.01596,-0.32245 -1.98782,-1.57489 -2.16016,-2.78125 -0.35634,-2.49425 -7.64926,-6.55595 -11.94336,-6.65235 -1.66623,-0.0374 -4.15404,-1.53861 -6.79297,-4.09961 -2.29042,-2.22277 -5.27019,-4.46295 -6.62109,-4.97656 -1.6735,-0.63626 -2.45508,-1.70425 -2.45508,-3.35156 0,-1.32977 -0.73685,-2.69961 -1.63672,-3.04492 -1.49095,-0.57213 -1.47788,-0.80388 0.1543,-2.60742 1.4249,-1.57449 3.0835,-1.97852 8.11133,-1.97852 l 6.32031,0 -0.61914,-3.25 c -0.34025,-1.7875 -0.66611,-3.25191 -0.72461,-3.25391 -0.0585,-0.002 -1.55118,-1.01436 -3.31641,-2.25 -1.76523,-1.23564 -4.09785,-2.24609 -5.18359,-2.24609 -1.41015,0 -2.06302,-0.78557 -2.28906,-2.75 -0.24833,-2.1582 -1.3386,-3.25085 -5.06641,-5.07617 -2.6125,-1.27922 -4.75,-2.72058 -4.75,-3.20313 0,-0.48255 -1.9125,-1.72537 -4.25,-2.76172 -5.77535,-2.56056 -7.14017,-4.42849 -6.42969,-8.80664 0.47645,-2.93602 0.30841,-3.47374 -0.9414,-2.99414 -0.83815,0.32163 -2.42937,0.0996 -3.53516,-0.49218 -1.84658,-0.98826 -1.88167,-1.21744 -0.42578,-2.82618 0.87187,-0.96336 1.30514,-2.03275 0.96289,-2.375 -1.28678,-1.28677 0.76424,-5.81953 3.02148,-6.67773 2.8262,-1.07452 3.83358,-5.86563 2.19727,-10.45117 -1.3717,-3.844 -2.47251,-4.6557 -5.3418,-3.93555 -1.89186,0.47482 -2.25781,0.16166 -2.25781,-1.92578 0,-2.94682 -1.99105,-3.69094 -9.92188,-3.71094 -3.74106,-0.009 -6.024,-0.55604 -7.36523,-1.76367 -1.18562,-1.06752 -3.5457,-1.75 -6.05273,-1.75 -3.17578,0 -4.19272,-0.41327 -4.47266,-1.82031 -0.23586,-1.18552 0.36583,-2.01186 1.72461,-2.36719 2.80953,-0.73471 2.63341,-2.1546 -0.41211,-3.3125 -1.56715,-0.59583 -2.5,-1.73149 -2.5,-3.04297 0,-1.63877 -0.43539,-1.95352 -2.00586,-1.45508 -1.3325,0.42292 -2.20728,0.10916 -2.60742,-0.93359 -0.77554,-2.0209 -3.03689,-2.01681 -4.16992,0.008 -0.78986,1.41141 -1.24793,1.37112 -4.36719,-0.38086 -1.91669,-1.07654 -5.00469,-2.28948 -6.86133,-2.69726 -1.85664,-0.40779 -4.02474,-1.39193 -4.81836,-2.18555 -1.02399,-1.02399 -2.56476,-1.2523 -5.30664,-0.78906 -3.40353,0.57502 -3.86328,0.4156 -3.86328,-1.32813 0,-2.61218 -2.50453,-3.11824 -13.30664,-2.69531 -6.02772,0.23599 -9.60439,0.86605 -11.33203,1.99805 -2.57074,1.68441 -5.998,1.33945 -4.86719,-0.49024 0.81949,-1.32592 -3.08795,-1.29601 -5.58984,0.043 -1.53912,0.8237 -2.52418,0.60795 -4.56836,-1 -1.43361,-1.12768 -3.41874,-2.05078 -4.41211,-2.05078 -2.38614,0 -3.37969,-1.74794 -1.96289,-3.45508 1.49541,-1.80186 -0.12705,-2.79312 -3.2793,-2.00195 -3.12156,0.78346 -4.30545,-1.94432 -2.22266,-5.12305 1.38609,-2.11546 1.34909,-2.34635 -0.47656,-2.92578 -1.09039,-0.34608 -1.98242,-1.27456 -1.98242,-2.0625 0,-2.15307 -3.69077,-1.72264 -4.27149,0.49805 -0.49569,1.89548 -0.57859,1.89461 -4.61718,-0.10352 -2.26156,-1.11893 -4.11133,-2.43912 -4.11133,-2.93164 0,-0.49253 -2.02499,-0.89453 -4.5,-0.89453 -3.33333,0 -4.5,-0.38889 -4.5,-1.5 0,-1.80826 -1.30154,-1.88297 -5.62305,-0.32031 -2.96896,1.07359 -3.45701,0.96041 -5.39062,-1.25 z m -9.4707,169.67969 c -1.07274,1.73573 -3.17705,0.66848 -6.26953,-3.17969 -7.84683,-8.12582 5.25663,-4.31745 6.26953,3.17969 z m 54.64453,-1.61524 c 1.17661,2.19847 1.16595,2.69616 -0.0801,3.48438 -2.45999,1.55617 -2.96198,1.08384 -2.70312,-2.54688 0.30818,-4.17385 1.25292,-3.77678 2.78322,-0.9375 z m -51.0332,4.43555 c 1.10001,0 2,0.42387 2,0.94141 0,1.28004 -1.23739,1.88243 -2.75,1.33984 -1.97337,-0.70787 -1.45605,-2.28125 0.75,-2.28125 z m 42.87695,7.99996 c 0.48265,0 1.43836,0.675 2.12305,1.5 1.04007,1.2532 0.89433,1.5 -0.87891,1.5 -1.21995,0 -2.12109,-0.63782 -2.12109,-1.5 0,-0.825 0.39429,-1.5 0.87695,-1.5 z m -42.27344,3.71289 c 0.53499,-0.0229 1.02629,0.0597 1.38477,0.28125 1.14246,0.70606 1.15574,1.12654 0.0742,2.42969 -1.86647,2.24897 -5.0625,1.89896 -5.0625,-0.55469 0,-1.0688 1.99855,-2.08754 3.60351,-2.15625 z M 414.5332,350.5 c 0.38004,0.0173 1.45889,1.08956 2.39844,2.38281 1.62506,2.23683 1.61289,2.43716 -0.25,4.12305 -1.88087,1.7022 -1.95703,1.69612 -1.95703,-0.18164 0,-1.07525 -0.5012,-2.45628 -1.11328,-3.06836 -1.08634,-1.08634 -0.45436,-3.31846 0.92187,-3.25586 z m -55.73437,3.96875 c 1.19897,0 1.66801,0.50561 1.3164,1.42187 -0.60145,1.56735 -2.89259,2.74413 -3.72461,1.91211 -1.05443,-1.05444 0.59175,-3.33398 2.40821,-3.33398 z m 23.86523,5 c 0.51754,0 1.22063,0.45 1.56055,1 0.33992,0.55 -0.0839,1 -0.94141,1 -0.85746,0 -1.55859,-0.45 -1.55859,-1 0,-0.55 0.42191,-1 0.93945,-1 z m -3.93945,2 c 1.33333,0 2,0.66667 2,2 0,2.29384 0.064,2.2677 -2.25,0.91992 -2.34971,-1.36858 -2.21688,-2.91992 0.25,-2.91992 z m 39.67969,2 c 0.83137,0 1.32589,0.72276 1.14258,1.66797 -0.34705,1.78954 -2.05479,2.76748 -3.06641,1.75586 -1.01269,-1.01269 0.34197,-3.42383 1.92383,-3.42383 z m -29.45703,4 c 1.83571,0 1.94215,3.1603 0.15234,4.51563 -2.46037,1.86309 -3.30649,1.83037 -4.07031,-0.16016 -0.59715,-1.5561 1.9216,-4.35547 3.91797,-4.35547 z m 205.33593,5 c 0.85747,0 1.28133,0.45 0.94141,1 -0.33992,0.55 -1.043,1 -1.56055,1 -0.51753,0 -0.93945,-0.45 -0.93945,-1 0,-0.55 0.70113,-1 1.55859,-1 z m -138.80859,0.0156 c 1.58136,-0.0194 1.60263,1.23135 0.0488,2.78515 -1.49524,1.49524 -2.48355,1.5208 -3.36914,0.0879 -0.7252,-1.1734 1.20959,-2.84715 3.32031,-2.87304 z m 162.86133,1.36718 c 0.11953,-0.005 0.25117,0.0322 0.38867,0.11719 0.55,0.33992 1,1.04105 1,1.55859 0,0.51754 -0.45,0.94141 -1,0.94141 -0.54999,0 -1,-0.70113 -1,-1.55859 0,-0.64311 0.25274,-1.04272 0.61133,-1.0586 z m -168.98438,4 c 0.14489,0.0165 0.2928,0.0683 0.44141,0.16016 0.51199,0.31643 0.93164,1.22308 0.93164,2.01562 0,1.65007 -1.58043,1.92928 -2.5,0.44141 -0.71356,-1.15458 0.11277,-2.73297 1.12695,-2.61719 z m -28.03906,2.9043 c 0.49117,-0.0864 1.26218,0.0892 1.96484,0.48242 0.93688,0.52431 1.28674,1.21057 0.77735,1.52539 -1.15904,0.71633 -4.0069,-0.95209 -3.12696,-1.83203 0.0888,-0.0888 0.22105,-0.14697 0.38477,-0.17578 z m -5.48438,2.03126 c 1.70666,-0.19078 3.89649,0.82818 3.89649,2.24805 0,1.62184 -2.75258,1.87491 -4.99219,0.45898 -1.1173,-0.70638 -1.2062,-1.22934 -0.35156,-2.08398 0.36289,-0.3629 0.87838,-0.55946 1.44726,-0.62305 z m -1.33984,6.08791 c 0.55576,-0.0407 1.17872,0.13164 1.74024,0.59766 1.26519,1.05001 1.32546,1.48761 0.29296,2.14257 -1.75326,1.11217 -2.55434,1.05555 -3.35156,-0.23437 -0.8011,-1.29619 0.0957,-2.41642 1.31836,-2.50586 z m 16.82227,7.07617 c 0.67237,0.0558 0.30562,0.7686 -1.08594,2.16016 -0.825,0.825 -1.5,2.76327 -1.5,4.30664 0,1.54337 -0.67499,3.36609 -1.5,4.05078 -0.825,0.68469 -1.5,1.8373 -1.5,2.5625 0,1.91093 -1.49541,2.5417 -2.83984,1.19727 -3.26796,-3.26796 0.41112,-11.52758 6.08984,-13.67188 1.15541,-0.43629 1.93251,-0.63892 2.33594,-0.60547 z m -30.08594,5.51758 c 0.825,0 1.5,0.675 1.5,1.5 0,0.825 -0.675,1.5 -1.5,1.5 -0.825,0 -1.5,-0.675 -1.5,-1.5 0,-0.825 0.675,-1.5 1.5,-1.5 z m 4.88867,2.4043 c 1.15604,0.10485 2.61133,2.20197 2.61133,4.21875 0,2.61592 -0.95931,3.0192 -2.80078,1.17773 -1.30295,-1.30295 -1.59472,-4.0713 -0.54102,-5.125 0.21339,-0.21339 0.46369,-0.29568 0.73047,-0.27148 z m -13.11133,0.15625 c 0.39687,-0.0169 0.78051,0.0989 1.07617,0.39453 0.47918,0.47917 0.56876,1.3591 0.19922,1.95703 -0.86506,1.39966 -2.24948,1.38998 -3.12304,-0.0234 -0.64651,-1.04608 0.65704,-2.27749 1.84765,-2.32812 z m -8.71875,0.43941 c 0.79254,0 1.44141,0.675 1.44141,1.5 0,1.50623 -2.11148,2.05649 -3.30664,0.86133 -0.93324,-0.93324 0.19458,-2.36133 1.86523,-2.36133 z m 14.17578,0.39648 c 0.0768,0.009 0.15077,0.033 0.22071,0.0762 0.47077,0.29095 0.61984,1.43494 0.33008,2.54297 -0.63729,2.43703 -1.92476,3.37888 -2.76368,2.02148 -0.74878,-1.21156 1.06163,-4.77033 2.21289,-4.64063 z m 8.91797,9.31446 2.1875,2.34961 c 2.49396,2.67697 2.35586,4.27269 -0.41992,4.81054 -1.05302,0.20404 -2.90845,1.44154 -4.12109,2.75 -2.19338,2.3667 -2.75494,2.50087 -7.04883,1.67383 -2.5469,-0.49056 -3.01774,-2.78603 -0.75,-3.65625 0.825,-0.31658 1.5,-1.54323 1.5,-2.72461 0,-1.78939 0.44545,-2.0627 2.67383,-1.63672 1.90932,0.36499 3.14742,-0.0716 4.32617,-1.52734 z m 26.25782,1.4082 c 0.3046,-0.0317 0.59965,0.0586 0.8457,0.30469 0.34318,0.34317 -0.13665,1.38468 -1.06641,2.31445 -1.55895,1.55894 -1.68945,1.56164 -1.68945,0.0352 0,-1.36721 0.99634,-2.55912 1.91016,-2.6543 z m -3.91016,9.88086 c 0.55,0 1,0.45 1,1 0,0.55 -0.45,1 -1,1 -0.54999,0 -1,-0.45 -1,-1 0,-0.55 0.45001,-1 1,-1 z m 3.17383,3.30664 c 0.35426,0.01 0.74932,0.11041 1.18945,0.2793 1.53557,0.58925 1.72068,1.47138 1.22461,5.80469 -0.32174,2.81028 -0.48031,7.35937 -0.35352,10.10937 0.12677,2.75 0.23805,11.62159 0.24805,19.71484 0.015,12.69606 -0.22252,14.95559 -1.73242,16.46485 -1.6665,1.66578 -2.84036,1.31712 -2.84036,-1.07716 -0.47496,-3.49897 -0.50484,-4.54384 -0.72236,-8.06785 -0.52175,-3.71818 -0.22502,-5.5203 -0.10525,-22.23976 0.1194,-16.66688 0.61197,-21.05646 3.0918,-20.98828 z m -52.42578,0.73633 c 0.97285,-0.0815 2.14289,0.24836 2.93359,1.03906 0.77614,0.77614 1.66109,0.72137 3.12891,-0.19531 1.72103,-1.0748 2.60378,-0.9777 5.55078,0.60937 2.88924,1.55596 3.33328,2.20401 2.53515,3.69532 -1.30087,2.43072 -3.5372,2.29026 -4.20507,-0.26368 -0.51545,-1.97109 -0.66419,-1.9929 -3.04102,-0.43554 -2.29233,1.50202 -2.75196,1.50632 -5.57422,0.0469 -1.69191,-0.87492 -3.07617,-2.25357 -3.07617,-3.06445 0,-0.85694 0.7752,-1.35015 1.74805,-1.43164 z m 90.31054,0.95703 c 0.58245,0 0.76369,0.47785 0.40235,1.0625 -0.36134,0.58466 0.0742,1.87291 0.96875,2.86133 1.26874,1.40195 1.40601,2.37618 0.62304,4.43554 -1.22541,3.22305 -2.45118,3.33748 -4.49609,0.41797 -1.962,-2.80115 -1.98158,-4.67734 -0.0566,-5.41601 0.82501,-0.31659 1.5,-1.20259 1.5,-1.96875 0,-0.76615 0.47612,-1.39258 1.05859,-1.39258 z m -70.05859,4.00003 c 1.11111,0 2,0.66667 2,1.5 0,0.83333 -0.88889,1.5 -2,1.5 -1.11111,0 -2,-0.66667 -2,-1.5 0,-0.83333 0.88889,-1.5 2,-1.5 z m 5.93945,3 c 0.51754,0 1.22063,0.45 1.56055,1 0.33992,0.55 -0.0839,1 -0.94141,1 -0.85746,0 -1.55859,-0.45 -1.55859,-1 0,-0.55 0.42191,-1 0.93945,-1 z m 56.1875,0.0156 c 1.67996,-0.0158 4.51689,2.67256 3.69141,3.49804 -0.25598,0.25598 -1.88802,0.74988 -3.62695,1.09766 -2.44986,0.48997 -3.31,0.2451 -3.82227,-1.08985 -0.71095,-1.85271 1.0334,-3.48026 3.75781,-3.50585 z m -48.62695,2.98439 c 0.88993,0 1.33992,0.45 1,1 -0.33992,0.55 -0.78992,1 -1,1 -0.21008,0 -0.66008,-0.45 -1,-1 -0.33992,-0.55 0.11008,-1 1,-1 z m 50.53125,4 c 1.08322,0 1.96875,0.67464 1.96875,1.5 0,0.825 -0.62837,1.5 -1.39453,1.5 -0.76616,0 -1.65215,-0.675 -1.96875,-1.5 -0.39152,-1.02029 0.0555,-1.5 1.39453,-1.5 z m 98.9082,2 c 0.58247,0 1.06055,0.45 1.06055,1 0,0.55 -0.19888,1 -0.44141,1 -0.24255,0 -0.71867,-0.45 -1.05859,-1 -0.33992,-0.55 -0.14301,-1 0.43945,-1 z m -164.25,14.99996 c 2.77136,0 2.99987,2.06567 0.48047,4.3457 -1.00581,0.91025 -3.30955,1.6543 -5.12109,1.6543 -2.97433,0 -3.16575,-0.16969 -1.97071,-1.75 2.26567,-2.99609 4.21532,-4.25 6.61133,-4.25 z m 5.9375,2.68164 c 0.77969,0.0179 1.72035,0.17603 2.76563,0.50781 1.70843,0.54226 3.76854,1.19698 4.57812,1.45313 1.29597,0.41003 1.29597,0.5769 0,1.39648 -2.19248,1.38655 -6.20772,1.09581 -8.46679,-0.61133 -2.1035,-1.58957 -1.21602,-2.79988 1.12304,-2.74609 z m 109.83789,5.31842 c 1.27986,0 3.53516,2.82822 3.53516,4.43359 0,1.37668 -2.63444,0.38203 -3.75977,-1.41992 -1.59605,-2.5557 -1.56165,-3.01367 0.22461,-3.01367 z m 50.00782,9.98242 c 0.53785,-0.0907 1.02734,0.27927 1.02734,1.1836 0,0.64166 -0.60568,1.36856 -1.3457,1.61523 -0.84112,0.28038 -1.21599,-0.17604 -1,-1.21875 0.1941,-0.93707 0.78051,-1.48934 1.31836,-1.58008 z m -16.86133,0.40039 c 0.11953,-0.005 0.25117,0.0322 0.38867,0.11719 0.55,0.33992 1,1.04105 1,1.55859 0,0.51754 -0.45,0.94141 -1,0.94141 -0.54999,0 -1,-0.70113 -1,-1.55859 0,-0.64311 0.25274,-1.04272 0.61133,-1.0586 z m -8.61133,4.61719 c 0.55,0 1,0.45 1,1 0,0.55 -0.45,1 -1,1 -0.54999,0 -1,-0.45 -1,-1 0,-0.55 0.45001,-1 1,-1 z m 10.5,2 c 0.83334,0 1.5,0.88889 1.5,2 0,1.99224 -1.0662,2.60177 -2.33399,1.33398 -1.21792,-1.21793 -0.68842,-3.33398 0.83399,-3.33398 z"
       id="path4153"
       inkscape:connector-curvature="0"
       sodipodi:nodetypes="ccsssssssscssssssscssscssssssssssccsssscscccsscssssssssscsssssssscssssssscsssssscccsscsssssscsssssssssssssccssssssssssssssscssssssssssssssssssscsssssscscssssssssssssssccscsssscscccccscccsssscssscsscsccccssssccssssssssssssssscsssssssssssssssscsssssssscscsssscssscccssssssscssssscssssscssscsssssssssssssscsccccsssssscsssssssssscsssssssscccssssssssscssssssssssssscsssssssscssssssssssssssccccccsccssssssssssssssssssssscsscssscssssscsscsscssccsscscscsssscsscssssscssscssssssssssssscssccsscssssscsssscsscssssssssssccsscsscsssccssscsssssssccssssssssssssssssssscssscsssssssssscsssscssscsssscssssscssssssssscssssssssssssssssssssss" />
  </g>
</svg>
