<?xml version="1.0" encoding="UTF-8" standalone="no"?>
<!-- Created with Inkscape (http://www.inkscape.org/) -->

<svg
   xmlns:dc="http://purl.org/dc/elements/1.1/"
   xmlns:cc="http://creativecommons.org/ns#"
   xmlns:rdf="http://www.w3.org/1999/02/22-rdf-syntax-ns#"
   xmlns:svg="http://www.w3.org/2000/svg"
   xmlns="http://www.w3.org/2000/svg"
   xmlns:sodipodi="http://sodipodi.sourceforge.net/DTD/sodipodi-0.dtd"
   xmlns:inkscape="http://www.inkscape.org/namespaces/inkscape"
   width="677.90094"
   height="421.0148"
   id="svg5485"
   version="1.1"
   inkscape:version="0.91 r13725"
   sodipodi:docname="seamonster_cute.svg">
  <defs
     id="defs5487">
    <inkscape:perspective
       sodipodi:type="inkscape:persp3d"
       inkscape:vp_x="0 : 372.04724 : 1"
       inkscape:vp_y="0 : 1000 : 0"
       inkscape:vp_z="1052.3622 : 372.04724 : 1"
       inkscape:persp3d-origin="526.18109 : 248.03149 : 1"
       id="perspective19" />
    <inkscape:perspective
       id="perspective2845"
       inkscape:persp3d-origin="0.5 : 0.33333333 : 1"
       inkscape:vp_z="1 : 0.5 : 1"
       inkscape:vp_y="0 : 1000 : 0"
       inkscape:vp_x="0 : 0.5 : 1"
       sodipodi:type="inkscape:persp3d" />
    <inkscape:perspective
       id="perspective2845-7"
       inkscape:persp3d-origin="0.5 : 0.33333333 : 1"
       inkscape:vp_z="1 : 0.5 : 1"
       inkscape:vp_y="0 : 1000 : 0"
       inkscape:vp_x="0 : 0.5 : 1"
       sodipodi:type="inkscape:persp3d" />
    <inkscape:perspective
       id="perspective2845-0"
       inkscape:persp3d-origin="0.5 : 0.33333333 : 1"
       inkscape:vp_z="1 : 0.5 : 1"
       inkscape:vp_y="0 : 1000 : 0"
       inkscape:vp_x="0 : 0.5 : 1"
       sodipodi:type="inkscape:persp3d" />
    <inkscape:perspective
       id="perspective2845-4"
       inkscape:persp3d-origin="0.5 : 0.33333333 : 1"
       inkscape:vp_z="1 : 0.5 : 1"
       inkscape:vp_y="0 : 1000 : 0"
       inkscape:vp_x="0 : 0.5 : 1"
       sodipodi:type="inkscape:persp3d" />
    <inkscape:perspective
       id="perspective2845-8"
       inkscape:persp3d-origin="0.5 : 0.33333333 : 1"
       inkscape:vp_z="1 : 0.5 : 1"
       inkscape:vp_y="0 : 1000 : 0"
       inkscape:vp_x="0 : 0.5 : 1"
       sodipodi:type="inkscape:persp3d" />
    <inkscape:perspective
       id="perspective2842"
       inkscape:persp3d-origin="0.5 : 0.33333333 : 1"
       inkscape:vp_z="1 : 0.5 : 1"
       inkscape:vp_y="0 : 1000 : 0"
       inkscape:vp_x="0 : 0.5 : 1"
       sodipodi:type="inkscape:persp3d" />
    <inkscape:perspective
       id="perspective2842-7"
       inkscape:persp3d-origin="0.5 : 0.33333333 : 1"
       inkscape:vp_z="1 : 0.5 : 1"
       inkscape:vp_y="0 : 1000 : 0"
       inkscape:vp_x="0 : 0.5 : 1"
       sodipodi:type="inkscape:persp3d" />
    <inkscape:perspective
       id="perspective2842-0"
       inkscape:persp3d-origin="0.5 : 0.33333333 : 1"
       inkscape:vp_z="1 : 0.5 : 1"
       inkscape:vp_y="0 : 1000 : 0"
       inkscape:vp_x="0 : 0.5 : 1"
       sodipodi:type="inkscape:persp3d" />
    <inkscape:perspective
       id="perspective2842-4"
       inkscape:persp3d-origin="0.5 : 0.33333333 : 1"
       inkscape:vp_z="1 : 0.5 : 1"
       inkscape:vp_y="0 : 1000 : 0"
       inkscape:vp_x="0 : 0.5 : 1"
       sodipodi:type="inkscape:persp3d" />
    <inkscape:perspective
       id="perspective2842-8"
       inkscape:persp3d-origin="0.5 : 0.33333333 : 1"
       inkscape:vp_z="1 : 0.5 : 1"
       inkscape:vp_y="0 : 1000 : 0"
       inkscape:vp_x="0 : 0.5 : 1"
       sodipodi:type="inkscape:persp3d" />
    <inkscape:perspective
       id="perspective2842-45"
       inkscape:persp3d-origin="0.5 : 0.33333333 : 1"
       inkscape:vp_z="1 : 0.5 : 1"
       inkscape:vp_y="0 : 1000 : 0"
       inkscape:vp_x="0 : 0.5 : 1"
       sodipodi:type="inkscape:persp3d" />
    <inkscape:perspective
       id="perspective2842-1"
       inkscape:persp3d-origin="0.5 : 0.33333333 : 1"
       inkscape:vp_z="1 : 0.5 : 1"
       inkscape:vp_y="0 : 1000 : 0"
       inkscape:vp_x="0 : 0.5 : 1"
       sodipodi:type="inkscape:persp3d" />
    <inkscape:perspective
       id="perspective2842-11"
       inkscape:persp3d-origin="0.5 : 0.33333333 : 1"
       inkscape:vp_z="1 : 0.5 : 1"
       inkscape:vp_y="0 : 1000 : 0"
       inkscape:vp_x="0 : 0.5 : 1"
       sodipodi:type="inkscape:persp3d" />
    <inkscape:perspective
       id="perspective2842-76"
       inkscape:persp3d-origin="0.5 : 0.33333333 : 1"
       inkscape:vp_z="1 : 0.5 : 1"
       inkscape:vp_y="0 : 1000 : 0"
       inkscape:vp_x="0 : 0.5 : 1"
       sodipodi:type="inkscape:persp3d" />
    <inkscape:perspective
       id="perspective2842-2"
       inkscape:persp3d-origin="0.5 : 0.33333333 : 1"
       inkscape:vp_z="1 : 0.5 : 1"
       inkscape:vp_y="0 : 1000 : 0"
       inkscape:vp_x="0 : 0.5 : 1"
       sodipodi:type="inkscape:persp3d" />
    <inkscape:perspective
       id="perspective2842-22"
       inkscape:persp3d-origin="0.5 : 0.33333333 : 1"
       inkscape:vp_z="1 : 0.5 : 1"
       inkscape:vp_y="0 : 1000 : 0"
       inkscape:vp_x="0 : 0.5 : 1"
       sodipodi:type="inkscape:persp3d" />
    <inkscape:perspective
       id="perspective2842-85"
       inkscape:persp3d-origin="0.5 : 0.33333333 : 1"
       inkscape:vp_z="1 : 0.5 : 1"
       inkscape:vp_y="0 : 1000 : 0"
       inkscape:vp_x="0 : 0.5 : 1"
       sodipodi:type="inkscape:persp3d" />
    <inkscape:perspective
       id="perspective2842-18"
       inkscape:persp3d-origin="0.5 : 0.33333333 : 1"
       inkscape:vp_z="1 : 0.5 : 1"
       inkscape:vp_y="0 : 1000 : 0"
       inkscape:vp_x="0 : 0.5 : 1"
       sodipodi:type="inkscape:persp3d" />
  </defs>
  <sodipodi:namedview
     id="base"
     pagecolor="#ffffff"
     bordercolor="#666666"
     borderopacity="1.0"
     inkscape:pageopacity="0.0"
     inkscape:pageshadow="2"
     inkscape:zoom="0.82382011"
     inkscape:cx="307.31635"
     inkscape:cy="225.33684"
     inkscape:document-units="px"
     inkscape:current-layer="layer1"
     showgrid="false"
     inkscape:window-width="1440"
     inkscape:window-height="838"
     inkscape:window-x="-8"
     inkscape:window-y="-8"
     inkscape:window-maximized="1"
     inkscape:object-nodes="false"
     fit-margin-top="0"
     fit-margin-left="0"
     fit-margin-right="0"
     fit-margin-bottom="0" />
  <metadata
     id="metadata5490">
    <rdf:RDF>
      <cc:Work
         rdf:about="">
        <dc:format>image/svg+xml</dc:format>
        <dc:type
           rdf:resource="http://purl.org/dc/dcmitype/StillImage" />
        <dc:title></dc:title>
      </cc:Work>
    </rdf:RDF>
  </metadata>
  <g
     inkscape:label="Layer 1"
     inkscape:groupmode="layer"
     id="layer1"
     transform="translate(-156.35909,-484.63698)">
    <path
       style="fill:#cdde87;stroke:#28170b;stroke-width:3;stroke-miterlimit:4;stroke-opacity:1"
       d="m 272.76704,812.05638 c 5.98329,16.26873 61.05891,11.93525 76.9024,68.52208 2.70923,9.67636 -80.9131,30.66421 -79.57382,21.1534 4.04245,-28.70728 -20.66345,-50.54648 -28.15381,-46.24116 -29.96142,17.22128 -66.72353,39.93555 -80.03088,16.78355 -13.30736,-23.15201 8.21837,-71.16524 38.17978,-88.38652 29.96141,-17.22128 63.45881,3.10596 72.67633,28.16865 z"
       id="path5527"
       inkscape:connector-curvature="0"
       sodipodi:nodetypes="sssssss" />
    <path
       style="fill:#f4e3d7;stroke:#28170b;stroke-width:1px;stroke-linecap:butt;stroke-linejoin:miter;stroke-opacity:1"
       d="m 187.03869,786.31857 c 3.16507,-5.44766 10.47908,-12.75088 23.46364,-12.73741 12.98456,0.0135 -28.10107,-23.20541 -32.1787,-19.44129 -4.07763,3.76412 5.54999,37.62636 8.71506,32.1787 z"
       id="path5532"
       inkscape:connector-curvature="0"
       sodipodi:nodetypes="zzzz" />
    <path
       style="fill:#f4e3d7;stroke:#28170b;stroke-width:1px;stroke-linecap:butt;stroke-linejoin:miter;stroke-opacity:1"
       d="m 216.90679,772.82433 c 5.67689,-2.73269 15.82912,-1.32085 26.56862,2.62527 10.7395,3.94612 -6.2135,-32.9658 -11.7009,-32.13867 -5.4874,0.82712 -20.54461,32.24609 -14.86772,29.5134 z"
       id="path5532-2"
       inkscape:connector-curvature="0"
       sodipodi:nodetypes="zzzz" />
    <path
       style="fill:#f4e3d7;stroke:#28170b;stroke-width:1px;stroke-linecap:butt;stroke-linejoin:miter;stroke-opacity:1"
       d="m 250.04664,779.62805 c 6.19899,1.1257 15.55291,5.52299 19.95224,17.73957 4.39931,12.21659 14.95787,-25.59898 10.03218,-28.15499 -4.9257,-2.55601 -36.1834,9.28971 -29.98442,10.41542 z"
       id="path5532-8"
       inkscape:connector-curvature="0"
       sodipodi:nodetypes="zzzz" />
    <path
       style="fill:#f4e3d7;stroke:#28170b;stroke-width:1.88212872;stroke-miterlimit:4;stroke-opacity:1"
       d="m 221.17478,834.38008 c 1.65306,1.17223 0.46635,4.10123 -2.65059,6.54207 -3.11694,2.44085 -10.73431,8.09044 -12.38737,6.91821 -1.65307,-1.17223 3.28415,-8.72241 6.40108,-11.16326 3.11695,-2.44085 6.98381,-3.46926 8.63688,-2.29702 z"
       id="path5559"
       inkscape:connector-curvature="0"
       sodipodi:nodetypes="sssss" />
    <path
       style="fill:none;stroke:#000000;stroke-width:1px;stroke-linecap:butt;stroke-linejoin:miter;stroke-opacity:1"
       d="m 193.0722,879.50272 c 39.55299,-38.21221 35.53065,-43.57533 35.53065,-43.57533"
       id="path5562"
       inkscape:connector-curvature="0"
       sodipodi:nodetypes="cc" />
    <path
       style="fill:#cdde87;stroke:#28170b;stroke-width:3;stroke-miterlimit:4;stroke-opacity:1"
       d="m 635.54049,881.87143 c 4.08615,6.06415 -44.28767,18.89098 -60.30068,4.98147 -15.12816,-13.14091 -33.06109,-26.09875 -63.05101,-26.09875 -29.98992,0 -31.6659,11.61705 -51.31919,23.41719 -17.58782,10.56 -61.97665,5.01244 -61.97665,-2.29992 0,-14.62471 47.95288,-64.69259 107.93272,-64.69259 59.97985,0 99.88806,21.91152 128.71481,64.6926 z"
       id="path5600"
       inkscape:connector-curvature="0"
       sodipodi:nodetypes="sssssss" />
    <path
       style="fill:#cdde87;stroke:#28170b;stroke-width:3;stroke-miterlimit:4;stroke-opacity:1"
       d="m 728.06392,660.17987 c 15.40359,-0.46809 28.03108,50.14628 29.96944,113.93295 1.93837,63.78666 -0.39164,63.64573 -9.35595,110.61972 -1.44439,7.56876 -43.68631,16.13762 -49.36867,-4.60966 -5.68236,-20.74729 17.5065,-64.5514 16.53732,-96.44473 -1.93837,-63.78666 -3.18573,-123.03019 12.21786,-123.49828 z"
       id="path5606"
       inkscape:connector-curvature="0"
       sodipodi:nodetypes="ssssss" />
    <g
       transform="matrix(3.3948707,0,0,3.2968679,-1746.339,311.71846)"
       style="font-style:normal;font-variant:normal;font-weight:normal;font-stretch:normal;font-size:48px;line-height:125%;font-family:'Blackadder ITC';-inkscape-font-specification:'Blackadder ITC';text-align:start;letter-spacing:0px;word-spacing:0px;writing-mode:lr-tb;text-anchor:start;fill:#000000;fill-opacity:1;stroke:none"
       id="flowRoot5609">
      <path
         d="m 760.14648,55.027457 -0.51562,2.414062 -0.51563,0.1875 -0.51562,0.65625 -0.84375,0.328125 -0.375,0.515625 q -0.84375,0.234375 -1.5,0.890625 l -0.91406,0.140625 -0.65625,-0.140625 q -0.42188,0.140625 -2.39063,0.140625 -0.375,0 -1.40625,-0.445312 -1.03125,-0.445313 -1.5,-0.445313 -0.1875,0 -0.32812,0.04687 l -1.40625,1.03125 -0.14063,0.328125 -0.375,0.328125 0,0.375 -0.46875,0.515625 -0.39844,0.140625 0,0.1875 -0.84375,0.84375 -0.1875,0.515625 -0.32812,0.328125 -0.1875,0.515625 q -0.375,0.351563 -0.84375,1.03125 l -0.14063,0 -0.375,1.242188 -0.51562,0.515625 -0.32813,1.6875 q -0.5625,0.9375 -1.875,2.71875 -0.0937,0.796875 -0.51562,1.21875 l 0,0.84375 q -0.30469,0.65625 -0.70313,2.25 -0.53906,0.539062 -1.05468,1.96875 -0.51563,1.40625 -1.14844,1.945312 l -0.51563,1.21875 0.1875,0.1875 -0.39843,0.328125 0,0.515625 -0.32813,0.328125 q -0.67969,3.164063 -0.67969,3.984375 0,0.257813 0.0234,0.492188 l -0.375,0.84375 0.375,1.359375 q 0.25781,0.539062 0.65625,1.359375 l 0.32813,0.1875 q 0.42187,0.609375 0.91406,1.03125 l 0,0.65625 -0.70313,0.890625 -0.86718,0.140625 -1.54688,-0.65625 -0.65625,0 q -0.28125,-0.28125 -0.82031,-1.40625 -0.53906,-1.125 -1.10156,-1.6875 l -0.14063,0 -0.375,-0.328125 -0.1875,-0.515625 q -0.0234,-1.101563 0.1875,-3.257813 -0.14062,-0.28125 -0.14062,-1.546875 0,-0.234375 0.1875,-0.820312 0.1875,-0.585938 0.14062,-0.914063 -0.32812,-0.5625 -0.65625,-0.84375 -0.42187,-2.109375 -0.42187,-3.046875 0,-0.515625 0.14062,-1.804687 0.11719,-1.171875 0.0937,-1.828125 l 0.1875,-0.1875 q -0.35156,-0.351563 -0.89062,-0.65625 -0.0937,-0.914063 -0.32813,-1.359375 l -0.1875,0 q -0.51562,0.65625 -0.84375,1.875 l -0.32812,0.328125 0,1.21875 -0.70313,1.898437 -0.86719,0.984375 -0.1875,0 -0.14062,0.890625 -1.03125,0.84375 q -0.11719,0.5625 -0.67969,1.523438 -0.75,1.21875 -0.86719,1.476562 l -0.9375,0.5625 q -0.49218,1.523438 -1.96875,2.601563 l 0,0.1875 -0.84375,0.84375 0,0.328125 -0.51562,0.703125 -1.54688,1.03125 -0.32812,1.171875 q -0.86719,0.257812 -1.24219,0.703125 l -0.84375,0 -0.65625,0.328125 -0.1875,0.328125 -0.84375,0 -1.54687,0.703125 q -0.63282,-0.04687 -1.6875,-0.609375 -1.05469,-0.5625 -1.40625,-1.078125 l -0.32813,-0.890625 -0.70312,-0.515625 -1.38282,-2.71875 0.1875,-1.054688 q 0.77344,-1.054687 2.22657,-3.234375 l 0,-0.328125 0.51562,-0.515625 q 0.91406,-0.351562 1.35938,-0.703125 0.98437,-0.140625 1.03125,-0.140625 0.0469,0 0.35156,0.07031 0.30469,0.07031 0.35156,0.07031 1.14844,0.890625 1.35938,1.734375 l 0,0.65625 q 0,0.28125 -0.1875,0.84375 l -0.14063,0 -0.1875,1.03125 -1.03125,0.515625 -0.32812,-0.140625 -0.1875,-0.1875 -0.14063,0 -0.51562,-0.84375 -1.35938,-0.375 -0.375,-0.515625 -0.32812,0 q -0.0703,0.398438 -0.53907,1.546875 -0.39843,0.984375 -0.39843,1.570313 0,0.234375 0.0937,0.703125 l 0.51562,0.328125 q 0.35156,0.75 1.17188,2.203125 l 1.35937,1.03125 q 1.66406,-0.421875 3.09375,-1.546875 l 0.51563,0 q 0.375,-0.46875 1.03125,-1.5 l 0.51562,-0.375 0.86719,-1.546875 0.9375,-0.539063 q 0.65625,-1.289062 2.8125,-3.5625 0.51562,-0.398437 1.54687,-1.359375 0.35157,-0.492187 1.17188,-1.359375 0.53906,-1.640625 1.03125,-2.25 l 0.1875,0 0.1875,-0.515625 0.65625,-0.328125 q 0.35156,-2.953125 1.75781,-5.132812 -0.0937,-1.265625 0.65625,-2.25 l 0,-0.328125 0.84375,-2.0625 -0.14062,-1.523438 -0.1875,-0.1875 -1.5,0.515625 q -1.92188,-0.04687 -4.52344,-0.960937 -3.11719,-1.101563 -4.26563,-1.289063 l -0.32812,-0.328125 -1.89844,0 q -1.38281,0.796875 -3.5625,0.703125 -0.67969,0.164063 -2.0625,1.546875 l -0.84375,0.328125 -1.21875,1.898438 q -0.11719,0.960937 -0.51562,1.359375 l 0.1875,0.328125 0.65625,-0.65625 0.89062,-0.328125 q 0.82031,0.515625 2.01563,0.984375 l 0.51562,0.890625 0,0.65625 -0.32812,0 0.1875,2.0625 q 1.47656,0.421875 2.90625,1.171875 l 0.46875,-0.140625 0.51562,-0.515625 0,-0.1875 0.51563,-0.328125 -0.51563,-1.21875 0,-0.515625 q 0.375,-0.09375 1.42969,-0.703125 0.84375,-0.46875 1.5,-0.46875 l 0,-0.1875 0.70312,0.1875 q 0.30469,0.5625 0.84375,1.171875 l 0,0.515625 q -1.03125,0.914062 -1.17187,1.875 -1.64063,0.515625 -2.39063,1.40625 l -0.91406,0.140625 -0.65625,-0.140625 -0.70312,0.140625 -1.17188,-0.515625 -0.84375,0 -0.70312,-0.515625 q -1.47657,-0.02344 -3.04688,-1.734375 -1.875,-2.015625 -2.41406,-2.25 l -0.375,-0.9375 0.1875,-0.703125 0.67969,-0.65625 0.375,-1.945313 1.35937,-0.984375 0.14063,0 0.375,-0.703125 q 0.46875,-0.304687 1.35937,-0.703125 l 0.14063,-0.328125 1.03125,-0.515625 0.51562,0 0.84375,-0.328125 q 0.5625,0.02344 3.5625,-0.1875 3,-0.210937 3.49219,-0.328125 0.5625,0.820313 2.4375,1.546875 1.78125,0.679688 3.09375,0.679688 0.23437,0 0.42187,-0.02344 l 0.53907,-0.328125 1.03125,0 1.73437,-0.65625 0.51563,-0.703125 0.65625,0.1875 0.70312,-0.515625 1.35938,0 0.1875,0.515625 0.14062,0 -0.32812,2.015625 0.1875,0.890625 0.98437,0.328125 q 0.32813,0.609375 0.1875,1.710938 l -0.84375,0.703125 -0.1875,1.03125 0.375,1.359375 0.46875,0.328125 0,0.515625 0.1875,0.1875 0,1.171875 0.1875,0 q -0.1875,0.5625 -0.1875,0.84375 0,-0.75 0.32813,5.320312 l 0.1875,0.1875 -0.1875,0.328125 0.1875,0.703125 0.84375,-0.84375 0.51562,-1.21875 0.53906,-0.515625 0.32813,-1.382812 0.1875,0 q 0.375,-0.75 0.51562,-1.171875 l 0.1875,0 0,-0.890625 0.51563,-0.84375 0,-0.65625 0.65625,-1.546875 0.32812,-0.1875 q 0.65625,-1.828125 1.21875,-2.390625 l 0.32813,-1.171875 0.375,-0.375 q 0.1875,-0.890625 1.52344,-2.554688 1.35937,-1.6875 1.52343,-2.390625 l 0.84375,-0.515625 0.1875,-0.890625 0.1875,-0.140625 0.32813,-0.703125 0.72656,-0.65625 0,-0.1875 -0.91406,-0.84375 -2.20313,0 q -0.14062,0 -0.5625,0.09375 -1.28906,0.117188 -3.89062,0.421875 0.1875,0.304688 0.1875,1.359375 l -0.51563,1.6875 -0.32812,0.375 -1.03125,-0.1875 -0.375,-1.21875 -0.32813,-0.328125 -1.57031,-0.328125 -0.84375,-0.84375 0,-0.515625 0.1875,-0.375 0.32813,0 0.51562,-0.328125 q 1.125,-0.140625 1.17188,-0.140625 0.0703,0 3.44531,0.140625 l 0.375,-0.328125 q 2.97656,-1.078125 6.16406,-0.867187 l 0.51563,0.351562 0.14062,0.515625 q 0.60938,0.28125 1.40625,0.1875 0.79688,-1.03125 1.875,-1.570312 l 0.32813,-0.703125 q 0.84375,-0.5625 2.57812,-1.546875 0.60938,-0.09375 1.6875,-0.65625 1.73438,-0.07031 3.63281,-0.703125 1.26563,0.9375 1.6875,1.734375 l 0.1875,0.84375 z m -3.9375,0.84375 -0.86718,-0.515625 0.14062,-0.515625 q -1.59375,0 -3.42187,1.21875 l -0.32813,0.515625 -0.65625,0.140625 -1.03125,1.242187 0.65625,0.515625 0.89063,0 0.46875,0.328125 q 2.69531,-0.304687 2.57812,-0.328125 l 0.70313,-0.375 q 0.375,-0.679687 0.86718,-2.226562 z"
         style=""
         id="path4183" />
    </g>
    <path
       style="fill:#f4e3d7;stroke:#28170b;stroke-width:1px;stroke-linecap:butt;stroke-linejoin:miter;stroke-opacity:1"
       d="m 517.19701,814.02066 c 5.67689,-2.73269 15.82912,-1.32085 26.56862,2.62527 10.7395,3.94612 -6.2135,-32.9658 -11.7009,-32.13867 -5.4874,0.82712 -20.54461,32.24609 -14.86772,29.5134 z"
       id="path5532-2-1"
       inkscape:connector-curvature="0"
       sodipodi:nodetypes="zzzz" />
    <path
       style="fill:#f4e3d7;stroke:#28170b;stroke-width:1px;stroke-linecap:butt;stroke-linejoin:miter;stroke-opacity:1"
       d="m 551.99234,818.14035 c 6.06922,-1.69092 15.81451,1.48563 25.69187,7.26027 9.87736,5.77464 -0.31465,-33.54478 -5.86197,-33.69633 -5.54732,-0.15155 -25.89912,28.12698 -19.8299,26.43606 z"
       id="path5532-2-4"
       inkscape:connector-curvature="0"
       sodipodi:nodetypes="zzzz" />
    <path
       style="fill:#f4e3d7;stroke:#28170b;stroke-width:1px;stroke-linecap:butt;stroke-linejoin:miter;stroke-opacity:1"
       d="m 481.45193,816.94243 c 4.92799,-3.92549 15.1402,-4.80418 26.48796,-3.34237 11.34777,1.46178 -13.38139,-30.76183 -18.54795,-28.73638 -5.16655,2.02545 -12.86801,36.00425 -7.94001,32.07875 z"
       id="path5532-2-9"
       inkscape:connector-curvature="0"
       sodipodi:nodetypes="zzzz" />
    <path
       style="fill:#f4e3d7;stroke:#28170b;stroke-width:1px;stroke-linecap:butt;stroke-linejoin:miter;stroke-opacity:1"
       d="m 449.14108,828.9303 c 3.36782,-5.3247 12.72686,-9.50436 23.92632,-11.84546 11.19946,-2.34111 -22.73093,-24.67097 -26.94731,-21.06295 -4.21639,3.60801 -0.34682,38.23312 3.02099,32.90841 z"
       id="path5532-2-8"
       inkscape:connector-curvature="0"
       sodipodi:nodetypes="zzzz" />
    <path
       style="fill:#f4e3d7;stroke:#28170b;stroke-width:1px;stroke-linecap:butt;stroke-linejoin:miter;stroke-opacity:1"
       d="m 420.07097,847.46541 c 2.28084,-5.87302 10.66127,-11.77466 21.20138,-16.22605 10.54011,-4.45138 -27.05151,-19.83853 -30.49525,-15.48694 -3.44373,4.35159 7.01303,37.58602 9.29387,31.71299 z"
       id="path5532-2-2"
       inkscape:connector-curvature="0"
       sodipodi:nodetypes="zzzz" />
    <path
       style="fill:#f4e3d7;stroke:#28170b;stroke-width:1px;stroke-linecap:butt;stroke-linejoin:miter;stroke-opacity:1"
       d="m 395.90981,872.81421 c 0.87116,-6.23986 7.67231,-13.90831 16.90846,-20.66125 9.23616,-6.75294 -30.88441,-13.09599 -33.23677,-8.06985 -2.35236,5.02613 15.45716,34.97095 16.32831,28.7311 z"
       id="path5532-2-2-1"
       inkscape:connector-curvature="0"
       sodipodi:nodetypes="zzzz" />
    <path
       style="fill:#f4e3d7;stroke:#28170b;stroke-width:1px;stroke-linecap:butt;stroke-linejoin:miter;stroke-opacity:1"
       d="m 586.91798,830.3722 c 6.294,0.28342 14.56523,6.33714 22.15283,14.90086 7.58758,8.56371 10.14847,-31.97436 4.92426,-33.84608 -5.2242,-1.87171 -33.37108,18.66179 -27.07709,18.94522 z"
       id="path5532-2-2-4"
       inkscape:connector-curvature="0"
       sodipodi:nodetypes="zzzz" />
    <path
       style="fill:#f4e3d7;stroke:#28170b;stroke-width:1px;stroke-linecap:butt;stroke-linejoin:miter;stroke-opacity:1"
       d="m 616.7423,852.83026 c 6.06691,1.69918 12.75519,9.46629 18.21,19.52381 5.45481,10.05753 17.11518,-28.85173 12.44946,-31.85618 -4.66572,-3.00445 -36.72638,10.6332 -30.65946,12.33237 z"
       id="path5532-2-2-9"
       inkscape:connector-curvature="0"
       sodipodi:nodetypes="zzzz" />
    <path
       style="fill:#f4e3d7;stroke:#28170b;stroke-width:1px;stroke-linecap:butt;stroke-linejoin:miter;stroke-opacity:1"
       d="m 340.50181,853.61195 c 5.57827,2.92875 10.49697,11.92138 13.73106,22.89632 3.23408,10.97495 22.76324,-24.64115 18.82786,-28.55376 -3.93538,-3.91259 -38.1372,2.7287 -32.55892,5.65744 z"
       id="path5532-2-2-8"
       inkscape:connector-curvature="0"
       sodipodi:nodetypes="zzzz" />
    <path
       style="fill:#f4e3d7;stroke:#28170b;stroke-width:1px;stroke-linecap:butt;stroke-linejoin:miter;stroke-opacity:1"
       d="m 314.79982,829.00215 c 6.20313,1.10264 13.61332,8.1843 20.01805,17.66524 6.40472,9.48095 14.23566,-30.37594 9.30049,-32.91362 -4.93516,-2.53767 -35.52168,14.14574 -29.31854,15.24838 z"
       id="path5532-2-2-2"
       inkscape:connector-curvature="0"
       sodipodi:nodetypes="zzzz" />
    <path
       style="fill:#f4e3d7;stroke:#28170b;stroke-width:1px;stroke-linecap:butt;stroke-linejoin:miter;stroke-opacity:1"
       d="m 280.98572,814.67116 c 6.18672,-1.19127 15.64107,2.76806 25.01559,9.32757 9.3745,6.55953 2.41704,-33.45907 -3.09953,-34.06169 -5.51656,-0.6026 -28.10278,25.92538 -21.91606,24.73412 z"
       id="path5532-2-2-5"
       inkscape:connector-curvature="0"
       sodipodi:nodetypes="zzzz" />
    <path
       style="fill:#f4e3d7;stroke:#28170b;stroke-width:1px;stroke-linecap:butt;stroke-linejoin:miter;stroke-opacity:1"
       d="m 696.35892,888.7685 c -3.78459,-5.03702 -4.37418,-15.26997 -2.59211,-26.57187 1.78208,-11.3019 -31.12787,12.50628 -29.24931,17.72803 1.87856,5.22174 35.62602,13.88085 31.84142,8.84384 z"
       id="path5532-2-2-7"
       inkscape:connector-curvature="0"
       sodipodi:nodetypes="zzzz" />
    <path
       style="fill:#f4e3d7;stroke:#28170b;stroke-width:1px;stroke-linecap:butt;stroke-linejoin:miter;stroke-opacity:1"
       d="m 696.17386,853.74785 c -1.80719,-6.03562 1.18161,-15.84011 6.76546,-25.82657 5.58386,-9.98646 -33.53255,0.9589 -33.57752,6.5081 -0.045,5.5492 28.61925,25.35409 26.81206,19.31847 z"
       id="path5532-2-2-52"
       inkscape:connector-curvature="0"
       sodipodi:nodetypes="zzzz" />
    <path
       style="fill:#f4e3d7;stroke:#28170b;stroke-width:1px;stroke-linecap:butt;stroke-linejoin:miter;stroke-opacity:1"
       d="m 705.47914,818.48791 c -2.26289,-5.87996 -0.0317,-15.88409 4.77316,-26.26785 4.80483,-10.38376 -33.36137,3.51718 -32.98239,9.05361 0.379,5.53642 30.47211,23.09421 28.20923,17.21424 z"
       id="path5532-2-2-14"
       inkscape:connector-curvature="0"
       sodipodi:nodetypes="zzzz" />
    <path
       style="fill:#f4e3d7;stroke:#28170b;stroke-width:1px;stroke-linecap:butt;stroke-linejoin:miter;stroke-opacity:1"
       d="m 711.53343,778.72939 c -3.7062,-5.09497 -4.1374,-15.33582 -2.18068,-26.60879 1.95672,-11.27298 -31.31765,12.02318 -29.5201,17.27337 1.79755,5.25018 35.40699,14.43039 31.70078,9.33542 z"
       id="path5532-2-2-3"
       inkscape:connector-curvature="0"
       sodipodi:nodetypes="zzzz" />
    <path
       style="fill:#f4e3d7;stroke:#28170b;stroke-width:1px;stroke-linecap:butt;stroke-linejoin:miter;stroke-opacity:1"
       d="m 711.23494,740.47144 c -3.38993,-5.31065 -3.19837,-15.55878 -0.56062,-26.69211 2.63775,-11.13333 -31.99005,10.09898 -30.51467,15.44864 1.47537,5.34966 34.46523,16.55413 31.07529,11.24347 z"
       id="path5532-2-2-16"
       inkscape:connector-curvature="0"
       sodipodi:nodetypes="zzzz" />
    <path
       style="fill:#f4e3d7;stroke:#28170b;stroke-width:1px;stroke-linecap:butt;stroke-linejoin:miter;stroke-opacity:1"
       d="m 711.41798,704.16273 c -3.14806,-5.45751 2.51179,-14.97122 0.63841,-26.69037 -1.87338,-11.71915 -32.41123,8.65238 -31.17756,14.0629 1.23368,5.41051 33.68716,18.08498 30.53911,12.62747 l 4e-5,0 z"
       id="path5532-2-2-76"
       inkscape:connector-curvature="0"
       sodipodi:nodetypes="czzzc" />
    <path
       style="fill:#f4e3d7;stroke:#28170b;stroke-width:1px;stroke-linecap:butt;stroke-linejoin:miter;stroke-opacity:1"
       d="m 712.51493,669.22273 c 2.28084,-5.87302 3.50651,-12.49014 17.624,-14.07962 14.11749,-1.58949 -25.62056,-21.98496 -29.0643,-17.63337 -3.44373,4.35159 9.15946,37.58602 11.4403,31.71299 z"
       id="path5532-2-2-92"
       inkscape:connector-curvature="0"
       sodipodi:nodetypes="czzz" />
  </g>
</svg>
