<?xml version="1.0" encoding="UTF-8" standalone="no"?>
<!-- Created with Inkscape (http://www.inkscape.org/) -->

<svg
   xmlns:dc="http://purl.org/dc/elements/1.1/"
   xmlns:cc="http://creativecommons.org/ns#"
   xmlns:rdf="http://www.w3.org/1999/02/22-rdf-syntax-ns#"
   xmlns:svg="http://www.w3.org/2000/svg"
   xmlns="http://www.w3.org/2000/svg"
   xmlns:sodipodi="http://sodipodi.sourceforge.net/DTD/sodipodi-0.dtd"
   xmlns:inkscape="http://www.inkscape.org/namespaces/inkscape"
   width="6.1677017mm"
   height="18.686062mm"
   viewBox="0 0 21.854061 66.210456"
   id="svg2"
   version="1.1"
   inkscape:version="0.91 r13725"
   sodipodi:docname="yetti.svg">
  <defs
     id="defs4" />
  <sodipodi:namedview
     id="base"
     pagecolor="#ffffff"
     bordercolor="#666666"
     borderopacity="1.0"
     inkscape:pageopacity="0.0"
     inkscape:pageshadow="2"
     inkscape:zoom="2.3793371"
     inkscape:cx="-28.851084"
     inkscape:cy="-10.323718"
     inkscape:document-units="px"
     inkscape:current-layer="layer1"
     showgrid="false"
     fit-margin-top="0"
     fit-margin-left="0"
     fit-margin-right="0"
     fit-margin-bottom="0"
     inkscape:window-width="1440"
     inkscape:window-height="838"
     inkscape:window-x="-8"
     inkscape:window-y="-8"
     inkscape:window-maximized="1" />
  <metadata
     id="metadata7">
    <rdf:RDF>
      <cc:Work
         rdf:about="">
        <dc:format>image/svg+xml</dc:format>
        <dc:type
           rdf:resource="http://purl.org/dc/dcmitype/StillImage" />
        <dc:title></dc:title>
      </cc:Work>
    </rdf:RDF>
  </metadata>
  <g
     inkscape:label="Layer 1"
     inkscape:groupmode="layer"
     id="layer1"
     transform="translate(-793.90987,-909.63439)">
    <path
       inkscape:connector-curvature="0"
       id="path4169"
       d="m 798.23533,975.79165 c -0.9851,-0.1356 -3.3678,-1.2994 -3.9902,-1.949 -0.3689,-0.3851 -0.404,-0.4904 -0.247,-0.7417 0.1006,-0.1611 0.1829,-0.488 0.1829,-0.7265 0,-0.2386 0.1012,-0.5177 0.225,-0.6204 0.1237,-0.1028 0.225,-0.317 0.225,-0.4762 0,-0.1592 0.134,-0.539 0.2977,-0.8441 0.4848,-0.9035 1.0521,-2.2179 1.0549,-2.4442 0.001,-0.1158 0.2027,-0.548 0.4474,-0.9605 0.524,-0.8835 0.5796,-1.695 0.1909,-2.7893 -0.2251,-0.6338 -0.2325,-0.7937 -0.056,-1.2201 0.1114,-0.2699 0.2691,-1.0221 0.3504,-1.6717 0.1598,-1.2772 0.094,-1.4369 -0.5954,-1.4417 -0.5867,0 -1.3862,-1.6236 -1.408,-2.8523 -0.016,-0.8781 0.8139,-3.3038 1.3726,-4.0141 0.1658,-0.2107 0.4064,-0.7606 0.5347,-1.222 0.4715,-1.6951 0.8552,-2.7947 1.0557,-3.0257 0.36,-0.4146 0.1373,-2.5241 -0.3387,-3.209 -0.1132,-0.1628 -0.2057,-0.5131 -0.2057,-0.7787 0,-0.2655 -0.067,-0.5245 -0.15,-0.5754 -0.082,-0.051 -0.15,-0.3115 -0.15,-0.5789 0,-0.2674 -0.073,-0.5595 -0.1631,-0.6493 -0.1175,-0.1175 -0.051,-0.5769 0.2391,-1.6425 0.2212,-0.8136 0.4572,-1.5468 0.5244,-1.6293 0.2062,-0.2529 0.7073,-1.9096 0.8013,-2.6493 0.051,-0.3979 -0.01,-1.2059 -0.1383,-1.875 -0.3148,-1.6292 -0.3702,-4.3584 -0.093,-4.58839 0.1344,-0.11151 0.1813,-0.34425 0.1314,-0.65174 -0.079,-0.48898 0.078,-0.8277 0.7255,-1.56063 0.1822,-0.20625 0.5895,-1.05 0.9052,-1.875 0.3157,-0.825 0.6234,-1.55877 0.6839,-1.63059 0.1713,-0.20363 0.3316,1.19745 0.2393,2.09184 -0.046,0.44276 -0.1692,1.04324 -0.2745,1.33438 -0.1509,0.41749 -0.1533,0.63466 -0.011,1.02752 0.099,0.27398 0.1802,0.77585 0.1802,1.11524 0,0.33937 0.077,0.80707 0.172,1.03937 0.095,0.2322 0.1833,0.7935 0.1971,1.2472 0.041,1.3607 0.2617,3.0623 0.4227,3.2661 0.089,0.1122 0.1135,0.5912 0.061,1.1594 -0.071,0.7589 -0.031,1.1009 0.1841,1.5814 0.1885,0.4211 0.251,0.8216 0.1995,1.2782 l -0.075,0.6649 0.6048,0 c 0.6417,0 0.9662,-0.2801 1.7374,-1.5 0.3048,-0.4821 0.3989,-0.5287 1.1519,-0.571 0.451,-0.025 0.8791,-0.1048 0.9515,-0.1766 0.2216,-0.2197 0.8805,0.1275 1.6232,0.8555 0.5997,0.5877 0.6812,0.7348 0.5466,0.9864 -0.087,0.1626 -0.1172,0.5527 -0.067,0.8667 0.052,0.3236 0.026,0.6112 -0.059,0.6639 -0.083,0.051 -0.1504,0.3714 -0.1504,0.7118 0,0.3994 -0.1011,0.7289 -0.2849,0.9287 -0.3791,0.412 -0.7651,1.5991 -0.7651,2.3528 0,1.4486 0.9184,3.9553 1.6192,4.4195 0.1893,0.1254 0.4083,0.3965 0.4866,0.6025 0.1529,0.4021 0.9387,0.8099 1.5609,0.8099 0.2317,0 0.467,0.1382 0.6121,0.3596 0.1356,0.207 0.4457,0.3991 0.7305,0.4525 0.3281,0.062 0.552,0.2183 0.6646,0.4653 0.093,0.2049 0.2352,0.3726 0.3153,0.3726 0.2956,0 1.0594,0.9816 1.0601,1.3623 0,0.2677 0.1767,0.5289 0.5702,0.8451 0.3415,0.2745 0.638,0.681 0.7408,1.0158 l 0.1713,0.5581 -0.4783,-0.073 c -0.2631,-0.04 -0.6848,0.011 -0.9371,0.1147 -0.3842,0.1575 -0.5915,0.1465 -1.275,-0.067 -0.4489,-0.1405 -1.0685,-0.4285 -1.377,-0.64 -0.3084,-0.2115 -0.8924,-0.4641 -1.2979,-0.5613 -0.4724,-0.1134 -0.8749,-0.3315 -1.1208,-0.6075 -0.2207,-0.2477 -0.6096,-0.473 -0.9154,-0.5304 -0.3173,-0.06 -0.6788,-0.2745 -0.8963,-0.533 -0.3178,-0.3777 -0.9292,-0.733 -1.2611,-0.733 -0.059,0 -0.4743,0.2361 -0.9222,0.5246 -0.6623,0.4268 -0.8506,0.6437 -1.0085,1.1625 -0.242,0.7948 -0.1526,1.2059 0.3313,1.5229 0.265,0.1737 0.3767,0.3815 0.3767,0.7012 0,0.37 0.084,0.4835 0.45,0.6112 0.2475,0.086 0.45,0.2565 0.45,0.3782 0,0.1217 0.27,0.4637 0.6,0.7599 0.496,0.4453 0.6,0.6354 0.6,1.0968 0,0.4211 0.087,0.6151 0.3542,0.7902 0.1952,0.1279 0.3978,0.45 0.4513,0.7173 0.053,0.2668 0.2719,0.7143 0.4856,0.9945 0.3257,0.427 0.4089,0.7446 0.5148,1.9626 0.069,0.7992 0.1976,1.8581 0.2848,2.3531 0.087,0.495 0.1171,1.4142 0.066,2.0427 -0.062,0.7727 -0.038,1.1763 0.075,1.2463 0.092,0.057 0.1676,0.2995 0.1676,0.539 0,0.4602 0.4926,1.047 0.879,1.047 0.1223,0 0.3454,0.1113 0.4958,0.2474 0.1827,0.1653 0.6449,0.2713 1.3922,0.3193 1.099,0.071 1.1252,0.082 1.4944,0.6395 0.4632,0.7001 0.3523,0.8196 -0.8864,0.9554 -0.495,0.054 -1.5988,0.2086 -2.453,0.343 -1.323,0.2082 -1.7243,0.2165 -2.7103,0.056 -0.6365,-0.1033 -1.452,-0.1666 -1.8122,-0.1406 -0.6152,0.044 -0.6621,0.02 -0.7744,-0.3991 -0.066,-0.2455 -0.1207,-0.9526 -0.1221,-1.5713 0,-0.6188 -0.01,-1.4288 -0.013,-1.8 -0.01,-0.3713 0.033,-0.945 0.086,-1.275 0.08,-0.4968 0.03,-0.6994 -0.2952,-1.1772 -0.2533,-0.3727 -0.3589,-0.6821 -0.2983,-0.8733 0.058,-0.1834 -0.01,-0.4094 -0.1756,-0.5939 -0.2226,-0.246 -0.262,-0.5152 -0.2264,-1.5454 0.043,-1.2338 0.038,-1.2511 -0.4046,-1.5664 -0.2756,-0.1963 -0.6765,-0.3188 -1.0427,-0.3188 l -0.595,0 -0.1016,0.8978 c -0.056,0.4938 -0.057,1.1353 0,1.4257 0.1123,0.5984 -0.1178,1.045 -0.9359,1.8166 -0.3538,0.3336 -0.4987,0.6036 -0.4987,0.9292 0,0.3108 -0.121,0.554 -0.375,0.7538 -0.2062,0.1623 -0.375,0.3943 -0.375,0.5157 0,0.1214 -0.1247,0.3817 -0.2771,0.5784 -0.1524,0.1968 -0.3207,0.5361 -0.3738,0.7541 -0.053,0.218 -0.4685,0.7362 -0.9229,1.1515 -0.4544,0.4153 -0.8262,0.8668 -0.8262,1.0034 0,0.1365 0.2444,0.5465 0.5431,0.911 0.4364,0.5326 0.6374,0.6628 1.0233,0.6628 0.6624,0 1.7989,0.4078 2.1175,0.7598 0.1454,0.1606 0.2366,0.316 0.2027,0.3453 -0.1475,0.1277 -2.234,0.1854 -2.9823,0.082 z"
       style="fill:#493025"
       sodipodi:nodetypes="ccsscsccccscccccccscscccssscsscsccscccccccsccsccccscsccscccscccccccscsccscscscscsccsccccssccccccccccccccccsccccscsccsscscccc" />
    <g
       style="font-style:normal;font-variant:normal;font-weight:normal;font-stretch:normal;font-size:18.5984726px;line-height:100%;font-family:Andalus;-inkscape-font-specification:'Andalus, Normal';text-align:center;letter-spacing:0px;word-spacing:0px;writing-mode:lr-tb;text-anchor:middle;fill:#493025;fill-opacity:1;stroke:none;stroke-width:1px;stroke-linecap:butt;stroke-linejoin:miter;stroke-opacity:1"
       id="text4202">
      <path
         d="m 807.08724,910.07029 q -1.66188,0.15438 -1.66188,5.45785 l 0,6.13895 -0.42682,0 -7.83715,-10.58878 0,3.37824 q 0,2.35205 0.16346,3.53262 0.36326,2.67898 1.51658,2.82428 l 0,0.4359 -3.94128,0 0,-0.4359 q 1.65279,-0.25428 1.65279,-6.25701 l 0,-3.13304 q 0,-0.76283 -0.29968,-1.04435 -0.2906,-0.2906 -1.06251,-0.30876 l 0,-0.4359 2.97866,0 6.6021,8.87241 0,-2.69714 q 0,-5.56683 -1.6528,-5.73937 l 0,-0.4359 3.96853,0 0,0.4359 z"
         style=""
         id="path4207" />
    </g>
  </g>
</svg>
