<?xml version="1.0" encoding="UTF-8" standalone="no"?>
<!-- Created with Inkscape (http://www.inkscape.org/) -->

<svg
   xmlns:dc="http://purl.org/dc/elements/1.1/"
   xmlns:cc="http://creativecommons.org/ns#"
   xmlns:rdf="http://www.w3.org/1999/02/22-rdf-syntax-ns#"
   xmlns:svg="http://www.w3.org/2000/svg"
   xmlns="http://www.w3.org/2000/svg"
   xmlns:sodipodi="http://sodipodi.sourceforge.net/DTD/sodipodi-0.dtd"
   xmlns:inkscape="http://www.inkscape.org/namespaces/inkscape"
   width="4.3319964in"
   height="3.7327685in"
   viewBox="0 0 110.0327 94.812321"
   version="1.1"
   id="svg8"
   inkscape:version="0.92.1 r15371"
   sodipodi:docname="Unicorn.svg"
   inkscape:export-filename="C:\Users\Michele\Documents\OpenSourceCartography\Talk\Unicorn.png"
   inkscape:export-xdpi="100"
   inkscape:export-ydpi="100">
  <defs
     id="defs2">
    <filter
       inkscape:collect="always"
       style="color-interpolation-filters:sRGB"
       id="filter4645"
       x="-0.10558536"
       width="1.2111707"
       y="-0.13742857"
       height="1.274857">
      <feGaussianBlur
         inkscape:collect="always"
         stdDeviation="0.39770181"
         id="feGaussianBlur4647" />
    </filter>
    <filter
       inkscape:collect="always"
       style="color-interpolation-filters:sRGB"
       id="filter4649"
       x="-0.10558535"
       width="1.2111707"
       y="-0.13742857"
       height="1.274857">
      <feGaussianBlur
         inkscape:collect="always"
         stdDeviation="0.39770181"
         id="feGaussianBlur4651" />
    </filter>
  </defs>
  <sodipodi:namedview
     id="base"
     pagecolor="#ffffff"
     bordercolor="#666666"
     borderopacity="1.0"
     inkscape:pageopacity="0.0"
     inkscape:pageshadow="2"
     inkscape:zoom="1.7887751"
     inkscape:cx="207.93583"
     inkscape:cy="179.17289"
     inkscape:document-units="mm"
     inkscape:current-layer="layer1"
     showgrid="false"
     units="in"
     inkscape:snap-global="false"
     inkscape:window-width="1440"
     inkscape:window-height="838"
     inkscape:window-x="-8"
     inkscape:window-y="-8"
     inkscape:window-maximized="1"
     fit-margin-top="0.1"
     fit-margin-left="0.1"
     fit-margin-right="0.1"
     fit-margin-bottom="0.1" />
  <metadata
     id="metadata5">
    <rdf:RDF>
      <cc:Work
         rdf:about="">
        <dc:format>image/svg+xml</dc:format>
        <dc:type
           rdf:resource="http://purl.org/dc/dcmitype/StillImage" />
        <dc:title />
      </cc:Work>
    </rdf:RDF>
  </metadata>
  <g
     inkscape:label="Unicorn"
     inkscape:groupmode="layer"
     id="layer1"
     transform="translate(-72.803194,-140.48299)">
    <path
       style="fill:none;fill-opacity:1;stroke:#000000;stroke-width:2.66666675;stroke-linecap:butt;stroke-linejoin:miter;stroke-miterlimit:4;stroke-dasharray:none;stroke-opacity:1"
       d="m 648.68359,359.42188 c -41.3568,5.88631 -11.99007,80.3767 -80.26171,62.71874 l -2.38672,10.28126 c 0.41985,0.0481 0.81563,0.0835 1.23046,0.1289 l 1.15626,15.02734 c 1.35965,0.28354 2.77452,0.55303 4.21679,0.8125 l 0.16797,2.25782 c 1.52083,0.68731 3.03713,1.38286 4.55469,2.07617 l 4.65625,8.88867 c 14.11925,9.11902 27.37237,19.68338 48.24609,17.54492 42.548,-6.01678 25.07634,-44.64323 47.80664,-43.42187 -5.9725,-6.06777 -12.36452,-8.78094 -19.86914,-2.5918 -0.64771,-11.45958 -1.70449,-23.7073 8.46485,-33.81055 -6.68655,0.71167 -13.44127,1.1808 -18.6836,6.94727 -1.29364,-9.57697 -1.34845,-19.60692 12.10547,-31.50977 -8.16306,-2.30374 -15.84419,-1.54954 -22.45703,5.96485 0.74932,-9.90104 2.60771,-18.14954 11.05273,-21.31445 z"
       transform="matrix(0.26458333,0,0,0.26458333,0,81.1)"
       id="path4759-8"
       inkscape:connector-curvature="0" />
    <path
       style="fill:none;stroke:#000000;stroke-width:2.66666675;stroke-linecap:butt;stroke-linejoin:miter;stroke-miterlimit:4;stroke-dasharray:none;stroke-opacity:1"
       d="m 433.09961,235.37305 c -8.83236,0.0129 -17.87959,1.73771 -26.95899,6.0664 -30.87959,15.63024 -28.07031,50.19141 -28.07031,50.19141 l 17.10547,2.43945 c 2.00525,-1.23981 4.15197,-2.37772 6.4082,-3.43554 l 29.18164,-3.50196 31.07618,31.49805 c 3.26943,1.59154 6.48372,3.06313 9.64648,4.43164 l 33.33594,37.67383 c 25.76587,5.75697 53.65575,17.30716 67.10547,-10.52539 -12.52217,-0.81726 -17.32194,-8.69696 -23.91992,-18.00977 7.9994,-3.70829 13.2519,-9.80088 15.14843,-17.95508 -16.32931,9.42993 -22.56518,0.099 -32.35742,-11.51562 7.66277,-2.06793 13.27227,-6.00508 15.69141,-12.16992 -27.62293,-1.43386 -35.20813,-11.06037 -45.13086,-19.95703 9.80084,-2.57951 16.99934,-6.10938 19.6914,-11.6211 -15.43251,8.41774 -49.67956,-23.66517 -87.95312,-23.60937 z"
       transform="matrix(0.26458333,0,0,0.26458333,0,81.1)"
       id="path4721-4"
       inkscape:connector-curvature="0" />
    <g
       id="g4765"
       style="stroke-width:0.35277778;stroke-miterlimit:4;stroke-dasharray:none">
      <path
         sodipodi:nodetypes="ccccccc"
         inkscape:connector-curvature="0"
         id="path4759"
         d="m 153.99214,203.23538 c 3.73572,2.41274 7.24215,5.20761 12.76499,4.64181 11.25749,-1.59194 6.63488,-11.81164 12.64894,-11.48849 -1.8706,-1.90044 -3.89658,-2.55793 -6.3825,0.46419 l -14.73775,1.74068 -6.84668,-0.2321 z"
         style="fill:#d7eef4;fill-opacity:1;stroke:#000000;stroke-width:0.35277778;stroke-linecap:butt;stroke-linejoin:miter;stroke-miterlimit:4;stroke-dasharray:none;stroke-opacity:1" />
      <path
         sodipodi:nodetypes="cccccc"
         inkscape:connector-curvature="0"
         id="path4757"
         d="m 151.55519,200.33424 c 5.21621,2.35738 10.27855,4.99686 17.29075,4.06159 10.15732,-3.05091 1.60024,-11.7348 7.54295,-17.63889 -2.04862,0.21804 -4.12302,0.34587 -5.57018,2.66904 l -19.49561,7.77504 z"
         style="fill:#d7f4ee;fill-opacity:1;stroke:#000000;stroke-width:0.35277778;stroke-linecap:butt;stroke-linejoin:miter;stroke-miterlimit:4;stroke-dasharray:none;stroke-opacity:1" />
      <path
         sodipodi:nodetypes="ccccccc"
         inkscape:connector-curvature="0"
         id="path4755"
         d="m 150.39473,199.52193 c 4.95399,1.03308 12.17308,1.53386 16.3624,-0.46418 10.81668,-6.76442 -0.44643,-11.42304 7.89108,-18.79934 -3.02152,-0.85272 -5.7933,-0.12373 -7.89108,4.8739 l -4.40973,7.54294 -12.3008,2.32091 z"
         style="fill:#fff6d5;fill-opacity:1;stroke:#000000;stroke-width:0.35277778;stroke-linecap:butt;stroke-linejoin:miter;stroke-miterlimit:4;stroke-dasharray:none;stroke-opacity:1" />
      <path
         sodipodi:nodetypes="cccc"
         inkscape:connector-curvature="0"
         id="path4753"
         d="m 149.76345,195.5114 c 27.68098,3.17403 14.01424,-16.37141 21.86758,-19.31458 -10.94232,1.55742 -3.17275,21.26648 -21.23629,16.59448 z"
         style="fill:#ffd5d5;fill-opacity:1;stroke:#333333;stroke-width:0.35277778;stroke-linecap:butt;stroke-linejoin:miter;stroke-miterlimit:4;stroke-dasharray:none;stroke-opacity:1" />
    </g>
    <path
       style="fill:#c1bcb8;stroke:#000000;stroke-width:0.35277778;stroke-linecap:butt;stroke-linejoin:miter;stroke-miterlimit:4;stroke-dasharray:none;stroke-opacity:1"
       d="m 93.360673,160.87486 10.620457,3.87723 c -8.877349,-14.84387 -8.960567,-15.07638 -10.620457,-3.87723 z"
       id="path4546-5-5"
       inkscape:connector-curvature="0"
       sodipodi:nodetypes="ccc" />
    <g
       id="g4771"
       style="stroke-width:0.35277778;stroke-miterlimit:4;stroke-dasharray:none">
      <path
         sodipodi:nodetypes="ccccc"
         inkscape:connector-curvature="0"
         id="path4721"
         d="m 104.55683,158.90607 c 9.50977,-5.87973 30.51561,-3.57263 33.30501,-9.28363 -5.02546,2.74116 -17.59183,-10.75008 -30.40387,-4.64181 -8.170225,4.1355 -7.4269,13.28022 -7.4269,13.28022 z"
         style="fill:#ffd5d5;stroke:#000000;stroke-width:0.35277778;stroke-linecap:butt;stroke-linejoin:miter;stroke-miterlimit:4;stroke-dasharray:none;stroke-opacity:1" />
      <path
         sodipodi:nodetypes="ccscc"
         inkscape:connector-curvature="0"
         id="path4719"
         d="m 118.01809,156.58516 c 10.55894,5.47434 24.22432,7.38134 26.57438,1.39254 -13.92281,-0.72271 -8.60143,-9.31359 -24.98007,-9.44543 -8.43687,-0.0679 -14.05421,3.26046 -16.09997,9.79358 z"
         style="fill:#fff6d5;stroke:#000000;stroke-width:0.35277778;stroke-linecap:butt;stroke-linejoin:miter;stroke-miterlimit:4;stroke-dasharray:none;stroke-opacity:1" />
      <path
         sodipodi:nodetypes="cccc"
         inkscape:connector-curvature="0"
         id="path4717"
         d="m 122.19572,165.4046 c 14.50589,7.06139 25.201,5.74232 26.80647,-1.16045 -10.41073,6.01204 -5.23239,-16.73707 -35.39382,-7.54295 z"
         style="fill:#d7f4ee;stroke:#000000;stroke-width:0.35277778;stroke-linecap:butt;stroke-linejoin:miter;stroke-miterlimit:4;stroke-dasharray:none;stroke-opacity:1" />
      <path
         sodipodi:nodetypes="cccc"
         inkscape:connector-curvature="0"
         id="path4715"
         d="m 133.56816,176.54495 c 6.81722,1.5232 14.19637,4.57895 17.75494,-2.78508 -8.97139,-0.58552 -2.94259,-14.84844 -32.02851,-13.34521 z"
         style="fill:#d7eef4;stroke:#000000;stroke-width:0.35277778;stroke-linecap:butt;stroke-linejoin:miter;stroke-miterlimit:4;stroke-dasharray:none;stroke-opacity:1" />
    </g>
    <path
       style="fill:#c1bcb8;stroke:#000000;stroke-width:0.35277778;stroke-linecap:butt;stroke-linejoin:miter;stroke-miterlimit:4;stroke-dasharray:none;stroke-opacity:1"
       d="m 133.35083,164.51033 -11.22635,-1.34006 c 14.62667,-9.23081 14.80597,-9.40063 11.22635,1.34006 z"
       id="path4546-5"
       inkscape:connector-curvature="0"
       sodipodi:nodetypes="ccc" />
    <path
       style="fill:#c1bcb8;stroke:#000000;stroke-width:0.35277778;stroke-linecap:butt;stroke-linejoin:miter;stroke-miterlimit:4;stroke-dasharray:none;stroke-opacity:1"
       d="m 119.76135,224.39898 11.13254,-1.97303 c -4.5626,13.33163 -14.85501,13.05679 -11.13254,1.97303 z"
       id="path4546-3"
       inkscape:connector-curvature="0"
       sodipodi:nodetypes="ccc" />
    <path
       style="fill:#c1bcb8;stroke:#000000;stroke-width:0.35277778;stroke-linecap:butt;stroke-linejoin:miter;stroke-miterlimit:4;stroke-dasharray:none;stroke-opacity:1"
       d="m 148.72375,212.57715 -7.70628,8.27282 c 13.67066,3.41512 19.0334,-5.37409 7.70628,-8.27282 z"
       id="path4546-1"
       inkscape:connector-curvature="0"
       sodipodi:nodetypes="ccc" />
    <path
       style="fill:#c1bcb8;stroke:#000000;stroke-width:0.35277778;stroke-linecap:butt;stroke-linejoin:miter;stroke-miterlimit:4;stroke-dasharray:none;stroke-opacity:1"
       d="m 83.783058,197.50665 1.527593,11.20236 C 72.171538,203.61848 72.85654,193.34521 83.783058,197.50665 Z"
       id="path4546"
       inkscape:connector-curvature="0"
       sodipodi:nodetypes="ccc" />
    <path
       style="opacity:1;fill:#ffffff;fill-opacity:1;stroke:#000000;stroke-width:0.70555556;stroke-miterlimit:4;stroke-dasharray:none;stroke-dashoffset:0"
       d="m 144.61226,181.18205 c 10.43855,7.66532 22.69913,41.03787 -15.53055,46.42342 -35.399101,2.00711 -50.665204,-18.29301 -50.665206,-39.52992 -3e-6,-21.23691 14.992645,-33.22749 36.916866,-32.63644 23.97214,0.64627 19.09855,16.0904 29.27889,25.74294 z"
       id="path4485"
       inkscape:connector-curvature="0"
       sodipodi:nodetypes="ccssc" />
    <circle
       style="opacity:1;fill:#000000;fill-opacity:1;stroke:#000000;stroke-width:0.26499999;stroke-miterlimit:4;stroke-dasharray:none;stroke-dashoffset:0"
       id="path4520"
       cx="116.62514"
       cy="153.12616"
       r="2.0367925"
       transform="rotate(6.3073808)" />
    <circle
       style="opacity:1;fill:#000000;fill-opacity:1;stroke:#000000;stroke-width:0.26499999;stroke-miterlimit:4;stroke-dasharray:none;stroke-dashoffset:0"
       id="path4520-3"
       cx="144.12184"
       cy="153.12616"
       r="2.0367925"
       transform="rotate(6.3073808)" />
    <path
       style="fill:#c1bcb8;stroke:#000000;stroke-width:0.37993214;stroke-linecap:butt;stroke-linejoin:miter;stroke-miterlimit:4;stroke-dasharray:none;stroke-opacity:1"
       d="m 105.15415,203.9485 c -1.75164,-12.31031 6.95234,-9.71924 10.04378,-3.36737"
       id="path4569"
       inkscape:connector-curvature="0"
       sodipodi:nodetypes="cc" />
    <ellipse
       style="opacity:1;fill:#e6c3b3;fill-opacity:1;stroke:none;stroke-width:0.33829939;stroke-miterlimit:4;stroke-dasharray:none;stroke-dashoffset:0;filter:url(#filter4645)"
       id="path4574"
       cx="92.714409"
       cy="178.43359"
       rx="4.5199652"
       ry="3.4726562"
       transform="matrix(0.80056283,0.08848735,-0.08369623,0.75721662,37.842151,27.502819)" />
    <ellipse
       style="opacity:1;fill:#e6c3b3;fill-opacity:1;stroke:none;stroke-width:0.33829939;stroke-miterlimit:4;stroke-dasharray:none;stroke-dashoffset:0;filter:url(#filter4649)"
       id="path4574-2"
       cx="129.75607"
       cy="178.43359"
       rx="4.5199656"
       ry="3.4726562"
       transform="matrix(0.80056283,0.08848735,-0.08369623,0.75721662,38.371318,28.031986)" />
    <path
       style="fill:#d28677;fill-opacity:1;stroke:#000000;stroke-width:0.35277778;stroke-linecap:butt;stroke-linejoin:miter;stroke-miterlimit:4;stroke-dasharray:none;stroke-opacity:1"
       d="m 106.51869,169.25972 c 3.55705,-0.5576 7.94527,0.0603 11.19607,1.21276 4.74218,10.65537 -16.82047,8.80732 -11.19607,-1.21276 z"
       id="path4692"
       inkscape:connector-curvature="0"
       sodipodi:nodetypes="ccc" />
    <g
       id="g4591"
       transform="rotate(-0.27637946,105.66957,-505.92969)">
      <path
         sodipodi:nodetypes="ccc"
         inkscape:connector-curvature="0"
         id="path4488-5"
         d="m 115.28481,156.85851 c -5.29896,-15.92679 -3.04822,-15.5047 -8.2751,0 4.21612,2.16306 6.115,1.37462 8.2751,0 z"
         style="fill:#ffe680;stroke:#000000;stroke-width:0.70555556;stroke-linecap:butt;stroke-linejoin:miter;stroke-miterlimit:4;stroke-dasharray:none;stroke-opacity:1" />
      <path
         sodipodi:nodetypes="cc"
         inkscape:connector-curvature="0"
         id="path4699"
         d="m 107.57401,155.30866 c 2.14197,-0.0275 4.56886,-1.25144 6.01799,-3.40066"
         style="fill:none;stroke:#000000;stroke-width:0.35277778;stroke-linecap:butt;stroke-linejoin:miter;stroke-miterlimit:4;stroke-dasharray:none;stroke-opacity:1" />
      <path
         sodipodi:nodetypes="cc"
         inkscape:connector-curvature="0"
         id="path4701"
         d="m 109.19865,149.85453 c 1.56995,-0.016 2.69426,-0.80681 3.34635,-1.74068"
         style="fill:none;stroke:#000000;stroke-width:0.35277778;stroke-linecap:butt;stroke-linejoin:miter;stroke-miterlimit:4;stroke-dasharray:none;stroke-opacity:1" />
    </g>
  </g>
</svg>
